<svg t="1640339429400" class="icon" viewBox="0 0 1024 1024" version="1.1" xmlns="http://www.w3.org/2000/svg" p-id="3920" width="200" height="200"><path d="M514.46015545 2.78042283c-280.12240327 0-508.02966755 228.44749597-508.02966756 509.23704092 0 280.77208007 228.73624121 509.20094834 509.90418262 509.20094834 57.2285952 0 113.3406299-9.35743943 166.710751-27.80336583 20.95148942-7.24773661 35.33984768-14.13570674 35.80905814-14.37089337 8.18615865-3.660544 14.35226567-10.29586147 17.30957425-18.66132139 2.99340231-8.31190243 2.45200555-17.21875911-1.47865486-25.08007993l-3.28098361-6.63531747c-8.11397234-16.22794467-28.41578496-23.40349497-45.68926663-15.75873309-0.03609259 0.03609259-6.59922489 3.44398507-22.86326215 9.19560192-46.73480363 16.64243371-95.81449671 25.09870877-145.9036342 25.09870877-239.98682453 0-435.18554795-195.21735111-435.18554795-435.18554795S276.96142905 76.81445205 516.94825358 76.81445205c239.95073195 0 435.14945422 195.234816 435.14945423 435.11336164-1.00944327 59.01462301-15.79482681 114.33144547-41.65032733 155.71165639-23.51177387 37.66610944-53.40621369 59.15783168-82.14683762 59.15783168-0.36093155 0-0.68460544 0-1.00944327 0-52.14411776-0.90116437-85.82600931-78.035712-85.82600932-196.51554077l0-210.79561898c0-6.29301475-1.62302749-10.96300203-4.9761974-14.28007936-5.62587421-5.62587421-14.06352043-5.48150158-24.19754439-5.53505906l-2.8129371 0.01862884-10.49379157-0.01862884c-8.76248405 0.03609259-15.32561522-0.07218631-19.90595243 4.48952206-4.14721934 4.11112562-4.68745216 10.34941895-4.68745216 15.32561522l0 35.33984768c-51.42341973-41.07400078-91.52290589-67.66882816-150.15913245-68.6969014-1.18990962-0.01862883-2.34372551-0.03609259-3.49754254-0.03609259-123.72614258 0-225.81502521 112.88888434-228.30312448 253.47401842-2.45200555 141.88215979 96.53519587 259.09872754 220.69445632 261.26315292 1.18990962 0.01746489 2.34372551 0.03609259 3.49754254 0.03609259 72.0139776 0 139.12394411-38.78383275 182.03636736-104.79354084 27.73117952 68.55252878 69.99508992 103.78409643 125.70893654 104.75744712 0.79404942 0.01746489 1.58693376 0.01746489 2.34489059 0.01746488 38.62199523 0 75.90854429-16.62380487 108.00350208-48.15990101 54.20026311-53.24437731 86.54670848-141.99043869 86.54670848-237.39044637l0-3.2809836C1021.26381966 231.22791993 793.89795328 2.78042283 514.46015545 2.78042283zM665.30389333 545.39198237c0 104.93791346-66.53247602 190.33080491-148.35563975 190.3308049s-148.35563975-85.39289259-148.35563975-190.3308049c0-104.95654229 66.53247602-190.34826979 148.35563975-190.3482698S665.30389333 440.43660515 665.30389333 545.39198237z" p-id="3921"></path></svg>