<svg t="1639466249353" viewBox="0 0 1024 1024" version="1.1" xmlns="http://www.w3.org/2000/svg" p-id="19819" width="200" height="200"><path d="M507.2 251.62666667H332.96c-24 0-43.2 19.68-43.2 43.68v348c0 24 19.2 43.68 43.2 43.68h261.6c24 0 43.68-19.68 43.68-43.68V382.18666667L507.2 251.62666667z m43.2 348H376.64v-43.68H550.4v43.68z m0-86.88H376.64v-43.68H550.4v43.68zM485.12 403.78666667V284.26666667l119.52 119.52H485.12z" fill="#99E998" p-id="19820"></path><path d="M594.08 305.86666667H419.84c-24 0-43.2 19.68-43.2 43.68v348c0 24 19.2 43.68 43.2 43.68h261.6c24 0 43.68-19.68 43.68-43.68V436.42666667l-131.04-130.56z m43.68 348H463.52v-43.2h174.24v43.2z m0-86.88H463.52v-43.68h174.24v43.68z m-65.28-108.96V338.50666667l119.52 119.52h-119.52z" fill="#01C700" p-id="19821"></path><path d="M808.16 229.54666667H780.8v-27.84c0-6.24-4.8-11.04-11.04-11.04-6.24 0-11.04 4.8-11.04 11.04v27.84h-27.84c-6.24 0-11.04 4.8-11.04 11.04s4.8 11.04 11.04 11.04h27.84V279.46666667c0 6.24 4.8 11.04 11.04 11.04 6.24 0 11.04-4.8 11.04-11.04v-27.84h27.84c6.24 0 11.04-4.8 11.04-11.04s-5.28-11.04-11.52-11.04z" fill="#BEEEB9" p-id="19822"></path><path d="M787.3088 592.33066667l43.44-43.44 43.4496 43.44-43.4448 43.44zM769.76 790.18666667l32.64-32.64h-65.28z" fill="#EAF9E8" p-id="19823"></path><path d="M234.56 230.50666667m-30.72 0a30.72 30.72 0 1 0 61.44 0 30.72 30.72 0 1 0-61.44 0Z" fill="#EAF9E8" p-id="19824"></path><path d="M295.52 755.14666667l-83.52-83.52c-2.88-2.88-7.68-3.84-12-2.4-3.84 1.92-6.72 5.76-6.72 10.08v83.52c0 2.88 1.44 5.76 3.36 7.68 1.92 1.92 4.8 3.36 7.68 3.36h83.52c4.32 0 8.16-2.88 10.08-6.72 1.44-3.84 0.48-8.64-2.4-12z m-80.64-2.88v-46.08l46.08 46.08h-46.08z" fill="#BEEEB9" p-id="19825"></path></svg>