<svg t="1639556198653" class="icon" viewBox="0 0 1024 1024" version="1.1" xmlns="http://www.w3.org/2000/svg" p-id="20908" width="200" height="200"><path d="M425.098 722.609c0 24.92 20.178 45.103 45.018 45.103H917.42c24.911 0 45.083-20.189 45.083-45.103 0-24.854-20.178-45.103-45.083-45.103H470.116c-24.84 0-45.018 20.249-45.018 45.103zM932.733 870.681H111.39c-24.583 0-44.571 19.993-44.571 44.656 0 24.604 19.988 44.663 44.571 44.663h806.47c37.462 0 64.147-46.309 26.316-84.508-2.604-2.631-7.74-4.811-11.443-4.811zM95.571 767.041l157.741-42.266c18.579-4.978 24.801-28.202 11.201-41.802L149.038 567.499c-13.601-13.601-36.824-7.378-41.802 11.201L64.97 736.44c-4.979 18.579 12.022 35.58 30.601 30.601zM308.01 649.707c7 7 18.455 7 25.456 0l265.043-265.043c7.001-7 7.001-18.456 0-25.456L474.03 234.728c-7-7-18.456-7-25.456 0L183.53 499.772c-7 7-7 18.456 0 25.456l124.48 124.479zM645.128 312.589c7.001 7 18.456 7 25.456 0l93.408-93.408c7-7 7-18.456 0-25.456L639.513 69.246c-7.001-7-18.456-7-25.456 0l-93.408 93.408c-7 7-7 18.456 0 25.456l124.479 124.479z" p-id="20909"></path></svg>