<svg viewBox="0 0 1024 1024" version="1.1"
    xmlns="http://www.w3.org/2000/svg" p-id="2673"
    xmlns:xlink="http://www.w3.org/1999/xlink" width="200" height="200">
    <path d="M535.04 830.464V322.56c-4.608-109.568 46.592-154.624 138.752-171.008 71.168-12.8 143.872-16.384 226.816-25.088 0 210.944-0.512 599.552-0.512 599.552l0.512 50.176c-0.512 0.512-187.392-14.336-365.568 54.272z" fill="#999999" p-id="2674"></path>
    <path d="M552.448 866.304c128-20.992 257.536-41.472 398.848-64.512V221.696h30.72v604.672c-0.512 25.088-27.648 69.632-44.032 70.656h-361.472c-9.728 0-24.064-30.72-24.064-30.72z m-60.416-35.84V322.56C496.64 213.504 445.44 168.448 353.28 151.552c-71.168-12.8-143.872-16.384-226.816-25.088 0 210.944 0.512 599.552 0.512 599.552l-0.512 50.176c0 0.512 186.88-14.336 365.568 54.272z" fill="#999999" p-id="2675"></path>
    <path d="M471.552 866.304c-128-20.992-255.488-41.472-397.312-64.512V222.208H41.984v604.672c0.512 25.088 29.184 69.632 45.056 70.656h359.424c10.24-0.512 25.088-31.232 25.088-31.232z" fill="#999999" p-id="2676"></path>
</svg>