<svg t="1640339757497" class="icon" viewBox="0 0 1109 1024" version="1.1" xmlns="http://www.w3.org/2000/svg" p-id="4452" width="200" height="200"><path d="M553.386667 1024a512 512 0 1 1 0-1024 512 512 0 0 1 0 1024z m0-938.666667a426.666667 426.666667 0 1 0 0 853.333334 426.666667 426.666667 0 0 0 0-853.333334zM777.386667 549.290667H590.762667v186.709333a37.290667 37.290667 0 0 1-74.666667 0V549.290667H329.386667a37.376 37.376 0 0 1 0-74.581334h186.709333V288a37.290667 37.290667 0 0 1 74.666667 0v186.709333H777.386667a37.376 37.376 0 0 1 0 74.581334z" p-id="4453"></path></svg>