<svg xmlns="http://www.w3.org/2000/svg" width="24" height="24" viewBox="0 0 24 24" fill="currentColor" stroke="none" stroke-width="2" stroke-linecap="round" stroke-linejoin="round">
  <path d="M10.9999874,-5.23173511e-16 C4.92492668,-5.23173511e-16 0,4.92482623 0,11.0000126 C0,17.0751487 4.92480112,21.9999749 10.9999874,21.9999749 C17.0751738,21.9999749 22,17.0751487 22,11.0000126 C22,4.92482623 17.0751738,-5.23173511e-16 10.9999874,-5.23173511e-16 L10.9999874,-5.23173511e-16 Z M16.933523,8.18751605 L9.49326509,15.627774 C9.34644054,15.774473 9.09182074,15.7577712 8.92445178,15.5904023 L8.42581087,15.0917613 C8.42568528,15.0916358 8.42555972,15.0916358 8.42555972,15.0915102 L5.0920947,11.7580452 C4.92472575,11.5906762 4.92472575,11.3193547 5.0920947,11.1519858 L6.0011964,10.2428841 C6.16856535,10.0753896 6.43986176,10.0753896 6.60725583,10.2428841 L9.22746893,12.8631223 L15.4182363,6.67235492 C15.565086,6.52553037 15.8196807,6.54223211 15.9870496,6.70960104 L16.8961513,7.61870273 C17.0635203,7.78619728 17.080222,8.04079197 16.933523,8.18751605 L16.933523,8.18751605 Z"></path>
</svg>