<svg width="24" height="24" viewBox="0 0 24 24" version="1.1" xmlns="http://www.w3.org/2000/svg" stroke="none" stroke-width="1" fill="currentColor" stroke-linecap="round" stroke-linejoin="round">
    <path d="M16.1547126,2 C19.2792184,2 21.9758621,4.19823607 22.7683678,7.27626167 C22.9216092,7.87186482 23,8.4882621 23,9.11456134 C23,10.5166795 22.6222069,11.7370966 21.9318621,12.9664254 C21.7794534,13.2376733 21.4908005,13.4087197 21.174636,13.415133 C20.8584716,13.4215463 20.5628285,13.2623522 20.3990728,12.9975176 C20.235317,12.732683 20.2283269,12.4024426 20.3807356,12.1311948 C20.9375632,11.1400081 21.2298851,10.1953608 21.229885,9.11456134 C21.229885,8.63134549 21.1691954,8.15704139 21.0518621,7.70006573 C20.452046,5.37062864 18.4437241,3.73284374 16.1547126,3.73284374 C14.8407816,3.73284374 13.5905747,4.2665596 12.6382529,5.23645703 C12.4715718,5.40601713 12.2416079,5.50191305 12.0012265,5.50209981 C11.760845,5.50228657 11.5307259,5.4067481 11.3637701,5.23744721 C10.4190345,4.27943216 9.14,3.73284374 7.84528736,3.73284374 C5.06165517,3.73284374 2.77011495,6.13506027 2.77011495,9.11456134 C2.77011495,10.4166774 3.10388434,11.3268606 3.94292124,12.6660087 L4.03311449,12.8085915 L4.03311449,12.8085915 L4.12708456,12.9545558 C4.14306344,12.9791768 4.15920154,13.0039475 4.17549978,13.0288724 L4.2752184,13.1803079 L4.2752184,13.1803079 C4.8490728,14.0523409 5.70681993,15.0350558 6.77173607,16.0798964 L6.93301766,16.2370824 C6.98728972,16.289629 7.04207012,16.3423248 7.09734925,16.3951638 L7.26467329,16.5541043 C7.2928068,16.5806639 7.32106261,16.6072579 7.3494395,16.6338853 L7.52114432,16.7940461 L7.52114432,16.7940461 L7.69569773,16.9549749 L7.69569773,16.9549749 L7.87304219,17.1166352 L7.87304219,17.1166352 L8.05312016,17.2789908 L8.05312016,17.2789908 L8.23587409,17.4420051 L8.23587409,17.4420051 L8.42124645,17.6056417 C8.45235685,17.6329643 8.48357395,17.6603113 8.51489655,17.687682 C9.05604598,18.1600057 9.60022988,18.6154961 10.1322759,19.0442511 L10.6390345,19.4477562 L11.038069,19.7581828 L11.4204138,20.0488054 L11.4785747,20.0923741 C11.6318161,20.208227 11.8088276,20.2676388 11.9994943,20.2676388 C12.1916782,20.2676388 12.3686897,20.208227 12.5290115,20.0859378 L12.9032644,19.8012563 L13.3002759,19.4913248 L13.764046,19.1214865 C14.1414025,18.8172898 14.6992145,18.8701565 15.009954,19.2395674 C15.3206935,19.6089783 15.2666898,20.1550452 14.8893333,20.4592418 L14.4088736,20.8424479 L13.8227126,21.2979382 L13.6072644,21.4603304 C13.1481027,21.8108752 12.5822827,22.0008555 12,22 C11.4678874,22.0011458 10.9482134,21.8425127 10.5110805,21.5454873 L10.3441839,21.4241882 L9.94616091,21.1221783 L9.41664367,20.7082762 C8.70897128,20.1490078 8.01538438,19.5728711 7.33650574,18.9803835 L7.23573215,18.8920932 L7.23573215,18.8920932 L7.03625473,18.715955 C7.00324074,18.6866488 6.97034364,18.657368 6.93756455,18.6281132 L6.74231539,18.4528993 C6.71001294,18.4237502 6.67783079,18.394628 6.64577007,18.3655333 L6.45487204,18.1912986 C6.4233016,18.1623158 6.39185487,18.1333614 6.36053299,18.104436 L6.17410897,17.9312355 L6.17410897,17.9312355 L5.99073587,17.7587549 L5.99073587,17.7587549 L5.8104683,17.5870187 C5.78068554,17.5584594 5.75103444,17.5299321 5.72151616,17.5014374 L5.54600929,17.3308635 C5.40109684,17.1890508 5.25956154,17.0480771 5.12154558,16.9080059 L4.95762482,16.7403578 C4.09248742,15.8485885 3.37383267,14.9948293 2.83894001,14.1957477 L2.78933333,14.1209945 C2.75129501,14.0636531 2.71391895,14.0069209 2.67719994,13.9507613 L2.56900884,13.7839629 C2.55130378,13.7564372 2.53376168,13.7290454 2.51638189,13.701783 L2.41404564,13.5397238 C1.42678927,11.9606825 1,10.7999357 1,9.11456134 C1,5.20328546 4.05572414,2 7.84528736,2 C9.31954025,2 10.7634483,2.50846586 11.9388046,3.41598089 L11.997977,3.46252011 L12.0622069,3.41202009 C13.188,2.53767664 14.5454253,2.04257843 15.9685977,2.00247548 L16.1547126,2 Z M18,14 C18.4047756,14 18.7418913,14.3104379 18.7751986,14.7138181 L18.7778655,14.7778217 L18.7777944,16.2222766 L20.222473,16.2223477 C20.639481,16.2225352 20.9821573,16.551509 20.999329,16.9681397 C21.0165008,17.3847705 20.7020585,17.7408249 20.2864802,17.7753243 L20.222473,17.7779911 L18.7777944,17.7779911 L18.7778655,19.2225171 C18.7776779,19.6395014 18.4486856,19.9821583 18.0320315,19.9993291 C17.6153773,20.0164999 17.2593028,19.7020755 17.2248014,19.2865207 L17.2221345,19.2225171 L17.2220989,17.7779911 L15.777527,17.7779911 C15.360519,17.7778036 15.0178427,17.4488299 15.000671,17.0321991 C14.9834992,16.6155683 15.2979415,16.2595139 15.7135198,16.2250145 L15.777527,16.2223477 L17.2220989,16.2222766 L17.2221345,14.7778217 C17.2221345,14.3484641 17.5706182,14 18,14 Z"></path>
</svg>