<?xml version="1.0" encoding="UTF-8"?>
<svg width="24px" height="24px" viewBox="0 0 24 24" version="1.1" xmlns="http://www.w3.org/2000/svg" xmlns:xlink="http://www.w3.org/1999/xlink">
    <title>collection</title>
    <g id="collection" stroke="none" stroke-width="1" fill="none" fill-rule="evenodd">
        <path d="M11.120098,15.1839323 L11,15.3171247 C11.5490196,15.9450317 12.2181373,16.6109937 12.9558824,17.3530655 L13.5906863,18 L14.2254902,17.3530655 C16.5073529,15.0697674 18,13.5475687 18,11.7019027 C18,10.1987315 16.9362745,9 15.5637255,9 C15.3235294,9 15.0833333,9.03805497 14.8431373,9.1141649 C14.8602941,9.24735729 14.877451,9.38054968 14.877451,9.53276956 C14.8946078,11.397463 13.4019608,12.9006342 11.120098,15.1839323 L11.120098,15.1839323 Z M5.65765766,10.7734994 C5.56756757,10.5016988 5.53153153,10.211778 5.53153153,9.9218573 C5.53153153,8.599094 6.48648649,7.53001133 7.74774775,7.38505096 C9.22522523,5.95356738 11.2072072,5.06568516 13.4234234,5.06568516 C14.3243243,5.06568516 15.1891892,5.21064553 16,5.48244621 C14.5225225,3.9603624 12.4504505,3 10.1621622,3 C5.65765766,3 2,6.6783692 2,11.2083805 C2,14.8505096 4.34234234,17.9127973 7.6036036,19 C6.16216216,17.5141563 5.27927928,15.5028313 5.27927928,13.2559456 C5.26126126,12.4043035 5.40540541,11.5707814 5.65765766,10.7734994 L5.65765766,10.7734994 Z" id="形状" fill="#DCCBFF" fill-rule="nonzero"></path>
        <path d="M16.1708931,4.43063006 C15.3065307,4.14379055 14.4014402,3.998377 13.4906284,4 C11.185226,4 9.1047409,4.91741381 7.58654906,6.39648751 C6.59316428,7.35133256 5.84343991,8.54956948 5.4123484,9.89758602 C5.14994487,10.7213739 5,11.5826067 5,12.5 C5,14.8028684 5.91841235,16.899783 7.41786108,18.4350241 C8.95479603,20.00771 11.1102536,21 13.4906284,21 C18.1764057,21 22,17.1993423 22,12.5187293 C22,8.71807155 19.5446527,5.55397717 16.1708931,4.43063006 L16.1708931,4.43063006 Z M16.2373541,8 C17.7743191,8 19,9.17970402 19,10.7019027 C19,12.5475687 17.307393,14.0697674 14.7198444,16.3530655 L14,17 L13.2801556,16.3530655 C12.4435798,15.6109937 11.6848249,14.9450317 11.0622568,14.3171247 C9.77821012,13.0422833 9,11.9386892 9,10.7019027 C9,9.1987315 10.2062257,8 11.7626459,8 C12.6381323,8 13.4747082,8.39957717 14.0194553,9.02748414 C14.3891051,8.60887949 14.8949416,8.28541226 15.459144,8.13319239 C15.692607,8.05708245 15.9649805,8 16.2373541,8 L16.2373541,8 Z" id="形状" fill="#A87DFF" fill-rule="nonzero"></path>
        <path d="M0,2 C0,2.55228475 0.44771525,3 1,3 C1.55228475,3 2,2.55228475 2,2 C2,1.44771525 1.55228475,1 1,1 C0.44771525,1 0,1.44771525 0,2 Z" id="路径" fill="#F7E2FF" fill-rule="nonzero"></path>
        <path d="M22.902587,3.75713925 L21.1027654,2.09021986 C20.9728814,1.96992671 20.7687779,1.96992671 20.6388938,2.09021986 L18.8390723,3.75713925 C18.7091882,3.8774324 18.7091882,4.06646449 18.8390723,4.18675764 L20.6388938,5.85367703 C20.7687779,5.97397018 20.9728814,5.97397018 21.1027654,5.85367703 L22.902587,4.18675764 C23.032471,4.06646449 23.032471,3.8774324 22.902587,3.75713925 L22.902587,3.75713925 Z M20.8615522,5.2178418 L19.5256021,3.98054081 L20.8615522,2.74323983 L22.1975022,3.98054081 L20.8615522,5.2178418 Z M2.04103479,19.2193581 C0.927743087,19.2193581 0,20.0614102 0,21.109679 C0,22.1407632 0.909188225,23 2.04103479,23 C3.17288136,23 4.08206958,22.1579479 4.08206958,21.109679 C4.06351472,20.0614102 3.15432649,19.2193581 2.04103479,19.2193581 L2.04103479,19.2193581 Z M2.04103479,22.2095021 C1.39161463,22.2095021 0.85352364,21.7111448 0.85352364,21.109679 C0.85352364,20.5082133 1.39161463,20.009856 2.04103479,20.009856 C2.69045495,20.009856 3.22854594,20.5082133 3.22854594,21.109679 C3.22854594,21.7111448 2.69045495,22.2095021 2.04103479,22.2095021 Z" id="形状" fill="#EAB3FF" fill-rule="nonzero"></path>
        <polygon id="路径" fill="#F7E2FF" fill-rule="nonzero" points="6 20 8 20 8 22 6 22"></polygon>
        <path d="M21,20 C21,20.5522847 21.4477153,21 22,21 C22.5522847,21 23,20.5522847 23,20 C23,19.4477153 22.5522847,19 22,19 C21.4477153,19 21,19.4477153 21,20 L21,20 Z" id="路径" fill="#F7E2FF" fill-rule="nonzero"></path>
    </g>
</svg>