
<svg width="24" height="24" viewBox="0 0 24 24" version="1.1"
    xmlns="http://www.w3.org/2000/svg" stroke="none" stroke-width="1" fill="currentColor" stroke-linecap="round" stroke-linejoin="round">
    <path d="M19.4189944,2 L4.58100559,2 C3.1578324,2 2,3.18536522 2,4.64238092 L2,14.708594 C2,16.1656097 3.1578324,17.3509749 4.58100559,17.3509749 L6.29050279,17.3509749 L6.29050279,20.2793278 C6.29046577,20.6772883 6.60554002,21 6.99425698,21 C7.18023725,21 7.35867436,20.9247225 7.49059218,20.7905084 L10.8712849,17.3509749 L19.4189944,17.3509749 C20.8421676,17.3509749 22,16.1656097 22,14.708594 L22,4.64238092 C22,3.18536522 20.8421676,2 19.4189944,2 Z M20.5921788,14.708594 C20.5921788,15.3708593 20.0658771,15.9096762 19.4189944,15.9096762 L10.5810056,15.9096762 C10.3950832,15.9096782 10.2167112,15.9849804 10.0848268,16.1191449 L7.69832402,18.5471842 L7.69832402,16.6303255 C7.69832402,16.2323441 7.38317318,15.9096762 6.99441341,15.9096762 L4.58100559,15.9096762 C3.93410056,15.9096762 3.40782123,15.3708593 3.40782123,14.708594 L3.40782123,4.64238092 C3.40782123,3.98009274 3.93410056,3.44129868 4.58100559,3.44129868 L19.4189944,3.44129868 C20.0658771,3.44129868 20.5921788,3.98009274 20.5921788,4.64238092 L20.5921788,14.708594 Z"></path>
    <path d="M17.260274,6 L6.73972603,6 C6.33118591,6 6,6.30947022 6,6.69122257 C6,7.07297492 6.33118591,7.38244514 6.73972603,7.38244514 L17.260274,7.38244514 C17.6687906,7.38244514 18,7.07297492 18,6.69122257 C18,6.30947022 17.6687906,6 17.260274,6 Z M17.260274,8.80877743 L6.73972603,8.80877743 C6.33118591,8.80877743 6,9.11824765 6,9.5 C6,9.88175235 6.33118591,10.1912226 6.73972603,10.1912226 L17.260274,10.1912226 C17.6687906,10.1912226 18,9.88175235 18,9.5 C18,9.11824765 17.6687906,8.80877743 17.260274,8.80877743 Z M12.7514677,11.6175549 L6.73972603,11.6175549 C6.33118591,11.6175549 6,11.9270251 6,12.3087774 C6,12.6905298 6.33118591,13 6.73972603,13 L12.7514677,13 C13.1600078,13 13.4911937,12.6905298 13.4911937,12.3087774 C13.4911937,11.9270251 13.1600078,11.6175549 12.7514677,11.6175549 Z"></path>
</svg>