<?xml version="1.0" standalone="no"?><!DOCTYPE svg PUBLIC "-//W3C//DTD SVG 1.1//EN" "http://www.w3.org/Graphics/SVG/1.1/DTD/svg11.dtd"><svg t="1638778596186" class="icon" viewBox="0 0 1024 1024" version="1.1" xmlns="http://www.w3.org/2000/svg" p-id="3195" xmlns:xlink="http://www.w3.org/1999/xlink" width="200" height="200"><defs><style type="text/css">@font-face { font-weight: 400; font-style: normal; font-family: Circular-Loom; src: url("https://cdn.loom.com/assets/fonts/circular/CircularXXWeb-Book-cd7d2bcec649b1243839a15d5eb8f0a3.woff2") format("woff2"); }
@font-face { font-weight: 500; font-style: normal; font-family: Circular-Loom; src: url("https://cdn.loom.com/assets/fonts/circular/CircularXXWeb-Medium-d74eac43c78bd5852478998ce63dceb3.woff2") format("woff2"); }
@font-face { font-weight: 700; font-style: normal; font-family: Circular-Loom; src: url("https://cdn.loom.com/assets/fonts/circular/CircularXXWeb-Bold-83b8ceaf77f49c7cffa44107561909e4.woff2") format("woff2"); }
@font-face { font-weight: 900; font-style: normal; font-family: Circular-Loom; src: url("https://cdn.loom.com/assets/fonts/circular/CircularXXWeb-Black-bf067ecb8aa777ceb6df7d72226febca.woff2") format("woff2"); }
</style></defs><path d="M843.5 97h-664C115.813 97 64 148.813 64 212.5v440C64 716.187 115.813 768 179.5 768H256v128a31.498 31.498 0 0 0 31.493 31.501 31.501 31.501 0 0 0 22.211-9.157L460.99 768H843.5c63.687 0 115.5-51.813 115.5-115.5v-440C959 148.813 907.187 97 843.5 97zM896 652.5c0 28.948-23.552 52.5-52.5 52.5H448a31.502 31.502 0 0 0-22.204 9.156L319 820.287V736.5c0-17.396-14.103-31.5-31.5-31.5h-108c-28.949 0-52.5-23.552-52.5-52.5v-440c0-28.949 23.551-52.5 52.5-52.5h664c28.948 0 52.5 23.551 52.5 52.5v440z" p-id="3196"></path><path d="M736 257H288c-17.397 0-31.5 14.103-31.5 31.5S270.603 320 288 320h448c17.396 0 31.5-14.103 31.5-31.5S753.396 257 736 257zM736 385H288c-17.397 0-31.5 14.103-31.5 31.5S270.603 448 288 448h448c17.396 0 31.5-14.103 31.5-31.5S753.396 385 736 385zM544 513H288c-17.397 0-31.5 14.103-31.5 31.5S270.603 576 288 576h256c17.397 0 31.5-14.103 31.5-31.5S561.397 513 544 513z" p-id="3197"></path></svg>