<svg width="24" height="24" viewBox="0 0 24 24" version="1.1"
    xmlns="http://www.w3.org/2000/svg" stroke="none" stroke-width="1" fill="currentColor" stroke-linecap="round" stroke-linejoin="round">
    <path d="M12.4997579,17.9995994 C12.3868895,18.0034578 12.2747861,17.9793951 12.1730662,17.9294758 L5.53343838,15.0938297 C5.21111885,14.9601715 5.00029449,14.6413825 5,14.2872189 L5,2.87792196 C4.99921303,2.58438549 5.14083493,2.3093629 5.378474,2.14295097 C5.61873349,1.98140253 5.92315482,1.9549942 6.18682186,2.07282739 L9.83332751,3.63070813 C10.2507938,3.82663333 10.4418868,4.32289875 10.2663465,4.75525141 C10.0908061,5.18760408 9.61120802,5.40192153 9.17957152,5.24089728 L6.72100197,4.19055968 L6.72100197,13.6947694 L11.6403761,15.7950655 L11.6403761,5.71243101 C11.6412098,5.35891276 11.851767,5.04090422 12.1734387,4.90733644 L18.8130665,2.07169025 C19.0781028,1.96265833 19.3783413,1.9887038 19.6214144,2.14181383 C19.8620891,2.30546835 20.0046313,2.58227805 20,2.87678482 L20,14.2872189 C19.9990514,14.6407372 19.7884943,14.9587457 19.4668225,15.0923135 L15.8374523,16.6327581 C15.4058158,16.7937823 14.9262177,16.5794649 14.7506774,16.1471122 C14.5751371,15.7147595 14.7662301,15.2184941 15.1836964,15.0225689 L18.2800039,13.6924951 L18.2800039,4.18980158 L13.3598848,6.28933965 L13.3598848,17.106187 C13.360675,17.3997235 13.2190531,17.6747461 12.9814141,17.841158 C12.8417947,17.9453236 12.6728806,18.0008881 12.4997579,17.9995994 Z"></path>
    <path d="M12.0000182,21.999773 C11.8994386,21.999467 11.7995934,21.9820593 11.7044854,21.9482476 L1.52546893,17.872437 C1.20556997,17.7408814 0.996827929,17.4196855 1,17.0639429 L1,6.84827477 C1,6.37978555 1.36759516,6 1.82100178,6 C2.2744084,6 2.64196708,6.37978555 2.64196708,6.84827477 L2.64196708,16.4619292 L12.0000182,20.2126752 L21.3580694,16.4619292 L21.3580694,7.53591153 C21.3580694,7.06742231 21.7256281,6.68763676 22.1790347,6.68763676 C22.6324413,6.68763676 23,7.06742231 23,7.53591153 L23,17.063564 C22.9984607,17.4178189 22.7913369,17.7365246 22.4745675,17.8720581 L12.2955511,21.9478687 C12.2011789,21.9846151 12.1008407,22.0022375 12.0000182,21.999773 L12.0000182,21.999773 Z"></path>
</svg>