<?xml version="1.0" standalone="no"?><!DOCTYPE svg PUBLIC "-//W3C//DTD SVG 1.1//EN" "http://www.w3.org/Graphics/SVG/1.1/DTD/svg11.dtd"><svg t="1638425729746" class="icon" viewBox="0 0 1024 1024" version="1.1" xmlns="http://www.w3.org/2000/svg" p-id="3563" xmlns:xlink="http://www.w3.org/1999/xlink" width="200" height="200"><defs><style type="text/css">@font-face { font-weight: 400; font-style: normal; font-family: Circular-Loom; src: url("https://cdn.loom.com/assets/fonts/circular/CircularXXWeb-Book-cd7d2bcec649b1243839a15d5eb8f0a3.woff2") format("woff2"); }
@font-face { font-weight: 500; font-style: normal; font-family: Circular-Loom; src: url("https://cdn.loom.com/assets/fonts/circular/CircularXXWeb-Medium-d74eac43c78bd5852478998ce63dceb3.woff2") format("woff2"); }
@font-face { font-weight: 700; font-style: normal; font-family: Circular-Loom; src: url("https://cdn.loom.com/assets/fonts/circular/CircularXXWeb-Bold-83b8ceaf77f49c7cffa44107561909e4.woff2") format("woff2"); }
@font-face { font-weight: 900; font-style: normal; font-family: Circular-Loom; src: url("https://cdn.loom.com/assets/fonts/circular/CircularXXWeb-Black-bf067ecb8aa777ceb6df7d72226febca.woff2") format("woff2"); }
</style></defs><path d="M512 755.44a29.984 29.984 0 0 1-14.032-2.96l-285.184-119.696a36.8 36.8 0 0 1-22.912-34.048v-481.6a37.536 37.536 0 0 1 16.256-31.024 36.416 36.416 0 0 1 34.72-2.96l156.624 65.76a36.8 36.8 0 0 1-28.08 67.968l-105.6-44.336v401.184l211.296 88.656v-425.6a36.8 36.8 0 0 1 22.896-33.984l285.184-119.696a38.528 38.528 0 0 1 34.72 2.96 36.592 36.592 0 0 1 16.256 31.024v481.648a36.8 36.8 0 0 1-22.896 33.984l-155.888 65.024a36.8 36.8 0 0 1-28.08-67.968l132.992-56.144v-401.12l-211.328 88.624v456.592a37.536 37.536 0 0 1-16.256 31.024 34.56 34.56 0 0 1-20.688 6.688z" p-id="3564"></path><path d="M512 944a40 40 0 0 1-12.896-2.176L54.928 769.696A36.384 36.384 0 0 1 32 735.552V304.128a35.824 35.824 0 1 1 71.648 0v406L512 868.528l408.352-158.4v-376.96a35.824 35.824 0 1 1 71.648 0v402.368a37.136 37.136 0 0 1-22.928 34.144L524.896 941.808A34.272 34.272 0 0 1 512 944z" p-id="3565"></path></svg>