<?xml version="1.0" encoding="UTF-8"?>
<svg width="24" height="24" viewBox="0 0 24 24" version="1.1" xmlns="http://www.w3.org/2000/svg" xmlns:xlink="http://www.w3.org/1999/xlink">
    <title>create</title>
    <g id="create" stroke="none" stroke-width="1" fill="none" fill-rule="evenodd">
        <path d="M14.7717751,4 L16.3770673,6.43526171 L13.9779493,6.43526171 L12.3726571,4 L10.7673649,4 L12.3726571,6.43526171 L9.97353914,6.43526171 L8.36824697,4 L6.7629548,4 L8.36824697,6.43526171 L5.98676957,6.43526171 L4.3814774,4 L3.5876516,4 C2.70562293,4 2,4.73415978 2,5.62947658 L2,15.3705234 C2,16.2658402 2.72326351,17 3.60529217,17 L16.3947078,17 C17.2767365,17 18,16.2658402 18,15.3705234 L18,4 L14.7717751,4 Z M13.6074972,10.5358127 L11.9140022,12.2190083 L12.3197354,14.5826446 C12.337376,14.707989 12.1962514,14.815427 12.0904079,14.761708 L9.97353914,13.6336088 L7.87431092,14.7438017 C7.7508269,14.815427 7.60970232,14.707989 7.64498346,14.5647383 L8.05071665,12.2011019 L6.35722161,10.5179063 C6.26901874,10.4283747 6.32194046,10.2672176 6.44542448,10.231405 L8.79162073,9.89118457 L9.83241455,7.74242424 C9.88533627,7.61707989 10.061742,7.61707989 10.1146637,7.74242424 L11.1554576,9.89118457 L13.5016538,10.231405 C13.6427784,10.285124 13.6957001,10.446281 13.6074972,10.5358127 L13.6074972,10.5358127 Z" id="形状" fill="#DCCBFF" fill-rule="nonzero"></path>
        <path d="M18.7894157,7 L20.3947078,9.43526171 L17.9955899,9.43526171 L16.3902977,7 L14.7850055,7 L16.3902977,9.43526171 L13.9911797,9.43526171 L12.3858875,7 L10.7805954,7 L12.3858875,9.43526171 L9.98676957,9.43526171 L8.3814774,7 L7.5876516,7 C6.70562293,7 6,7.73415978 6,8.62947658 L6,18.3705234 C6,19.2658402 6.72326351,20 7.60529217,20 L20.3947078,20 C21.2767365,20 22,19.2658402 22,18.3705234 L22,7 L18.7894157,7 Z M17.6074972,13.5179063 L15.9140022,15.2011019 L16.3197354,17.5647383 C16.337376,17.6900826 16.1962514,17.7975207 16.0904079,17.7438017 L13.9911797,16.6336088 L11.8919515,17.7438017 C11.7684675,17.815427 11.6273429,17.707989 11.662624,17.5647383 L12.0683572,15.2011019 L10.3748622,13.5179063 C10.2866593,13.4283747 10.339581,13.2672176 10.463065,13.231405 L12.8092613,12.8911846 L13.8500551,10.7424242 C13.9029768,10.6170799 14.0793826,10.6170799 14.1323043,10.7424242 L15.1730981,12.8911846 L17.5192944,13.231405 C17.660419,13.2672176 17.7133407,13.4283747 17.6074972,13.5179063 L17.6074972,13.5179063 Z" id="形状" fill="#A87DFF" fill-rule="nonzero"></path>
        <path d="M21,22 C21,22.3572656 21.1905989,22.6873926 21.5,22.8660254 C21.8094011,23.0446582 22.1905989,23.0446582 22.5,22.8660254 C22.8094011,22.6873926 23,22.3572656 23,22 C23,21.6427344 22.8094011,21.3126074 22.5,21.1339746 C22.1905989,20.9553418 21.8094011,20.9553418 21.5,21.1339746 C21.1905989,21.3126074 21,21.6427344 21,22 Z" id="路径" fill="#F7E2FF" fill-rule="nonzero"></path>
        <path d="M23.5745721,1.38989514 L22.5464548,1.38989514 L22.5464548,0.394661582 C22.5464548,0.171591992 22.3691932,0 22.1387531,0 C21.908313,0 21.7310513,0.171591992 21.7310513,0.394661582 L21.7310513,1.38989514 L20.7206601,1.38989514 C20.49022,1.38989514 20.3129584,1.56148713 20.3129584,1.78455672 C20.3129584,2.00762631 20.49022,2.1792183 20.7206601,2.1792183 L21.7487775,2.1792183 L21.7487775,3.17445186 C21.7487775,3.39752145 21.9260391,3.56911344 22.1564792,3.56911344 C22.3869193,3.56911344 22.5641809,3.39752145 22.5641809,3.17445186 L22.5641809,2.1792183 L23.5922983,2.1792183 C23.8227384,2.1792183 24,2.00762631 24,1.78455672 C23.9645477,1.56148713 23.7872861,1.38989514 23.5745721,1.38989514 L23.5745721,1.38989514 Z" id="路径" fill="#EAB3FF" fill-rule="nonzero"></path>
        <path d="M2.37530562,20.6663489 C3.08435208,20.6663489 3.43887531,21.2154433 3.70476773,21.6272641 C3.97066015,22.0390848 4.09474328,22.2106768 4.34290954,22.2106768 C4.57334963,22.2106768 4.71515892,22.0390848 4.98105134,21.6272641 C5.2292176,21.2154433 5.58374083,20.6663489 6.31051345,20.6663489 C7.0195599,20.6663489 7.37408313,21.2154433 7.63997555,21.6272641 C7.90586797,22.0390848 8.0299511,22.2106768 8.27811736,22.2106768 C8.50855746,22.2106768 8.68581907,22.3822688 8.68581907,22.6053384 C8.68581907,22.828408 8.50855746,23 8.27811736,23 C7.5690709,23 7.21454768,22.4509056 6.94865526,22.0390848 C6.68276284,21.6272641 6.55867971,21.4556721 6.31051345,21.4556721 C6.08007335,21.4556721 5.93826406,21.6272641 5.67237164,22.0390848 C5.42420538,22.4509056 5.06968215,23 4.34290954,23 C3.63386308,23 3.27933985,22.4509056 3.01344743,22.0390848 C2.74755501,21.6272641 2.62347188,21.4556721 2.37530562,21.4556721 C2.12713936,21.4556721 2.00305623,21.6444233 1.73716381,22.0390848 C1.48899756,22.4509056 1.13447433,23 0.407701711,23 C0.177261614,23 0,22.828408 0,22.6053384 C0,22.3822688 0.177261614,22.2106768 0.407701711,22.2106768 C0.655867971,22.2106768 0.7799511,22.0390848 1.04584352,21.6272641 C1.29400978,21.2326025 1.64853301,20.6663489 2.37530562,20.6663489 L2.37530562,20.6663489 Z" id="路径" fill="#EAB3FF" fill-rule="nonzero"></path>
        <path d="M6.6160434,1 L2.39528707,1 C2.24086916,1 2.10360879,1.10650888 2.03497861,1.24852071 C1.96634842,1.39053254 2.00066352,1.56804734 2.12076634,1.69230769 L4.2311445,3.87573964 C4.29977469,3.94674556 4.40271996,4 4.50566524,4 C4.60861051,4 4.71155579,3.96449704 4.78018597,3.87573964 L6.89056414,1.69230769 C6.99350941,1.58579882 7.02782451,1.40828402 6.97635187,1.24852071 C6.90772168,1.10650888 6.77046131,1 6.6160434,1 L6.6160434,1 Z M4.50566524,3.02366864 L3.33895211,1.81656805 L5.67237837,1.81656805 L4.50566524,3.02366864 Z" id="形状" fill="#EAB3FF" fill-rule="nonzero"></path>
    </g>
</svg>