<?xml version="1.0" encoding="UTF-8"?>
<svg width="24px" height="24px" viewBox="0 0 24 24" version="1.1" xmlns="http://www.w3.org/2000/svg" xmlns:xlink="http://www.w3.org/1999/xlink">
    <title>curriculum</title>
    <g id="curriculum" stroke="none" stroke-width="1" fill="none" fill-rule="evenodd">
        <g id="编组" transform="translate(3.000000, 4.000000)" fill-rule="nonzero">
            <polygon id="路径" fill="#FFCB99" points="12.8181818 8 9.9144385 8 9.9144385 8.77205882 12.4652406 8.77205882 9 12.4607843 11.3743316 15 15 11.1053922 15 10.7107843 12.8181818 10.7107843"></polygon>
            <path d="M2.96273292,7.5 L3.39130435,7.5 L3.39130435,5 C3.39130435,4.59558824 3.54037267,4.22794118 3.7826087,3.93382353 L4.95652174,2.53676471 C5.18012422,2.26102941 5.53416149,2.07720588 5.92546584,2.07720588 L15,2.07720588 C14.9440994,2.00367647 14.9068323,1.91176471 14.8322981,1.85661765 L13.6583851,0.459558824 C13.4161491,0.183823529 13.0621118,0 12.6708075,0 L2.53416149,0 C2.14285714,0 1.78881988,0.183823529 1.56521739,0.459558824 L0.391304348,1.85661765 C0.149068323,2.15073529 0,2.51838235 0,2.92279412 L0,13.3272059 C0,14.2463235 0.763975155,15 1.69565217,15 L3.39130435,15 L3.39130435,7.92279412 L2.96273292,7.5 L2.96273292,7.5 Z M2.49689441,0.827205882 L12.6335404,0.827205882 L13.4161491,1.65441176 L1.80745342,1.65441176 L2.49689441,0.827205882 Z" id="形状" fill="#FFCB99"></path>
            <polygon id="路径" fill="#FFCB99" points="5 4 15 4 15 3 5.68773234 3"></polygon>
            <path d="M17.5960832,3.85434517 L16.4394125,2.45899633 C16.2007344,2.18359853 15.8518972,2 15.4663403,2 L5.49694002,2 C5.11138311,2 4.7625459,2.18359853 4.54222766,2.45899633 L3.38555692,3.85434517 C3.14687882,4.14810282 3,4.51529988 3,4.91921665 L3,15.3292534 C3,16.247246 3.75275398,17 4.67074663,17 L16.3292534,17 C17.247246,17 18,16.247246 18,15.3292534 L18,4.91921665 C17.9816401,4.51529988 17.8347613,4.14810282 17.5960832,3.85434517 L17.5960832,3.85434517 Z M14.6401469,9.9130967 L10.4724602,14.0807834 L7.77356181,11.3818849 L5.90085679,9.50917993 L8.82007344,9.50917993 L8.82007344,6.58996328 L12.1432069,6.58996328 L12.1432069,9.50917993 L15.0624235,9.50917993 L14.6401469,9.9130967 Z M14.6401469,3.67074663 L4.7625459,3.67074663 L5.44186047,2.84455324 L15.4296206,2.84455324 L16.2007344,3.67074663 L14.6401469,3.67074663 L14.6401469,3.67074663 Z" id="形状" fill="#FF7E00"></path>
        </g>
        <path d="M5.41788205,24.0729233 C4.80913126,24.0729233 4.50475587,23.5859226 4.27647432,23.2206722 C4.04819277,22.8554217 3.94166138,22.703234 3.7285986,22.703234 C3.5307546,22.703234 3.40900444,22.8554217 3.18072289,23.2206722 C2.96766011,23.5859226 2.66328472,24.0729233 2.03931516,24.0729233 C1.43056436,24.0729233 1.12618897,23.5859226 0.897907419,23.2206722 C0.669625872,22.8554217 0.563094483,22.703234 0.350031706,22.703234 C0.152187698,22.703234 6.97220059e-14,22.5510463 6.97220059e-14,22.3532023 C6.97220059e-14,22.1553583 0.152187698,22.0031706 0.350031706,22.0031706 C0.958782498,22.0031706 1.26315789,22.4901712 1.49143944,22.8554217 C1.71972099,23.2206722 1.82625238,23.3728599 2.03931516,23.3728599 C2.23715916,23.3728599 2.35890932,23.2206722 2.58719087,22.8554217 C2.80025365,22.4901712 3.10462904,22.0031706 3.7285986,22.0031706 C4.3373494,22.0031706 4.64172479,22.4901712 4.87000634,22.8554217 C5.09828789,23.2206722 5.20481928,23.3728599 5.41788205,23.3728599 C5.63094483,23.3728599 5.73747622,23.2054534 5.96575777,22.8554217 C6.17882055,22.4901712 6.48319594,22.0031706 7.1071655,22.0031706 C7.30500951,22.0031706 7.45719721,22.1553583 7.45719721,22.3532023 C7.45719721,22.5510463 7.30500951,22.703234 7.1071655,22.703234 C6.89410273,22.703234 6.78757134,22.8554217 6.55928979,23.2206722 C6.34622701,23.5707039 6.04185162,24.0729233 5.41788205,24.0729233 Z" id="路径" fill="#FFC879" fill-rule="nonzero"></path>
        <path d="M22.1585289,1.55611921 L20.6823082,0.0798985415 C20.5757768,-0.0266328472 20.4083703,-0.0266328472 20.3018389,0.0798985415 L18.8256183,1.55611921 C18.7190869,1.6626506 18.7190869,1.83005707 18.8256183,1.93658846 L20.3018389,3.41280913 C20.4083703,3.51934052 20.5757768,3.51934052 20.6823082,3.41280913 L22.1585289,1.93658846 C22.2650602,1.83005707 22.2650602,1.6626506 22.1585289,1.55611921 L22.1585289,1.55611921 Z M20.4844642,2.83449588 L19.3887127,1.73874445 L20.4844642,0.642993025 L21.5802156,1.73874445 L20.4844642,2.83449588 Z M2.51109702,1.31071655 C1.59797083,1.31071655 0.83703234,2.05643627 0.83703234,2.98478123 C0.83703234,3.91312619 1.58275206,4.65884591 2.51109702,4.65884591 C3.43944198,4.65884591 4.1851617,3.91312619 4.1851617,2.98478123 C4.1851617,2.05643627 3.42422321,1.31071655 2.51109702,1.31071655 L2.51109702,1.31071655 Z M2.51109702,3.94356373 C1.97844008,3.94356373 1.53709575,3.5022194 1.53709575,2.96956246 C1.53709575,2.43690552 1.97844008,1.99556119 2.51109702,1.99556119 C3.04375396,1.99556119 3.48509829,2.43690552 3.48509829,2.96956246 C3.48509829,3.5022194 3.04375396,3.94356373 2.51109702,3.94356373 Z" id="形状" fill="#FFC879" fill-rule="nonzero"></path>
        <polygon id="路径" fill="#FFF7EC" fill-rule="nonzero" points="21.2022828 20.9004439 23.1502854 20.9004439 23.1502854 22.8484464 21.2022828 22.8484464"></polygon>
        <polygon id="路径" fill="#FFF7EC" fill-rule="nonzero" points="18.7368421 5.19784401 19.7717185 4.14774889 17.7019658 4.14774889"></polygon>
        <path d="M22.0519975,19.0380469 C22.0519975,19.575973 22.4880727,20.0120482 23.0259987,20.0120482 C23.5639248,20.0120482 24,19.575973 24,19.0380469 C24,18.5001209 23.5639248,18.0640457 23.0259987,18.0640457 C22.4880727,18.0640457 22.0519975,18.5001209 22.0519975,19.0380469 L22.0519975,19.0380469 Z" id="路径" fill="#FFF7EC" fill-rule="nonzero"></path>
    </g>
</svg>