<svg t="1639466139951" viewBox="0 0 1024 1024" version="1.1" xmlns="http://www.w3.org/2000/svg" p-id="19541" width="200" height="200"><path d="M732.16 439.296V346.112c0-25.6-20.992-46.592-46.592-46.592H314.368c-25.6 0-46.08 20.992-46.08 46.592v92.672c25.6 0 46.08 20.992 46.08 46.592s-20.992 46.592-46.08 46.592V624.64c0 25.6 20.992 46.592 46.592 46.592H686.08c25.6 0 46.592-20.992 46.592-46.592v-92.672c-25.6 0-46.592-20.992-46.592-46.592-0.512-25.6 20.48-46.08 46.08-46.08z m-208.896 174.08h-46.592v-46.592h46.592v46.592z m0-104.448h-46.592v-46.592h46.592v46.592z m0-104.448h-46.592v-46.592h46.592V404.48z" fill="#FFCB99" p-id="19542"></path><path d="M824.832 497.152V404.48c0-25.6-20.992-46.592-46.592-46.592H407.04c-25.6 0-46.08 20.992-46.08 46.592v92.672c25.6 0 46.08 20.992 46.08 46.592s-20.992 46.592-46.08 46.592v92.672c0 25.6 20.992 46.592 46.592 46.592h371.2c25.6 0 46.592-20.992 46.592-46.592v-92.672c-25.6 0-46.592-20.992-46.592-46.592s20.48-46.592 46.08-46.592z m-208.896 174.08h-46.592V624.64h46.592v46.592z m0-104.448h-46.592v-46.592h46.592v46.592z m0-104.448h-46.592v-46.592h46.592v46.592z" fill="#FF7E00" p-id="19543"></path><path d="M211.456 283.136h-29.696v-29.696c0-6.656-5.12-11.776-11.776-11.776-6.656 0-11.776 5.12-11.776 11.776v29.696h-29.696c-6.656 0-11.776 5.12-11.776 11.776s5.12 11.776 11.776 11.776H158.72v29.696c0 6.656 5.12 11.776 11.776 11.776 6.656 0 11.776-5.12 11.776-11.776v-29.696h29.696c6.656 0 11.776-5.12 11.776-11.776s-6.144-11.776-12.288-11.776z" fill="#FFC879" p-id="19544"></path><path d="M174.98624 735.8976l46.336-46.336 46.34112 46.336-46.336 46.34624zM870.4 363.52l34.816-34.816h-69.632z" fill="#FFF7EC" p-id="19545"></path><path d="M870.4 531.968m-32.768 0a32.768 32.768 0 1 0 65.536 0 32.768 32.768 0 1 0-65.536 0Z" fill="#FFF7EC" p-id="19546"></path><path d="M206.336 583.68l-49.664-49.664c-3.584-3.584-9.216-3.584-12.8 0l-49.664 49.664c-3.584 3.584-3.584 9.216 0 12.8l49.664 49.664c3.584 3.584 9.216 3.584 12.8 0l49.664-49.664c3.584-3.584 3.584-9.216 0-12.8z m-56.832 43.008l-36.864-36.864 36.864-36.864 36.864 36.864-36.864 36.864zM926.72 573.952c-30.72 0-56.32 25.088-56.32 56.32 0 30.72 25.088 56.32 56.32 56.32s56.32-25.088 56.32-56.32c-0.512-31.232-25.6-56.32-56.32-56.32z m0 89.088c-17.92 0-32.768-14.848-32.768-32.768s14.848-32.768 32.768-32.768c17.92 0 32.768 14.848 32.768 32.768s-14.848 32.768-32.768 32.768z" fill="#FFC879" p-id="19547"></path></svg>