<svg width="24" height="24" viewBox="0 0 24 24" version="1.1"
    xmlns="http://www.w3.org/2000/svg" stroke="none" stroke-width="1" fill="currentColor" stroke-linecap="round" stroke-linejoin="round">
    <path d="M11.1504514,15.6583857 C11.3931795,15.8853698 11.7572718,15.9988619 12,15.9988619 C12.3640923,15.9988619 12.6068205,15.8853698 12.8495486,15.6583857 L17.1359077,11.6976191 C17.6213641,11.2436508 17.5028647,10.5838657 17.1359077,10.2485096 C16.6504514,9.79454134 16.0706463,10.023701 15.7269813,10.3525486 L13,13 L13,4 C13,3.47500384 12.5928497,3 12,3 C11.4071503,3 11,3.48091356 11,4 L11,13 C9.3810717,11.455777 8.45357961,10.5732932 8.21752373,10.3525486 C7.86343992,10.0214317 7.33851554,9.79454134 6.86409227,10.2485096 C6.37863591,10.7024778 6.37863591,11.2539683 6.86409227,11.6976191 L11.1504514,15.6583857 Z"></path>
    <path d="M18.7649123,19 L5.23508772,19 C4.4940351,19 4,19.4 4,20 C4,20.6 4.49403508,21 5.23508772,21 L18.7649123,21 C19.5059649,21 20,20.6 20,20 C19.9887719,19.4 19.5059649,19 18.7649123,19 Z"></path>
</svg>