<svg width="24" height="24" viewBox="0 0 24 24" version="1.1"
    xmlns="http://www.w3.org/2000/svg" stroke="none" stroke-width="1" fill="currentColor" stroke-linecap="round" stroke-linejoin="round">
    <path d="M13.0410242,9 L13.0410242,16.8363816 L15.5440912,14.0601703 L17,15.4573576 L12.0006213,21 L7,15.4573576 L8.4556829,14.0601703 L10.9588629,16.835194 L10.9588629,9 L13.0410242,9 Z M12.0000352,2 C15.9764919,2 19.20015,5.2617691 19.20015,9.28555843 C21.8507305,9.28555843 24,11.4601502 24,14.1427792 C24,16.7985819 21.893501,18.9564574 19.2795154,18.9993493 L19.20015,19 L16.8001195,19 L16.8001195,17.0570975 L19.20015,17.0570975 C20.7882952,17.0570975 22.0799756,15.7498284 22.0799756,14.1427792 C22.0799756,12.551777 20.8139996,11.2546126 19.2477044,11.2288284 L19.20015,11.2284373 L17.2801256,11.2284373 L17.2801256,9.28555843 C17.2801256,6.3394597 14.9115018,3.94264166 12.0000352,3.94264166 C9.11770638,3.94264166 6.76750974,6.29176302 6.72079404,9.1973421 L6.72008531,9.28555843 L6.72008531,11.2284373 L4.80006094,11.2284373 C3.21203297,11.2284373 1.92002438,12.5357063 1.92002438,14.1427792 C1.92002438,15.7337579 3.18632199,17.0309221 4.7525099,17.0567063 L4.80006094,17.0570975 L7.20009141,17.0570975 L7.20009141,19 L4.80006094,19 C2.14912885,19 0,16.8254082 0,14.1427792 C0,11.4601502 2.14912885,9.28555843 4.80006094,9.28555843 C4.80006094,5.2617691 8.02357842,2 12.0000352,2 Z"></path>
</svg>