<?xml version="1.0" standalone="no"?><!DOCTYPE svg PUBLIC "-//W3C//DTD SVG 1.1//EN" "http://www.w3.org/Graphics/SVG/1.1/DTD/svg11.dtd"><svg t="1638415814669" class="icon" viewBox="0 0 1024 1024" version="1.1" xmlns="http://www.w3.org/2000/svg" p-id="2643" xmlns:xlink="http://www.w3.org/1999/xlink" width="200" height="200"><defs><style type="text/css">@font-face { font-weight: 400; font-style: normal; font-family: Circular-Loom; src: url("https://cdn.loom.com/assets/fonts/circular/CircularXXWeb-Book-cd7d2bcec649b1243839a15d5eb8f0a3.woff2") format("woff2"); }
@font-face { font-weight: 500; font-style: normal; font-family: Circular-Loom; src: url("https://cdn.loom.com/assets/fonts/circular/CircularXXWeb-Medium-d74eac43c78bd5852478998ce63dceb3.woff2") format("woff2"); }
@font-face { font-weight: 700; font-style: normal; font-family: Circular-Loom; src: url("https://cdn.loom.com/assets/fonts/circular/CircularXXWeb-Bold-83b8ceaf77f49c7cffa44107561909e4.woff2") format("woff2"); }
@font-face { font-weight: 900; font-style: normal; font-family: Circular-Loom; src: url("https://cdn.loom.com/assets/fonts/circular/CircularXXWeb-Black-bf067ecb8aa777ceb6df7d72226febca.woff2") format("woff2"); }
</style></defs><path d="M452.703116 739.254556 452.703116 739.254556c13.243974 13.243974 33.109935 19.865961 46.353909 19.865961 19.865961 0 33.109935-6.621987 46.353909-19.865961l230.56555-230.56555c26.487948-26.487948 26.487948-66.219871 0-92.10582-26.487948-26.487948-66.219871-26.487948-92.10582 0L564.674897 535.176955 564.674897 66.821869c0-33.109935-26.487948-66.219871-66.219871-66.219871-39.731922 0-66.219871 26.487948-66.219871 66.219871L432.235156 541.798942 307.621399 415.981188c-26.487948-26.487948-66.219871-26.487948-92.10582 0-26.487948 26.487948-26.487948 66.219871 0 92.10582L452.703116 739.254556z" p-id="2644"></path><path d="M874.704292 890.95826 149.295708 890.95826c-39.731922 0-66.219871 26.487948-66.219871 66.219871 0 39.731922 26.487948 66.219871 66.219871 66.219871l725.408583 0c39.731922 0 66.219871-26.487948 66.219871-66.219871C940.322163 917.446208 914.436214 890.95826 874.704292 890.95826z" p-id="2645"></path></svg>