<svg t="1639380867343" viewBox="0 0 1024 1024" version="1.1" xmlns="http://www.w3.org/2000/svg" p-id="14639" width="200" height="200"><path d="M143.36 184.32h737.28a61.44 61.44 0 0 1 61.44 61.44v532.48a61.44 61.44 0 0 1-61.44 61.44H143.36a61.44 61.44 0 0 1-61.44-61.44V245.76a61.44 61.44 0 0 1 61.44-61.44z m40.96 81.92a20.48 20.48 0 0 0-20.48 20.48v450.56a20.48 20.48 0 0 0 20.48 20.48h655.36a20.48 20.48 0 0 0 20.48-20.48V286.72a20.48 20.48 0 0 0-20.48-20.48H184.32z" fill="#000000" p-id="14640"></path><path d="M499.712 513.82272l372.5312-237.1584 43.99104 69.12-383.50848 244.14208a61.44 61.44 0 0 1-66.00704 0L83.21024 345.78432l43.99104-69.12 372.5312 237.1584z" fill="#000000" p-id="14641"></path></svg>