<svg width="24" height="24" viewBox="0 0 24 24" version="1.1" xmlns="http://www.w3.org/2000/svg" stroke="none" stroke-width="1" fill="currentColor" stroke-linecap="round" stroke-linejoin="round">
    <path d="M11.9875142,23 C9.04086266,23 6.29398411,21.85 4.19636777,19.8 C2.14869467,17.7 1,14.95 1,12 C1,9.05 2.14869467,6.3 4.19636777,4.20000001 C6.29398411,2.15000001 9.04086266,1 11.9875142,1 C14.9341657,1 17.6810443,2.15000001 19.7786606,4.20000001 C24.0737798,8.5 24.0737798,15.45 19.7786606,19.75 C17.6810443,21.85 14.9341657,23 11.9875142,23 M11.9941138,3 C9.59254415,3 7.3322433,3.94240839 5.63701766,5.63874346 C3.94179203,7.33507853 3,9.59685864 3,12 C3,14.4031414 3.94179203,16.6649215 5.63701766,18.3612565 C7.3322433,20.0575916 9.59254415,21 11.9941138,21 C14.3956835,21 16.6559843,20.0575916 18.3512099,18.3612565 C21.88293,14.8272251 21.88293,9.12565446 18.3512099,5.59162304 C16.6559843,3.94240839 14.3956835,3 11.9941138,3 M8.30234829,14 C8.30234829,14 9.46071212,15.8636364 11.7774398,15.8636363 C14.0941674,15.8636363 15.6535034,14 15.6535034,14 C15.6535034,14 16.5,14 16.5,14.9545454 C16.5,14.9545454 14.9852165,17.1363636 11.7774398,17.1363636 C8.56966303,17.1363636 7.5004041,14.9545454 7.5004041,14.9545454 C7.5004041,14.9545454 7.45585164,14 8.30234829,14 M8.77587967,8.77272727 C8.0948354,8.77272727 7.55,9.31818182 7.55,10 C7.55,10.6818182 8.09483542,11.2272727 8.77587967,11.2272727 C9.45692394,11.2272727 10.0017594,10.6818182 10.0017594,10 C10.0017594,9.31818182 9.45692394,8.77272727 8.77587967,8.77272727 M15.2258797,8.77272727 C14.5448354,8.77272727 14,9.31818182 14,10 C14,10.6818182 14.5448354,11.2272727 15.2258797,11.2272727 C15.906924,11.2272727 16.4517594,10.6818182 16.4517594,10 C16.4517594,9.31818182 15.9069239,8.77272727 15.2258797,8.77272727"></path>
</svg>