<?xml version="1.0" standalone="no"?><!DOCTYPE svg PUBLIC "-//W3C//DTD SVG 1.1//EN" "http://www.w3.org/Graphics/SVG/1.1/DTD/svg11.dtd"><svg t="1638863109901" class="icon" viewBox="0 0 1024 1024" version="1.1" xmlns="http://www.w3.org/2000/svg" p-id="2558" xmlns:xlink="http://www.w3.org/1999/xlink" width="200" height="200"><defs><style type="text/css">@font-face { font-weight: 400; font-style: normal; font-family: Circular-Loom; src: url("https://cdn.loom.com/assets/fonts/circular/CircularXXWeb-Book-cd7d2bcec649b1243839a15d5eb8f0a3.woff2") format("woff2"); }
@font-face { font-weight: 500; font-style: normal; font-family: Circular-Loom; src: url("https://cdn.loom.com/assets/fonts/circular/CircularXXWeb-Medium-d74eac43c78bd5852478998ce63dceb3.woff2") format("woff2"); }
@font-face { font-weight: 700; font-style: normal; font-family: Circular-Loom; src: url("https://cdn.loom.com/assets/fonts/circular/CircularXXWeb-Bold-83b8ceaf77f49c7cffa44107561909e4.woff2") format("woff2"); }
@font-face { font-weight: 900; font-style: normal; font-family: Circular-Loom; src: url("https://cdn.loom.com/assets/fonts/circular/CircularXXWeb-Black-bf067ecb8aa777ceb6df7d72226febca.woff2") format("woff2"); }
</style></defs><path d="M772 959.6c-9.4 0-18.8-2.3-27.5-6.8l-68.9-36.2c-17.3-9.1-23.9-30.5-14.8-47.7 9.1-17.3 30.4-23.9 47.7-14.8l47.8 25.1L716 643.6c-3.9-22.9 3.7-46.3 20.3-62.6l171.1-166.7L671 380c-23-3.3-42.9-17.8-53.2-38.7L512 127.1 406.3 341.3C396 362.2 376.1 376.6 353 380l-236.4 34.3L287.7 581c16.7 16.2 24.3 39.6 20.3 62.6L267.6 879 479 767.8c20.6-10.8 45.2-10.8 65.8 0L619 805c17.3 9.1 23.9 30.5 14.8 47.7-9.1 17.3-30.5 23.9-47.7 14.8l-74.1-37-232.5 122.2c-20 10.5-43.8 8.8-62.1-4.5-18.3-13.3-27.3-35.4-23.4-57.6l44.4-258.9L50.3 448.3c-16.2-15.8-21.9-38.9-14.9-60.4 7-21.5 25.2-36.9 47.6-40.1L342.9 310 464.4 63.7c9-18.2 27.2-29.6 47.6-29.6 20.3 0 38.6 11.3 47.6 29.6L681.1 310l260 37.8c22.4 3.2 40.6 18.6 47.6 40.1s1.3 44.6-14.9 60.4L785.6 631.7 830 890.6c3.8 22.3-5.2 44.4-23.4 57.6-10.3 7.5-22.4 11.4-34.6 11.4z" fill="#333333" p-id="2559"></path><path d="M396.6 557.8m-38.9 0a38.9 38.9 0 1 0 77.8 0 38.9 38.9 0 1 0-77.8 0Z" fill="#FFAF00" p-id="2560"></path><path d="M523.8 557.8m-38.9 0a38.9 38.9 0 1 0 77.8 0 38.9 38.9 0 1 0-77.8 0Z" fill="#FFAF00" p-id="2561"></path><path d="M651 557.8m-38.9 0a38.9 38.9 0 1 0 77.8 0 38.9 38.9 0 1 0-77.8 0Z" fill="#FFAF00" p-id="2562"></path></svg>