<svg width="24" height="24" viewBox="0 0 24 24" version="1.1"
    xmlns="http://www.w3.org/2000/svg" stroke="none" stroke-width="1" fill="currentColor" stroke-linecap="round" stroke-linejoin="round">
    <path d="M22.8565003,11.509984 L22.8539773,11.5074609 L22.8514542,11.5049379 C21.9330662,9.56976308 20.8330189,8.00547573 19.5538356,6.81207587 L18.2746522,8.09378227 C19.3772225,9.108046 20.3309332,10.4578746 21.1534455,12.1533602 C19.0517498,16.5005652 16.0720347,18.5644153 11.9998415,18.5644153 C10.7055199,18.5644153 9.51968918,18.3550026 8.43730326,17.9311312 L7.05719814,19.3112364 C8.53317894,20.0227348 10.1782037,20.3810071 11.9998415,20.3810071 C16.8491323,20.3810071 20.4621315,17.8453477 22.8539773,12.8043056 C23.0482517,12.3955725 23.0482517,11.9212402 22.8565003,11.509984 L22.8565003,11.509984 Z M21.2417521,3.12843148 L20.1719814,2.05866078 C20.093767,1.98044641 19.9650918,1.98044641 19.8868774,2.05866078 L16.9399619,5.00305325 C15.4665041,4.28903176 13.8214794,3.9307595 11.9998415,3.9307595 C7.15055077,3.9307595 3.53755161,6.46641883 1.1457058,11.5074609 L1.1457058,11.509984 C0.951431401,11.9187171 0.951431401,12.3980955 1.1457058,12.8093517 C2.06409385,14.7445265 3.16414108,16.3088139 4.44332444,17.5047368 L1.90261903,20.0403961 C1.82440466,20.1186105 1.82440466,20.2472857 1.90261903,20.3255001 L2.97238973,21.3952708 C3.0506041,21.4734852 3.17927935,21.4734852 3.25749371,21.3952708 L21.2417521,3.41101242 C21.3199665,3.33532109 21.3199665,3.20664584 21.2417521,3.12843148 Z M9.14627865,12.7967365 C9.09834082,12.5898469 9.07311037,12.3753881 9.07311037,12.1558833 C9.07311037,10.594119 10.3371555,9.33007389 11.8989198,9.33007389 C12.1184246,9.33007389 12.3354064,9.35530433 12.539773,9.40324217 L9.14627865,12.7967365 Z M13.801295,8.14172011 C13.2235179,7.86923135 12.5801417,7.71532566 11.8989198,7.71532566 C9.4465209,7.71532566 7.45836215,9.70348441 7.45836215,12.1558833 C7.45836215,12.8371052 7.61226784,13.4804814 7.8847566,14.0582585 L5.72503085,16.2179843 C4.62246057,15.2037206 3.6687499,13.853892 2.84623752,12.1584063 C4.95045631,7.81120133 7.9301714,5.74735126 11.9998415,5.74735126 C13.2941632,5.74735126 14.4799939,5.95676392 15.5623798,6.38063533 L13.801295,8.14172011 L13.801295,8.14172011 Z"></path>
    <path d="M11.8989198,14.9816927 C11.7374449,14.9816927 11.5784932,14.9690775 11.4245875,14.941324 L10.1353119,16.2305995 C10.6752434,16.4652426 11.2732048,16.5939179 11.8989198,16.5939179 C14.3513186,16.5939179 16.3394774,14.6057591 16.3394774,12.1533602 C16.3394774,11.5276453 16.2108021,10.9296838 15.976159,10.3897524 L14.6868835,11.6790279 C14.7121139,11.8329336 14.7272522,11.9918854 14.7272522,12.1533602 C14.7247292,13.7176476 13.4606841,14.9816927 11.8989198,14.9816927 Z"></path>
</svg>