<svg width="24" height="24" viewBox="0 0 24 24" version="1.1" xmlns="http://www.w3.org/2000/svg" stroke="none" stroke-width="1" fill="currentColor" stroke-linecap="round" stroke-linejoin="round">
    <path d="M22.8542921,11.5742875 C20.4624118,6.53569585 16.8468375,4 12,4 C7.15063937,4 3.53758816,6.53569585 1.1457079,11.5768106 C0.951430701,11.9855496 0.951430701,12.4649349 1.1457079,12.876197 C3.53758816,17.9147887 7.15316245,20.4504845 12,20.4504845 C16.8493606,20.4504845 20.4624118,17.9147887 22.8542921,12.8736739 C23.0485693,12.4649349 23.0485693,11.9905958 22.8542921,11.5742875 Z M12,18.6338666 C7.93027123,18.6338666 4.95051322,16.5699868 2.8487872,12.2252423 C4.95051322,7.88049773 7.93027123,5.81661793 12,5.81661793 C16.0697288,5.81661793 19.0494868,7.88049773 21.1512128,12.2252423 C19.0520099,16.5699868 16.0722518,18.6338666 12,18.6338666 Z"></path>
    <path d="M11.8990768,7.78462068 C9.44664258,7.78462068 7.45845519,9.77280807 7.45845519,12.2252423 C7.45845519,14.6776765 9.44664258,16.6658639 11.8990768,16.6658639 C14.351511,16.6658639 16.3396984,14.6776765 16.3396984,12.2252423 C16.3396984,9.77280807 14.351511,7.78462068 11.8990768,7.78462068 Z M11.8990768,15.0510924 C10.33729,15.0510924 9.07322668,13.7870291 9.07322668,12.2252423 C9.07322668,10.6634555 10.33729,9.39939217 11.8990768,9.39939217 C13.4608636,9.39939217 14.7249269,10.6634555 14.7249269,12.2252423 C14.7249269,13.7870291 13.4608636,15.0510924 11.8990768,15.0510924 Z"></path>
</svg>