<svg t="1639477519885" viewBox="0 0 1079 1024" version="1.1" xmlns="http://www.w3.org/2000/svg" p-id="20367" width="200" height="200"><path d="M704.077 512.12H375.373c-20.932 0-37.922 17.126-37.922 38.22 0 21.129 16.99 38.221 37.922 38.221h328.704c20.94 0 37.939-17.1 37.939-38.22 0-21.095-16.998-38.222-37.94-38.222z m0 178.414H375.373c-20.932 0-37.922 17.127-37.922 38.238 0 21.095 16.99 38.221 37.922 38.221h328.704c20.94 0 37.939-17.126 37.939-38.22 0-21.112-16.998-38.239-37.94-38.239zM890.82 230.23a51.285 51.285 0 0 0 0-72.098 50.287 50.287 0 0 0-71.51 0L677.206 301.338l71.518 72.08L890.82 230.23zM375.373 410.172h126.421c20.94 0 37.94-17.127 37.94-38.238 0-21.095-17-38.23-37.94-38.23H375.373c-20.932 0-37.922 17.135-37.922 38.23 0 21.111 16.99 38.238 37.922 38.238z m339.703-2.825l15.77-15.897-71.51-72.081-15.77 15.889a51.26 51.26 0 0 0 0 72.098 50.295 50.295 0 0 0 71.51-0.009z" p-id="20368"></path><path d="M843.153 384.674v433.28c0 28.117-22.639 50.978-50.568 50.978H286.874c-27.93 0-50.569-22.86-50.569-50.978V257.246c0-28.152 22.639-50.97 50.569-50.97h379.28v-76.458H236.306c-41.907 0-75.861 34.227-75.861 76.458v662.656c0 42.215 33.954 76.45 75.861 76.45h606.84c41.907 0 75.86-34.235 75.86-76.45V384.674h-75.852z" p-id="20369"></path></svg>