<svg width="24" height="24" viewBox="0 0 24 24" version="1.1" xmlns="http://www.w3.org/2000/svg" stroke="none" stroke-width="1" fill="currentColor" stroke-linecap="round" stroke-linejoin="round">
    <path d="M14.1070502,13.3769833 C14.1227621,12.8778688 14.1594232,12.6139089 14.2222708,12.3300474 C14.3113048,11.9267754 14.4537593,11.5690679 14.6663936,11.2145028 C14.879028,10.8604615 15.1031843,10.5713626 15.8290739,9.80462214 L19.6005642,5.86355522 C19.8885844,5.55974812 20.1114742,4.96152237 19.9460714,4.57694952 C19.7806686,4.19237667 19.1884853,4.00324781 18.7698514,4.00336894 L5.1581133,4.00336894 C4.73935314,4.00325852 4.2304589,4.19220158 4.06514375,4.57694952 C3.8998286,4.96169746 4.09899393,5.51258171 4.43218915,5.86355522 L8.17057262,9.80200349 C8.89855707,10.5687439 9.1221897,10.8573191 9.33587148,11.2124079 C9.54902952,11.566973 9.69200777,11.9246805 9.78104183,12.3284762 C9.87059963,12.7327956 9.90673698,13.0962641 9.906737,14.1536746 L9.906737,20.9514243 C9.90673701,21.3256456 9.70709233,21.6714404 9.38300718,21.858551 C9.05892203,22.0456617 8.69333697,22.0456617 8.36925182,21.858551 C8.04516667,21.6714404 7.89393577,21.3267655 7.89393578,20.9525442 L7.89393578,13.7352868 C7.89393578,13.2073672 7.79401087,13.0245131 7.74897012,12.8228771 C7.70634616,12.6259394 7.63130434,12.4374499 7.52690868,12.2651049 C7.42059152,12.0875604 7.30851333,11.9435348 6.94556857,11.5601645 L2.8439399,6.99715697 C1.99109136,6.09697542 1.76262574,5.01562186 2.25276087,3.87656742 C2.74289599,2.73751298 3.86410332,1.99961571 5.1041345,1.99988104 L18.8965594,1.99988104 C20.1363576,2.00010217 21.2571537,2.73804388 21.7471967,3.87688427 C22.2372397,5.01572467 21.8752387,6.3369517 21.0229036,7.23729854 L16.825131,11.5601645 C16.157749,12.2651049 16.1174488,12.7102593 16.1069103,13.5369423 C16.1063373,13.9291914 15.9742524,14.2742397 15.6259889,14.4547194 C15.2777255,14.6351991 14.8578118,14.605974 14.5379069,14.3789911 C14.218002,14.1520082 14.0517254,13.7653124 14.1070502,13.3769833 Z M15.1440352,16.1407056 L20.3813335,16.1407056 C20.9598295,16.1407056 21.4462107,16.5532026 21.4462107,17.1316986 C21.4462107,17.7101946 20.9598295,18.1226916 20.3813335,18.1226916 L15.1440352,18.1226916 C14.5655392,18.1226916 14.1014806,17.7101946 14.1014806,17.1316986 C14.1014806,16.5532026 14.5655392,16.1407056 15.1440352,16.1407056 Z M15.1440352,19.2830845 L18.2864142,19.2830845 C18.8649102,19.2830845 19.3289913,19.6905098 19.3289913,20.2690058 C19.3289913,20.8475018 18.8649102,21.2549272 18.2864142,21.2549272 L15.1440352,21.2549272 C14.5655392,21.2549272 14.0912865,20.8475018 14.0912865,20.2690058 C14.0912865,19.6905098 14.5655392,19.2830845 15.1440352,19.2830845 Z"></path>
</svg>