<svg width="24" height="24" viewBox="0 0 24 24" version="1.1" xmlns="http://www.w3.org/2000/svg" stroke="none" stroke-width="1" fill="currentColor" stroke-linecap="round" stroke-linejoin="round">
    <path d="M15.2010939,8.84098458 L8.8,8.84098458 L8.8,4.10556526 C8.8,3.79720062 8.94685234,3.52422208 9.16472966,3.4256465 L14.4979214,1.03733707 C14.8441998,0.882649229 15.2010939,1.22791653 15.2010939,1.71700307 L15.2010939,8.84098458 Z" id="路径" fill="#00FFFF" fill-rule="nonzero"></path>
    <path d="M20.9995326,22.197976 C20.9736784,20.695583 21.0010839,19.192179 20.9878982,17.6895333 C20.9695418,15.619446 19.9746722,14.1309548 18.0855059,13.2306311 C17.6777852,13.0362603 17.550324,12.8075144 17.55989,12.3924859 C17.5829003,11.4054663 17.5681634,10.4174356 17.5668707,9.4299105 C17.5650609,8.08877706 17.2566203,7.60044879 16.1239478,7.49049911 L7.96126022,7.49049911 C6.81953881,7.55343582 6.42215977,8.07664468 6.41647185,9.28735504 C6.41207663,10.2748802 6.38492972,11.2639218 6.42733061,12.2496777 C6.45085793,12.7946237 6.27582501,13.0837788 5.75718978,13.3340091 C4.15888322,14.1026459 3.26200106,15.3889308 3.08722668,17.1304328 C2.91529626,18.8438786 3.06137248,20.5633906 3.00139074,22.2786058 C2.97863905,22.926677 3.3268951,22.9863279 3.8625941,22.9964382 C4.43138647,23.006043 4.64080548,22.8255739 4.62968817,22.2568686 C4.59995585,20.7115068 4.61133169,19.1653867 4.62348317,17.6195193 C4.63563464,16.1001916 5.57336643,14.8985805 7.05894869,14.4643424 C7.92247892,14.2115845 8.05847201,14.0275768 8.05304263,13.1340776 C8.04632053,12.0391303 8.05511096,10.9439303 8.03313489,9.84948862 C8.02175904,9.27749748 8.26582268,9.02549785 8.8571082,9.03560817 C9.89127615,9.05304847 10.9238928,9.04041057 11.9572852,9.03939954 C12.9906775,9.03838851 14.0256211,9.03257508 15.0577207,9.03939954 C15.7999947,9.04521297 16.0055356,9.23377037 16.014326,9.95160281 C16.0288044,11.0462973 16.0163944,12.1414973 16.020531,13.2374556 C16.0241506,14.1420761 16.0862007,14.2158814 17.0071273,14.4759693 C18.3233645,14.8492927 19.2168856,15.8744788 19.3619277,17.2039853 C19.5429071,18.8739568 19.4312169,20.5502472 19.4340609,22.2235046 C19.4340609,22.8147053 19.6302943,22.9916358 20.2285604,22.9997241 C20.8679348,23.0095816 21.0093572,22.7555599 20.9995326,22.197976 L20.9995326,22.197976 Z"></path>
</svg>