<?xml version="1.0" encoding="UTF-8"?>
<svg width="24px" height="24px" viewBox="0 0 24 24" version="1.1" xmlns="http://www.w3.org/2000/svg" xmlns:xlink="http://www.w3.org/1999/xlink">
    <title>follower</title>
    <g id="follower" stroke="none" stroke-width="1" fill="none" fill-rule="evenodd">
        <path d="M13.5,10 C14.8786765,10 16,8.87867647 16,7.5 C16,6.12132353 14.8786765,5 13.5,5 C12.1213235,5 11,6.12132353 11,7.5 C11,8.87867647 12.1213235,10 13.5,10 L13.5,10 Z M6.5,10 C7.87867647,10 9,8.87867647 9,7.5 C9,6.12132353 7.87867647,5 6.5,5 C5.12132353,5 4,6.12132353 4,7.5 C4,8.87867647 5.12132353,10 6.5,10 L6.5,10 Z M6.99055118,12 C4.98740157,12 1,12.9742647 1,14.9227941 L1,17 L13,17 L13,14.9227941 C12.9811024,12.9742647 8.99370079,12 6.99055118,12 Z M13.8531856,12 C13.601108,12 13.3102493,12.0184502 13,12.0369004 C14.0277008,12.7380074 14.7257618,13.6789668 14.7257618,14.9151292 L14.7257618,17 L20,17 L20,14.9151292 C20,12.9778598 15.8891967,12 13.8531856,12 L13.8531856,12 Z" id="形状" fill="#AAD4FF" fill-rule="nonzero"></path>
        <path d="M16.5,12 C17.8786765,12 19,10.8786765 19,9.5 C19,8.12132353 17.8786765,7 16.5,7 C15.1213235,7 14,8.12132353 14,9.5 C14,10.8786765 15.1213235,12 16.5,12 Z M10.5,12 C11.8786765,12 13,10.8786765 13,9.5 C13,8.12132353 11.8786765,7 10.5,7 C9.12132353,7 8,8.12132353 8,9.5 C8,10.8786765 9.12132353,12 10.5,12 Z M9.99055118,14 C7.98740158,14 4,14.9742647 4,16.9227941 L4,19 L16,19 L16,16.9227941 C16,14.9742647 11.9937008,14 9.99055118,14 Z M16.8531856,14 C16.601108,14 16.3102493,14.0184502 16,14.0369004 C17.0277008,14.7380074 17.7257618,15.6789668 17.7257618,16.9151292 L17.7257618,19 L23,19 L23,16.9151292 C23,14.9778598 18.9085873,14 16.8531856,14 L16.8531856,14 Z" id="形状" fill="#2B95FF" fill-rule="nonzero"></path>
        <path d="M21.7268308,4.76838639 L20.853693,4.76838639 L20.853693,3.89524855 C20.853693,3.69954524 20.703152,3.54900423 20.5074486,3.54900423 C20.3117453,3.54900423 20.1612043,3.69954524 20.1612043,3.89524855 L20.1612043,4.76838639 L19.2880665,4.76838639 C19.0923632,4.76838639 18.9418222,4.9189274 18.9418222,5.1146307 C18.9418222,5.31033401 19.0923632,5.46087502 19.2880665,5.46087502 L20.1612043,5.46087502 L20.1612043,6.33401286 C20.1612043,6.52971617 20.3117453,6.68025717 20.5074486,6.68025717 C20.703152,6.68025717 20.853693,6.52971617 20.853693,6.33401286 L20.853693,5.46087502 L21.7268308,5.46087502 C21.9225341,5.46087502 22.0730751,5.31033401 22.0730751,5.1146307 C22.0730751,4.9189274 21.90748,4.76838639 21.7268308,4.76838639 L21.7268308,4.76838639 Z M5.82970049,2.7210287 C5.39313157,3.15759762 4.83612984,3.02211071 4.42966912,2.91673201 C4.02320841,2.8113533 3.8275051,2.7962992 3.67696409,2.93178611 C3.52642308,3.08232711 3.55653128,3.26297632 3.66190999,3.68449114 C3.76728869,4.09095186 3.9027756,4.64795358 3.46620668,5.0845225 C3.02963776,5.52109142 2.48769014,5.38560452 2.08122942,5.28022581 C1.6747687,5.17484711 1.47906539,5.14473891 1.32852438,5.29527991 C1.19303748,5.43076682 0.982280069,5.43076682 0.846793163,5.29527991 C0.711306257,5.15979301 0.711306257,4.9490356 0.846793163,4.81354869 C1.28336208,4.37697977 1.82530971,4.51246668 2.23177042,4.61784538 C2.63823114,4.72322409 2.83393445,4.75333229 2.98447546,4.60279128 C3.13501647,4.45225027 3.10490826,4.27160107 2.99952956,3.85008625 C2.89415085,3.44362553 2.75866395,2.8866238 3.19523287,2.46510899 C3.63180179,2.02854007 4.18880351,2.16402697 4.59526423,2.26940568 C5.00172495,2.37478438 5.19742826,2.40489258 5.34796926,2.25435158 C5.49851027,2.10381057 5.46840207,1.90810726 5.36302337,1.50164654 C5.25764466,1.09518582 5.12215775,0.538184099 5.55872667,0.10161518 C5.69421358,-0.0338717265 5.90497099,-0.0338717265 6.0404579,0.10161518 C6.1759448,0.237102086 6.1759448,0.447859495 6.0404579,0.583346401 C5.88991689,0.733887408 5.92002509,0.914536616 6.02540379,1.33605144 C6.1307825,1.74251215 6.26626941,2.29951388 5.82970049,2.7210287 Z" id="形状" fill="#A8D4FF" fill-rule="nonzero"></path>
        <path d="M3.37588208,21.8482045 L1.91563431,20.3879567 C1.81025561,20.282578 1.6446605,20.282578 1.53928179,20.3879567 L0.0790340284,21.8482045 C-0.0263446761,21.9535832 -0.0263446761,22.1191783 0.0790340284,22.224557 L1.53928179,23.6848048 C1.6446605,23.7901835 1.81025561,23.7901835 1.91563431,23.6848048 L3.37588208,22.224557 C3.48126078,22.1191783 3.48126078,21.9535832 3.37588208,21.8482045 Z M1.7048769,23.1127489 L0.620981653,22.0288537 L1.7048769,20.9449584 L2.78877215,22.0288537 L1.7048769,23.1127489 Z" id="形状" fill="#A8D4FF" fill-rule="nonzero"></path>
        <path d="M19.0730751,21.6330563 C19.0730751,22.1651619 19.5044319,22.5965187 20.0365376,22.5965187 C20.5686432,22.5965187 21,22.1651619 21,21.6330563 C21,21.1009507 20.5686432,20.6695939 20.0365376,20.6695939 C19.5044319,20.6695939 19.0730751,21.1009507 19.0730751,21.6330563 L19.0730751,21.6330563 Z" id="路径" fill="#D9EDFF" fill-rule="nonzero"></path>
    </g>
</svg>