<svg t="1640158304180" class="icon" viewBox="0 0 1024 1024" version="1.1" xmlns="http://www.w3.org/2000/svg" p-id="3890" width="200" height="200"><path d="M421.38232059 162.47466667C421.38232059 113.28221275 462.80754608 71.85698725 512 71.85698725s90.61767941 41.42522429 90.61767941 90.61767942S561.19245392 253.09234608 512 253.09234608s-90.61767941-41.42522429-90.61767941-90.61767941zM423.97139794 512c0-49.19245392 41.42522429-90.61767941 90.6176782-90.61767941s90.61767941 41.42522429 90.61767941 90.61767941-41.42522429 90.61767941-90.61767941 90.61767941-90.61767941-41.42522429-90.6176782-90.61767941zM421.38232059 861.52533333c0-49.19245392 41.42522429-90.61767941 90.61767941-90.61767941s90.61767941 41.42522429 90.61767941 90.61767941S561.19245392 952.14301275 512 952.14301275s-90.61767941-41.42522429-90.61767941-90.61767942z" p-id="3891"></path></svg>