<svg width="24" height="24" viewBox="0 0 24 24" version="1.1"
    xmlns="http://www.w3.org/2000/svg" stroke="none" stroke-width="1" fill="currentColor" stroke-linecap="round" stroke-linejoin="round">
    <path d="M22.2487223,6.67176617 L20.391833,6.67176617 C20.8518351,6.67176617 21.265415,5.75598211 21.4511039,5.14827287 C21.6832151,4.40129692 21.5397282,3.6669816 21.0459644,3.01285013 C21.0122028,2.9664279 20.974221,2.92844607 20.932019,2.89468444 C18.543384,0.852106182 15.3107085,2.81872079 13.9940051,3.78514728 C13.6395081,4.02991904 13.5508838,4.5194626 13.7956556,4.87395968 C14.0404274,5.23267692 14.5299709,5.32552141 14.8886882,5.08074961 C14.8971286,5.07652941 14.9519913,5.03432739 14.9604317,5.03010719 C15.7116278,4.4772606 18.2648507,2.78917936 19.8432066,4.03835947 C19.9909137,4.25781003 20.0246753,4.46459997 19.9529319,4.69671114 C19.7672429,5.30020018 18.9780649,5.86148719 18.5982467,5.98809328 C17.1211756,6.54093986 16.6400725,6.60002272 16.0197026,6.64222474 C15.9690602,6.64644494 15.9226379,6.67176617 15.8762157,6.67176617 L13.7070313,6.67176617 C13.6732697,6.67176617 13.6437283,6.57048129 13.5973061,6.52405906 C12.7870271,5.76864271 10.8668347,3.99615744 10.4870164,3.73872505 C7.59195714,1.76367002 4.97121106,1.4555952 3.28735003,2.89468444 C3.245148,2.93266627 3.20716617,2.9748683 3.17340455,3.01707033 C2.67542059,3.67120182 2.5319337,4.40129694 2.76404487,5.14827287 C2.94973381,5.75598211 3.36331371,6.67176617 3.81909564,6.67176617 L1.81871938,6.67176617 C1.38403848,6.67176617 1,7.04314405 1,7.47782495 L1,11.406834 C1,11.8415149 1,12.1917918 1.78495778,12.1917918 L1.78495778,19.8767815 C1.78495778,21.2483475 2.83156812,22.3878023 4.07652803,22.3878023 L19.9233905,22.3878023 C21.181011,22.3878023 22.2149607,21.2230263 22.2149607,19.8767815 L22.2149607,12.1917918 C22.9999596,12.1917918 22.9999596,11.8415149 22.9999596,11.406834 L22.9999596,7.47782495 C23.0041387,7.04314405 22.6834032,6.67176617 22.2487223,6.67176617 Z M8.19966638,6.64222477 C7.57929654,6.59580254 7.09819338,6.53671969 5.59158091,5.97121247 C5.23708386,5.85304679 4.45212608,5.29597998 4.26221694,4.69249096 C4.19047349,4.4603798 4.22423512,4.25358986 4.37194222,4.03413929 C5.94607796,2.79761981 8.53728263,4.31267269 9.64297583,5.06808904 C9.79912334,5.17781432 10.5672003,5.88258822 11.4450025,6.66754599 L8.34315329,6.66754599 C8.29673106,6.67176617 8.25030881,6.64644497 8.19966638,6.64222477 Z M21.4300029,8.2416817 L21.4300029,10.6007752 L2.66698019,10.6007752 C2.64587916,10.6007752 2.56991551,10.6303166 2.56991551,10.6303166 L2.56991551,8.2416817 L21.4300029,8.2416817 Z M19.9233904,20.8178868 L4.07652801,20.8178868 C3.6713885,20.8178868 3.35487328,20.3114624 3.35487328,19.8767815 L3.35487328,12.1706907 L20.6450452,12.1706907 L20.6450452,19.8767815 C20.6450452,20.345224 20.3116491,20.8178868 19.9233904,20.8178868 Z"></path>
</svg>