<svg width="24" height="24" viewBox="0 0 24 24" version="1.1" xmlns="http://www.w3.org/2000/svg"  fill="currentColor" stroke="none" stroke-width="2" stroke-linecap="round" stroke-linejoin="round">
    <path d="M18.49,17.929 C18.204,17.049 17.379,16.4 16.4,16.4 L15.3,16.4 L15.3,13.1 C15.3,12.4924868 14.8075132,12 14.2,12 L7.6,12 L7.6,9.8 L9.8,9.8 C10.4075132,9.8 10.9,9.30751322 10.9,8.7 L10.9,6.5 L13.1,6.5 C14.3150264,6.5 15.3,5.51502645 15.3,4.3 L15.3,3.849 C18.523,5.147 20.8,8.304 20.8,12 C20.8,14.288 19.92,16.367 18.49,17.929 M10.9,20.723 C6.555,20.184 3.2,16.488 3.2,12 C3.2,11.318 3.288,10.658 3.431,10.031 L8.7,15.3 L8.7,16.4 C8.7,17.6150264 9.68497355,18.6 10.9,18.6 M12,1 C5.92486775,1 1,5.92486775 1,12 C1,14.9173814 2.15892524,17.7152744 4.22182541,19.7781746 C6.28472557,21.8410748 9.08261861,23 12,23 C14.9173814,23 17.7152744,21.8410748 19.7781746,19.7781746 C21.8410748,17.7152744 23,14.9173814 23,12 C23,9.08261861 21.8410748,6.28472557 19.7781746,4.22182541 C17.7152744,2.15892524 14.9173814,1 12,1 Z"></path>
</svg>