<svg width="24" height="24" viewBox="0 0 24 24" version="1.1" xmlns="http://www.w3.org/2000/svg" stroke="none" stroke-width="1" fill="currentColor" stroke-linecap="round" stroke-linejoin="round">
    <path d="M6.00207572,13.2868719 C3.63954054,13.2868719 1.71763691,11.3649683 1.71763691,9.00243314 C1.71763691,6.63989796 3.63954054,4.71799433 6.00207572,4.71799433 L6.00207572,6.4313011 C4.58408585,6.4313011 3.43094368,7.58444327 3.43094368,9.00243314 C3.43094368,10.420423 4.58408585,11.5735652 6.00207572,11.5735652 L6.00207572,13.2868719 Z"></path>
    <path d="M0.00433014935,18.4596052 C-0.126921805,14.8033008 2.74187092,11.7141923 6.39817537,11.5735652 L6.46380135,13.2868719 C3.74969843,13.3899985 1.61919795,15.6845639 1.71529313,18.3986668 L0.00433014935,18.4596052 Z M17.9999106,13.2868719 L17.9999106,11.5735652 C19.4179005,11.5735652 20.5710427,10.420423 20.5710427,9.00243314 C20.5710427,7.58444327 19.4179005,6.4313011 17.9999106,6.4313011 L17.9999106,4.71799433 C20.3624458,4.71799433 22.2843495,6.63989796 22.2843495,9.00243314 C22.2843495,11.3649683 20.3624458,13.2868719 17.9999106,13.2868719 L17.9999106,13.2868719 Z"></path>
    <path d="M24,18.429136 L22.2866932,18.429136 C22.2866932,15.5931563 20.3647896,13.2868719 18.0022544,13.2868719 L18.0022544,11.5735652 C21.3093349,11.5735652 24,14.648611 24,18.429136 L24,18.429136 Z M12.0021651,15.0001787 C8.69508457,15.0001787 6.00207572,12.3095136 6.00207572,9.00008936 C6.00207572,5.69066507 8.69274079,3 12.0021651,3 C15.3115894,3 18.0022544,5.69066507 18.0022544,9.00008936 C18.0022544,12.3095136 15.3092456,15.0001787 12.0021651,15.0001787 Z M12.0021651,4.71565055 C9.63962989,4.71565055 7.71772627,6.63755417 7.71772627,9.00008936 C7.71772627,11.3626245 9.63962989,13.2845282 12.0021651,13.2845282 C14.3647003,13.2845282 16.2866039,11.3626245 16.2866039,9.00008936 C16.2866039,6.63755417 14.3647003,4.71565055 12.0021651,4.71565055 L12.0021651,4.71565055 Z"></path>
    <path d="M18.0022544,20.5994808 C17.8944403,17.4119334 15.185025,14.8923646 12.0279467,15.0001787 C8.75836677,14.8970522 6.10754604,17.4119334 6.00207572,20.5994808 L4.28876895,20.54323 C4.42705226,16.413481 7.92397934,13.1579638 12.0279467,13.2868719 C16.0756632,13.15562 19.5772779,16.413481 19.7132174,20.54323 L18.0022544,20.5994808 Z"></path>
</svg>