<svg t="1639464280131" viewBox="0 0 1024 1024" version="1.1" xmlns="http://www.w3.org/2000/svg" p-id="19122" width="200" height="200"><path d="M554.16376889 468.2463763c43.69066667 0 79.22574222-35.53507555 79.22574223-79.22574222s-35.53507555-79.22574222-79.22574223-79.22574222-79.22574222 35.53507555-79.22574222 79.22574222 35.53507555 79.22574222 79.22574222 79.22574222z m-211.46282667 0c43.69066667 0 79.22574222-35.53507555 79.22574223-79.22574222s-35.53507555-79.22574222-79.22574223-79.22574222S263.4752 345.32996741 263.4752 389.02063408s35.53507555 79.22574222 79.22574222 79.22574222z m0 53.01134222c-61.74947555 0-184.66588445 30.87473778-184.66588444 92.62421334v65.8272711h369.91431111v-65.8272711c-0.58254222-61.74947555-123.49895111-92.62421333-185.24842667-92.62421334z m211.46282667 0c-7.57304889 0-16.31118222 0.58254222-25.63185777 1.16508444 30.87473778 22.13660445 51.84625778 51.84625778 51.84625777 90.87658667v65.82727111h158.45148445v-65.82727111c0-61.16693333-123.49895111-92.04167111-184.66588445-92.04167111z" fill="#AAD4FF" p-id="19123"></path><path d="M659.60391112 534.07364741c43.69066667 0 79.22574222-35.53507555 79.22574222-79.22574222S703.29457778 375.62216296 659.60391112 375.62216296s-79.22574222 35.53507555-79.22574223 79.22574223 35.53507555 79.22574222 79.22574223 79.22574222z m-211.46282667 0c43.69066667 0 79.22574222-35.53507555 79.22574222-79.22574222S491.83175112 375.62216296 448.14108445 375.62216296s-79.22574222 35.53507555-79.22574223 79.22574223 35.53507555 79.22574222 79.22574223 79.22574222z m0 53.01134222c-61.74947555 0-184.66588445 30.87473778-184.66588445 92.62421333v65.82727112h369.91431112v-65.82727112c0-61.74947555-123.49895111-92.62421333-185.24842667-92.62421333z m211.46282667 0c-7.57304889 0-16.31118222 0.58254222-25.63185778 1.16508445 30.87473778 22.13660445 51.84625778 51.84625778 51.84625778 90.87658666v65.82727112h158.45148444v-65.82727112c0-61.16693333-122.91640889-92.04167111-184.66588444-92.04167111z" fill="#2B95FF" p-id="19124"></path><path d="M891.45571556 336.00929186H857.66826667v-33.7874489c0-7.57304889-5.82542222-13.39847111-13.39847111-13.3984711-7.57304889 0-13.39847111 5.82542222-13.39847111 13.3984711v33.7874489h-33.78744889c-7.57304889 0-13.39847111 5.82542222-13.39847111 13.3984711s5.82542222 13.39847111 13.39847111 13.39847112h33.78744889v33.78744888c0 7.57304889 5.82542222 13.39847111 13.39847111 13.39847112 7.57304889 0 13.39847111-5.82542222 13.39847111-13.39847112v-33.78744888h33.78744889c7.57304889 0 13.39847111-5.82542222 13.39847111-13.39847112s-6.40796445-13.39847111-13.39847111-13.3984711zM276.29112889 256.78354963c-16.89372445 16.89372445-38.44778667 11.65084445-54.17642667 7.57304889-15.72864-4.07779555-23.30168889-4.66033778-29.1271111 0.58254222-5.82542222 5.82542222-4.66033778 12.81592889-0.58254223 29.12711112 4.07779555 15.72864 9.32067555 37.28270222-7.57304889 54.17642666-16.89372445 16.89372445-37.86524445 11.65084445-53.59388444 7.57304889-15.72864-4.07779555-23.30168889-5.24288-29.12711111 0.58254222-5.24288 5.24288-13.39847111 5.24288-18.64135111 0s-5.24288-13.39847111 0-18.64135111c16.89372445-16.89372445 37.86524445-11.65084445 53.59388444-7.57304889 15.72864 4.07779555 23.30168889 5.24288 29.12711111-0.58254222s4.66033778-12.81592889 0.58254223-29.12711111c-4.07779555-15.72864-9.32067555-37.28270222 7.57304888-53.59388444 16.89372445-16.89372445 38.44778667-11.65084445 54.17642667-7.5730489 15.72864 4.07779555 23.30168889 5.24288 29.12711111-0.58254222s4.66033778-13.39847111 0.58254222-29.12711111c-4.07779555-15.72864-9.32067555-37.28270222 7.57304889-54.17642667 5.24288-5.24288 13.39847111-5.24288 18.64135111 0 5.24288 5.24288 5.24288 13.39847111 0 18.64135112-5.82542222 5.82542222-4.66033778 12.81592889-0.58254222 29.12711111 4.07779555 15.72864 9.32067555 37.28270222-7.57304889 53.59388444z" fill="#A8D4FF" p-id="19125"></path><path d="M942.13688889 601.64854519m-37.28270222 0a37.28270222 37.28270222 0 1 0 74.56540445 0 37.28270222 37.28270222 0 1 0-74.56540445 0Z" fill="#D9EDFF" p-id="19126"></path><path d="M181.33674667 764.76036741l-56.50659555-56.50659555c-4.07779555-4.07779555-10.48576-4.07779555-14.56355556 0l-56.50659556 56.50659555c-4.07779555 4.07779555-4.07779555 10.48576 0 14.56355555l56.50659556 56.50659556c4.07779555 4.07779555 10.48576 4.07779555 14.56355556 0l56.50659555-56.50659556c4.07779555-4.07779555 4.07779555-10.48576 0-14.56355555z m-64.66218667 48.93354667l-41.94304-41.94304 41.94304-41.94304L158.6176 771.75087408l-41.94304 41.94304z" fill="#A8D4FF" p-id="19127"></path></svg>