<svg t="1640327878269" class="icon" viewBox="0 0 1024 1024" version="1.1" xmlns="http://www.w3.org/2000/svg" p-id="4158" width="200" height="200"><path d="M143.616 47.104l830.08 830.08c26.24 26.24 26.24 69.888 0 96.128-26.24 26.24-69.888 26.24-96.128 0L47.488 143.232c-17.536-26.24-17.536-69.888 0-96.128 26.24-26.24 69.888-26.24 96.128 0z m0 0" fill="" p-id="4159"></path><path d="M982.528 143.232L152.32 973.312c-26.24 26.24-69.888 26.24-96.128 0-26.24-26.24-26.24-69.888 0-96.128L886.4 47.104c26.24-26.24 69.888-26.24 96.128 0 17.408 26.24 17.408 69.888 0 96.128z m0 0" p-id="4160"></path></svg>