<svg width="24" height="24" viewBox="0 0 24 24" version="1.1" xmlns="http://www.w3.org/2000/svg" stroke="none" stroke-width="1" fill="currentColor" stroke-linecap="round" stroke-linejoin="round">
    <path d="M12,1 C18.0753333,1 23,5.92466666 23,12 C23,18.0753333 18.0753333,23 12,23 C5.92466666,23 1,18.0753333 1,12 C1,5.92466666 5.92466666,1 12,1 Z M12,3 C7.02933334,3 3,7.02933334 3,12 C3,16.9706667 7.02933334,21 12,21 C16.9706667,21 21,16.9706667 21,12 C21,7.02933334 16.9706667,3 12,3 Z M11.6746667,16.2226667 C12.068,16.2226667 12.408,16.3493333 12.6733333,16.6146667 C12.93,16.872 13.0653333,17.2013333 13.0653333,17.5786667 C13.0653333,17.98 12.9253333,18.3133333 12.6453333,18.57 C12.3833318,18.8180355 12.0354405,18.954946 11.6746667,18.952 C11.3026667,18.952 10.9786667,18.8213333 10.6933333,18.56 C10.4266667,18.2933333 10.3013333,17.968 10.3013333,17.5786667 C10.3013333,17.184 10.43,16.856 10.6933333,16.6146667 C10.96,16.348 11.2853333,16.2226667 11.6746667,16.2226667 L11.6746667,16.2226667 Z M11.9346667,5.66666666 C13.134,5.66666666 14.0946667,5.99466666 14.8293333,6.67333334 C15.546,7.332 15.908,8.23866668 15.908,9.36266666 C15.908,10.208 15.6633333,10.956 15.172,11.604 L15.0773333,11.7106667 C14.8933333,11.9106667 14.5773333,12.2133333 14.1473333,12.6033333 L13.73,12.9773333 C13.386,13.2746667 13.1466667,13.5566667 12.984,13.848 C12.8155126,14.1347457 12.7198353,14.4584005 12.7053333,14.7906667 L12.7013333,14.944 L12.7013333,15.676 L10.648,15.676 L10.648,14.944 C10.648,14.324 10.762,13.772 10.9913333,13.2953333 C11.258,12.722 11.858,12.034 12.808,11.1893333 L13.1973333,10.7946667 C13.2826667,10.7046667 13.3326667,10.6466667 13.3733333,10.5933333 C13.676,10.2146667 13.82,9.83600001 13.82,9.43200001 C13.82,8.83466666 13.6506667,8.37800001 13.3233333,8.05066667 C13.0013334,7.71466666 12.5233333,7.54666667 11.8653333,7.54666667 C11.094,7.54666667 10.5573333,7.78266667 10.2033333,8.26866667 C9.89933333,8.65533334 9.732,9.182 9.70599999,9.86533334 L9.70266667,10.056 L9.70266667,10.3893333 L7.66666666,10.3893333 L7.66666666,10.056 C7.66666666,8.74933332 8.03133333,7.70133333 8.77600001,6.92 C9.536,6.08333334 10.5973333,5.66666666 11.9346667,5.66666666 Z"></path>
</svg>