<svg t="1640333851066" class="icon" viewBox="0 0 1024 1024" version="1.1" xmlns="http://www.w3.org/2000/svg" p-id="5637" width="200" height="200"><path d="M513.323158 1024c-36.499371 0-73.198738-3.899933-109.59811-11.799796-133.597696-28.9995-247.895725-108.298132-321.894449-223.29615-113.698039-176.696953-108.498129-401.693072 12.999776-572.990118 14.699746-20.699643 43.299253-25.49956 63.998896-10.899812 20.699643 14.699746 25.599559 43.299253 10.899812 63.998897C70.030803 409.610596 65.830875 594.207412 159.129266 739.204912c60.698953 94.398372 154.497336 159.397251 264.095446 183.19684 109.698108 23.79959 221.996171 3.49994 316.294545-57.199013 194.796641-125.297839 251.295666-385.693348 125.997827-580.489989-60.698953-94.398372-154.497336-159.397251-264.095446-183.196841-109.59811-23.79959-221.996171-3.49994-316.294545 57.199014-21.299633 13.699764-49.699143 7.499871-63.398906-13.799762-13.699764-21.299633-7.499871-49.699143 13.799762-63.398907C350.525965 7.617529 487.423604-17.182044 621.0213 11.817456s247.895725 108.298132 321.894449 223.296149c152.697367 237.395906 83.798555 554.690434-153.597351 707.387801-83.698557 53.699074-178.896915 81.498594-275.99524 81.498594z" fill="#707070" p-id="5638"></path><path d="M512.02318 349.211637m-58.598989 0a58.598989 58.598989 0 1 0 117.197979 0 58.598989 58.598989 0 1 0-117.197979 0Z" fill="#707070" p-id="5639"></path><path d="M512.02318 728.105103c-25.399562 0-45.899208-20.499646-45.899208-45.899208v-176.996948c0-25.399562 20.499646-45.899208 45.899208-45.899208s45.899208 20.499646 45.899209 45.899208v176.996948c0 25.399562-20.499646 45.899208-45.899209 45.899208z" p-id="5640"></path></svg>