<svg t="1639465905587" viewBox="0 0 1024 1024" version="1.1" xmlns="http://www.w3.org/2000/svg" p-id="19260" width="200" height="200"><path d="M669.184 470.016h-92.672v23.04h81.408l-110.592 110.08 75.776 75.776 115.712-116.224v-11.776h-69.632z" fill="#FFCB99" p-id="19261"></path><path d="M402.432 493.056h11.776V423.424c0-11.264 4.096-21.504 10.752-29.696l32.256-38.912c6.144-7.68 15.872-12.8 26.624-12.8h249.344c-1.536-2.048-2.56-4.608-4.608-6.144L696.32 296.96c-6.656-7.68-16.384-12.8-27.136-12.8H390.656c-10.752 0-20.48 5.12-26.624 12.8l-32.256 38.912c-6.656 8.192-10.752 18.432-10.752 29.696V655.36c0 25.6 20.992 46.592 46.592 46.592h46.592V504.832l-11.776-11.776zM389.632 307.2h278.528l21.504 23.04H370.688l18.944-23.04z" fill="#FFCB99" p-id="19262"></path><path d="M463.36 388.608h275.456v-23.04H482.304z" fill="#FFCB99" p-id="19263"></path><path d="M821.248 393.728l-32.256-38.912c-6.656-7.68-16.384-12.8-27.136-12.8H483.84c-10.752 0-20.48 5.12-26.624 12.8L424.96 393.728c-6.656 8.192-10.752 18.432-10.752 29.696V713.728c0 25.6 20.992 46.592 46.592 46.592h325.12c25.6 0 46.592-20.992 46.592-46.592V423.424c-0.512-11.264-4.608-21.504-11.264-29.696z m-82.432 168.96l-116.224 116.224-75.264-75.264-52.224-52.224h81.408V470.016h92.672v81.408H750.592l-11.776 11.264z m0-174.08H463.36l18.944-23.04h278.528l21.504 23.04h-43.52z" fill="#FF7E00" p-id="19264"></path><path d="M327.68 816.128c-20.48 0-30.72-16.384-38.4-28.672-7.68-12.288-11.264-17.408-18.432-17.408-6.656 0-10.752 5.12-18.432 17.408-7.168 12.288-17.408 28.672-38.4 28.672-20.48 0-30.72-16.384-38.4-28.672-7.68-12.288-11.264-17.408-18.432-17.408-6.656 0-11.776-5.12-11.776-11.776s5.12-11.776 11.776-11.776c20.48 0 30.72 16.384 38.4 28.672 7.68 12.288 11.264 17.408 18.432 17.408 6.656 0 10.752-5.12 18.432-17.408 7.168-12.288 17.408-28.672 38.4-28.672 20.48 0 30.72 16.384 38.4 28.672 7.68 12.288 11.264 17.408 18.432 17.408s10.752-5.632 18.432-17.408c7.168-12.288 17.408-28.672 38.4-28.672 6.656 0 11.776 5.12 11.776 11.776s-5.12 11.776-11.776 11.776c-7.168 0-10.752 5.12-18.432 17.408-7.168 11.776-17.408 28.672-38.4 28.672z" fill="#FFC879" p-id="19265"></path><path d="M185.856 541.184h65.536v65.536H185.856zM910.336 382.976l34.816-35.328H875.52z" fill="#FFF7EC" p-id="19266"></path><path d="M920.064 781.312m-32.768 0a32.768 32.768 0 1 0 65.536 0 32.768 32.768 0 1 0-65.536 0Z" fill="#FFF7EC" p-id="19267"></path><path d="M890.88 226.816l-49.664-49.664c-3.584-3.584-9.216-3.584-12.8 0l-49.664 49.664c-3.584 3.584-3.584 9.216 0 12.8l49.664 49.664c3.584 3.584 9.216 3.584 12.8 0l49.664-49.664c3.584-3.584 3.584-9.216 0-12.8z m-56.32 43.008l-36.864-36.864 36.864-36.864 36.864 36.864-36.864 36.864zM229.888 319.488c-30.72 0-56.32 25.088-56.32 56.32s25.088 56.32 56.32 56.32 56.32-25.088 56.32-56.32-25.6-56.32-56.32-56.32z m0 88.576c-17.92 0-32.768-14.848-32.768-32.768s14.848-32.768 32.768-32.768c17.92 0 32.768 14.848 32.768 32.768s-14.848 32.768-32.768 32.768z" fill="#FFC879" p-id="19268"></path></svg>