<svg width="24" height="24" viewBox="0 0 24 24" version="1.1" xmlns="http://www.w3.org/2000/svg" stroke="none" stroke-width="1" fill="currentColor" stroke-linecap="round" stroke-linejoin="round">
    <path d="M19.3629975,19.0286464 L20.5603859,12.301773 C20.7963639,10.9783963 19.9254451,10.0581685 18.5830701,10.0681676 L18.3425925,10.0701674 C17.9298016,10.0735466 17.5170063,10.0763797 17.1042079,10.0786666 C16.6609229,10.0822069 16.0539941,10.0822069 15.6107091,10.0786666 L14.8842768,10.0686676 L15.1537517,9.2815543 C15.3937293,8.68061026 15.8273268,7.0377633 15.8213274,6.28133377 C15.8068287,4.56949323 15.0863958,3.58958449 14.1974786,3.59991781 C13.1050804,3.61308231 12.57263,4.15000955 12.57263,5.73588457 C12.57263,9.08460086 9.74567274,11.3012299 6.74567274,11.3012299 C6.74851352,11.4757915 6.74567274,20.6 6.74567274,20.6 C6.74567274,20.5980002 17.5046706,20.5885011 17.5046706,20.5885011 C18.36959,20.5880011 19.2115116,19.880567 19.3629975,19.0286464 Z M18.5366509,8.74515582 L18.792293,8.74303431 C20.880921,8.72765335 22.3086981,10.4216802 21.9427374,12.4784855 L20.6724824,19.4666608 C20.4216137,20.8753444 19.0893046,21.994972 17.6578148,21.9965632 L6.24832655,22.0061899 C5.66289631,22.0090476 5.18577235,21.5371459 5.18226708,20.9517188 L5.16102484,10.9265999 C5.15957916,10.3429947 5.63025725,9.86804848 6.21385198,9.86425309 L6.30507699,9.86319232 C6.45199164,9.86160119 6.63125936,9.86160119 6.83545482,9.86319232 C9.27625367,9.8828163 11.3675335,7.56506512 11.3638209,5.32899211 C11.3595778,3.06162682 12.3980577,2.02155588 14.1350451,2.00034075 C15.7553494,1.98124714 16.9115732,3.55434784 16.9306668,5.89649641 C16.9370313,6.60455084 16.7604155,7.85624256 16.5403086,8.75682415 C16.7397307,8.75682415 16.9699147,8.75576338 17.2260872,8.75417225 C17.6633002,8.75191717 18.0999786,8.74891169 18.5366509,8.74515582 Z M3.27250237,20.669896 L3.64417131,20.669896 C3.93709091,20.669896 4.17454916,21.047074 4.17454916,21.3399936 C4.17454916,21.6329132 3.93709091,22.0030028 3.64417131,22.0030028 L2.66721532,22.0030028 C2.49073576,22.0038119 2.32117881,21.9343708 2.19599006,21.8099781 C2.07080131,21.6855855 2.00027989,21.516475 2,21.3399936 L2,10.6189808 C2,10.2514289 2.30019387,9.95600844 2.66562419,9.95600844 L3.63303338,9.95600844 C3.92595298,9.95600844 4.17454916,10.3260612 4.17454916,10.6189808 C4.17454916,10.9119004 3.92595298,11.1857333 3.63303338,11.1857333 L3.27250237,11.1857333 L3.27250237,20.669896 Z"></path>
</svg>