<svg width="24" height="24" viewBox="0 0 24 24" version="1.1" xmlns="http://www.w3.org/2000/svg" stroke="none" stroke-width="1" fill="currentColor" stroke-linecap="round" stroke-linejoin="round">
    <path d="M17.1747984,8.68055376 C17.5869555,8.6785635 17.9991085,8.67578494 18.411255,8.6722181 L18.6390965,8.66999524 C20.8269301,8.65387961 22.3234594,10.4304872 21.9400189,12.583311 L20.7369049,19.3401992 C20.4757208,20.8106101 19.0719952,21.9853829 17.5815787,21.9864943 L6.44457766,21.9964971 C5.83372644,21.9955993 5.33772982,21.5025786 5.33315596,20.8917439 L5.31203896,10.8895044 C5.31203896,10.2821352 5.79948845,9.78719322 6.40678931,9.77808267 L6.48903453,9.77641554 C6.6251837,9.77530411 6.79634262,9.77530411 7.0002885,9.77641554 C9.39540225,9.79642113 11.4515324,7.51800665 11.4470867,5.32350453 C11.4431967,3.06398423 12.4834874,2.02147067 14.2200838,2.00017522 C15.8416481,1.98090379 16.9969709,3.55300977 17.0164208,5.88477249 C17.0219779,6.57774393 16.8524861,7.79252782 16.6385374,8.6833323 C16.7996936,8.6833323 16.9791882,8.68222087 17.1747984,8.68110946 L17.1747984,8.68055376 Z M4.21006435,10.3276807 L4.22284829,21.4396748 C4.22330092,21.5882651 4.16416985,21.7308362 4.05868318,21.8354873 C3.95319651,21.9401384 3.81015977,21.9981339 3.66157775,21.9965308 L2.56071454,21.9965308 C2.41227336,21.9978334 2.26946801,21.939723 2.16413525,21.835121 C2.05880249,21.730519 1.9996994,21.5881217 2.00000115,21.4396748 L2.00111374,10.3276807 C2.0003688,10.1796787 2.05887106,10.037531 2.16357781,9.93292867 C2.26828455,9.82832631 2.4104905,9.76996587 2.55849171,9.77084835 L3.65213065,9.77084835 C3.95610448,9.77084835 4.21006435,10.0203726 4.21006435,10.3276807 L4.21006435,10.3276807 Z"></path>
</svg>