<?xml version="1.0" standalone="no"?><!DOCTYPE svg PUBLIC "-//W3C//DTD SVG 1.1//EN" "http://www.w3.org/Graphics/SVG/1.1/DTD/svg11.dtd"><svg t="1638766208131" class="icon" viewBox="0 0 1024 1024" version="1.1" xmlns="http://www.w3.org/2000/svg" p-id="2936" xmlns:xlink="http://www.w3.org/1999/xlink" width="200" height="200"><defs><style type="text/css">@font-face { font-weight: 400; font-style: normal; font-family: Circular-Loom; src: url("https://cdn.loom.com/assets/fonts/circular/CircularXXWeb-Book-cd7d2bcec649b1243839a15d5eb8f0a3.woff2") format("woff2"); }
@font-face { font-weight: 500; font-style: normal; font-family: Circular-Loom; src: url("https://cdn.loom.com/assets/fonts/circular/CircularXXWeb-Medium-d74eac43c78bd5852478998ce63dceb3.woff2") format("woff2"); }
@font-face { font-weight: 700; font-style: normal; font-family: Circular-Loom; src: url("https://cdn.loom.com/assets/fonts/circular/CircularXXWeb-Bold-83b8ceaf77f49c7cffa44107561909e4.woff2") format("woff2"); }
@font-face { font-weight: 900; font-style: normal; font-family: Circular-Loom; src: url("https://cdn.loom.com/assets/fonts/circular/CircularXXWeb-Black-bf067ecb8aa777ceb6df7d72226febca.woff2") format("woff2"); }
</style></defs><path d="M399.36 687.36c-14.08 0-25.6-11.52-25.6-25.6v-128c0-14.08 11.52-25.6 25.6-25.6s25.6 11.52 25.6 25.6v128c0 14.08-11.52 25.6-25.6 25.6zM501.504 687.36c-14.08 0-25.6-11.52-25.6-25.6v-128c0-14.08 11.52-25.6 25.6-25.6s25.6 11.52 25.6 25.6v128c0 14.08-11.52 25.6-25.6 25.6zM603.904 687.36c-14.08 0-25.6-11.52-25.6-25.6v-128c0-14.08 11.52-25.6 25.6-25.6s25.6 11.52 25.6 25.6v128c0 14.08-11.52 25.6-25.6 25.6z" p-id="2937"></path><path d="M759.296 719.36c0.768-3.584 1.28-7.424 1.28-11.264 0-19.712-10.752-37.632-27.392-47.36v-153.6c10.496-7.936 16.64-19.968 17.152-33.024 17.408-6.912 30.976-23.296 34.048-43.776 4.096-26.368-10.496-52.224-33.792-61.184l-214.784-109.056h-0.256V227.584c10.496-2.304 16.128-2.048 18.688-1.792 1.792 0.256 3.584 1.024 7.68 3.328l6.912 4.096c12.288 7.68 22.016 11.264 34.304 13.312 21.504 3.328 44.544-2.048 67.84-16.896a23.04 23.04 0 0 0 10.752-19.712V141.824c0-8.192-4.096-15.616-11.008-19.712a22.9888 22.9888 0 0 0-22.272-1.28c-25.6 12.288-35.84 12.288-38.4 11.776-2.304-0.256-3.84-1.024-7.936-3.328l-6.656-4.096c-10.496-6.4-22.016-10.752-34.048-12.544-14.08-2.304-27.136-2.048-39.424 0.768-3.328-1.536-6.912-3.072-10.752-2.304l-6.4 1.024c-9.216 3.072-16.128 11.776-15.872 22.272v75.776c0 1.28 0 2.56 0.256 2.56l0.256 47.36h-0.256l-217.856 110.848c-22.528 11.008-34.816 36.352-29.952 61.952 2.304 11.264 7.936 21.248 15.616 28.928-1.024 3.584-1.536 7.168-1.536 10.752 0 13.568 6.656 26.624 17.408 34.56v151.808c-9.216 4.608-16.896 11.52-22.528 20.224-7.936 12.544-9.984 27.904-6.656 41.984a56.576 56.576 0 0 0-27.392 48.128c0 29.184 22.528 53.76 51.968 56.32h468.224c30.464-2.304 53.248-26.624 53.248-56.32a57.088 57.088 0 0 0-30.464-49.92zM292.608 414.464l217.856-110.592c0.512-0.256 1.024-0.256 1.536-0.256 0.512 0 1.024 0 1.792 0.256l215.808 109.568 2.304 1.024c2.304 0.768 4.608 4.352 4.096 8.448-0.512 3.84-3.328 5.632-5.376 5.888H294.144l-5.376-5.632c-0.768-3.84 1.28-7.424 3.84-8.704z m24.576 63.232h371.2c-2.56 3.84-4.352 8.704-4.352 13.824v186.368c0 12.288 9.216 22.784 21.504 24.32 3.328 0.512 5.888 3.072 5.888 6.144 0 2.048-1.536 3.584-3.584 4.864h-414.72a6.912 6.912 0 0 1-2.048-1.792 6.016 6.016 0 0 1 0-5.888 6.4 6.4 0 0 1 5.632-3.072c13.568 0 24.576-11.008 24.576-24.32v-186.112c0-5.888-1.536-10.496-4.096-14.336z m417.024 298.752H269.824c-2.048-0.256-5.12-3.072-5.12-7.424 0-3.84 2.816-6.912 5.632-7.168h464.896c2.048 0.256 5.12 3.328 5.12 7.424 0.256 3.584-2.816 6.912-6.144 7.168z" p-id="2938"></path></svg>