<?xml version="1.0" standalone="no"?><!DOCTYPE svg PUBLIC "-//W3C//DTD SVG 1.1//EN" "http://www.w3.org/Graphics/SVG/1.1/DTD/svg11.dtd"><svg t="1638766187756" class="icon" viewBox="0 0 1024 1024" version="1.1" xmlns="http://www.w3.org/2000/svg" p-id="2802" xmlns:xlink="http://www.w3.org/1999/xlink" width="200" height="200"><defs><style type="text/css">@font-face { font-weight: 400; font-style: normal; font-family: Circular-Loom; src: url("https://cdn.loom.com/assets/fonts/circular/CircularXXWeb-Book-cd7d2bcec649b1243839a15d5eb8f0a3.woff2") format("woff2"); }
@font-face { font-weight: 500; font-style: normal; font-family: Circular-Loom; src: url("https://cdn.loom.com/assets/fonts/circular/CircularXXWeb-Medium-d74eac43c78bd5852478998ce63dceb3.woff2") format("woff2"); }
@font-face { font-weight: 700; font-style: normal; font-family: Circular-Loom; src: url("https://cdn.loom.com/assets/fonts/circular/CircularXXWeb-Bold-83b8ceaf77f49c7cffa44107561909e4.woff2") format("woff2"); }
@font-face { font-weight: 900; font-style: normal; font-family: Circular-Loom; src: url("https://cdn.loom.com/assets/fonts/circular/CircularXXWeb-Black-bf067ecb8aa777ceb6df7d72226febca.woff2") format("woff2"); }
</style></defs><path d="M514.15424 19.2C243.26784 19.2 20.448 211.44064 20.448 451.74016c0 144.17536 83.01056 275.24992 209.7152 353.89056l0 131.07456c0 17.47456 13.10464 30.58048 26.2144 30.58048 4.36992 0 8.73984 0 13.10592-4.3648l135.44448-91.7504c34.9504 8.73472 69.90464 8.73472 104.85504 8.73472 270.88512 0 493.70624-192.24064 493.70624-428.16512C1007.8592 211.44064 785.03424 19.2 514.15424 19.2zM514.15424 784.38528c-28.28416 0-56.31232-4.01024-84.76544-8.0704l-12.11008-4.03712c-8.0704 0-16.14464 0-24.21376 4.03712l-2.272 1.51424c-5.41312 3.60576-14.26816 9.50784-19.68 13.11616l-40.86528 27.24224c-5.41184 3.60832-9.83936 1.23904-9.83936-5.26464l0-24.78208c0-6.50368 0-17.14688 0-23.65056l0-8.35712c0-12.11136-8.07424-24.21888-16.14464-28.25472l-16.14848-4.03712C187.20512 663.29472 122.62144 562.3808 122.62144 453.40288c0-178.22592 173.568-330.98624 391.5328-330.98624 213.92896 0 391.53152 149.34656 391.53152 330.98624C905.68448 635.03744 728.08192 784.38528 514.15424 784.38528z" p-id="2803"></path><path d="M291.36 403.68c-34.9504 0-61.1648 26.21056-61.1648 61.16608 0 30.58432 26.2144 61.1648 61.1648 61.1648 30.5856 0 61.16992-26.2144 61.16992-61.1648C352.52992 434.26048 326.31552 403.68 291.36 403.68z" p-id="2804"></path><path d="M514.18496 403.68c-34.95552 0-61.16992 26.21056-61.16992 61.16608 0 30.58432 26.2144 61.1648 61.16992 61.1648 30.58048 0 61.1648-26.2144 61.1648-61.1648C575.34976 434.26048 549.13536 403.68 514.18496 403.68z" p-id="2805"></path><path d="M732.63488 403.68c-34.9504 0-61.1648 26.21056-61.1648 61.16608 0 30.58432 26.2144 61.1648 61.1648 61.1648 30.5856 0 61.16992-26.2144 61.16992-61.1648C793.8048 434.26048 767.5904 403.68 732.63488 403.68z" p-id="2806"></path></svg>