<svg width="24" height="24" viewBox="0 0 24 24" version="1.1" xmlns="http://www.w3.org/2000/svg" stroke="none" stroke-width="1" fill="currentColor" stroke-linecap="round" stroke-linejoin="round">
    <path d="M12.0482024,1 C5.98628232,1 1,5.30197824 1,10.6794224 C1,13.9057915 2.85761774,16.8389897 5.69302551,18.598817 L5.69302551,21.5320152 C5.69302551,21.9230625 5.98628232,22.216348 6.2796537,22.216348 C6.37744416,22.216348 6.47523462,22.216348 6.57293915,22.1186721 L9.60392784,20.0654734 C10.386051,20.2609398 11.1682601,20.2609398 11.9503833,20.2609398 C18.0122748,20.2609398 22.9985857,15.9589615 22.9985857,10.6794224 C23.0963762,5.30197824 18.1099793,1 12.0482024,1 Z M12.0000147,18.185835 C11.3498575,18.185835 10.705585,18.0938385 10.051544,18.0006967 L9.77317419,17.9080835 C9.58766299,17.9080835 9.40206352,17.9080835 9.21658175,18.0006967 L9.16435615,18.035434 C9.03992684,18.1181516 8.83637942,18.2535478 8.71197952,18.3363242 L7.77262496,18.9612724 C7.64822507,19.0440488 7.54645136,18.9896965 7.54645136,18.8404994 L7.54645136,18.2719882 C7.54645136,18.1227911 7.54645136,17.8786317 7.54645136,17.7294346 L7.54645136,17.5377188 C7.54645136,17.2598792 7.36085189,16.9821276 7.17534069,16.8895438 L6.80414176,16.7969306 C4.48456035,15.4079674 3,13.0929602 3,10.5929616 C3,6.50438507 6.98974123,3 12.0000147,3 C16.9175179,3 21,6.426072 21,10.5929616 C21,14.7597337 16.9174885,18.185835 12.0000147,18.185835 Z"></path>
    <path d="M7.06249298,9.60392784 C6.2803698,9.60392784 5.69374161,10.1904701 5.69374161,10.9727079 C5.69374161,11.6571265 6.2803698,12.3414592 7.06249298,12.3414592 C7.74694027,12.3414592 8.43135892,11.754831 8.43135892,10.9727079 C8.43135892,10.2882606 7.84473073,9.60392784 7.06249298,9.60392784 Z"></path>
    <path d="M12.0488899,9.60392784 C11.2666521,9.60392784 10.6800239,10.1904701 10.6800239,10.9727079 C10.6800239,11.6571265 11.2666521,12.3414592 12.0488899,12.3414592 C12.7332226,12.3414592 13.4176412,11.754831 13.4176412,10.9727079 C13.4176412,10.2882606 12.831013,9.60392784 12.0488899,9.60392784 Z"></path>
    <path d="M16.9373817,9.60392784 C16.1552585,9.60392784 15.5686304,10.1904701 15.5686304,10.9727079 C15.5686304,11.6571265 16.1552585,12.3414592 16.9373817,12.3414592 C17.621829,12.3414592 18.3062477,11.754831 18.3062477,10.9727079 C18.3062477,10.2882606 17.7196195,9.60392784 16.9373817,9.60392784 Z"></path>
</svg>