<?xml version="1.0" encoding="UTF-8"?>
<svg width="24px" height="24px" viewBox="0 0 24 24" version="1.1" xmlns="http://www.w3.org/2000/svg" xmlns:xlink="http://www.w3.org/1999/xlink">
    <title>news</title>
    <g id="news" stroke="none" stroke-width="1" fill="none" fill-rule="evenodd">
        <path d="M7.59082569,12.2352941 C7.59082569,9.35294118 9.64954128,6.92156863 12.4348624,6.29411765 L12.4348624,5.64705882 C12.4348624,5.19607843 12.6568807,4.78431373 13,4.52941176 C12.5761468,4.33333333 12.1321101,4.17647059 11.6880734,4.05882353 L11.6880734,3.41176471 C11.6880734,2.62745098 11.0422018,2 10.2348624,2 C9.42752294,2 8.78165138,2.62745098 8.78165138,3.41176471 L8.78165138,4.05882353 C5.99633028,4.70588235 3.93761468,7.11764706 3.93761468,10 L3.93761468,15.1764706 L2,17.0588235 L2,18 L6.9853211,18 L7.61100917,17.3921569 L7.61100917,12.2352941 L7.59082569,12.2352941 Z M10.0084034,21.05 C10.394958,21.05 10.7310924,21.0108696 11,20.95 L9,20.95 C9.26890756,21.0152174 9.62184874,21.05 10.0084034,21.05 Z" id="形状" fill="#FFE9B4" fill-rule="nonzero"></path>
        <path d="M20,17.1764706 L20,12 C20,9.11764706 17.875,6.68627451 15,6.05882353 L15,5.41176471 C15,4.62745098 14.3333333,4 13.5,4 C13.1458333,4 12.8333333,4.11764706 12.5833333,4.29411765 C12.2291667,4.54901961 12,4.96078431 12,5.41176471 L12,6.05882353 C9.125,6.70588235 7,9.11764706 7,12 L7,17.1764706 L6.35416667,17.7843137 L5,19.0588235 L5,20 L22,20 L22,19.0588235 L20,17.1764706 L20,17.1764706 Z M14,23 C15.1111111,23 16,22.1111111 16,21 L12,21 C12,22.0888889 12.8888889,23 14,23 L14,23 Z" id="形状" fill="#FFBA00" fill-rule="nonzero"></path>
        <path d="M5.33781248,2.47618252 L4.28567594,2.47618252 L4.28567594,1.41916294 C4.28567594,1.18224476 4.10427308,1 3.86844938,1 C3.63262567,1 3.45122282,1.18224476 3.45122282,1.41916294 L3.45122282,2.47618252 L2.41722656,2.47618252 C2.18140285,2.47618252 2,2.65842728 2,2.89534546 C2,3.13226364 2.18140285,3.3145084 2.41722656,3.3145084 L3.4693631,3.3145084 L3.4693631,4.37152798 C3.4693631,4.60844616 3.65076595,4.79069091 3.88658966,4.79069091 C4.12241337,4.79069091 4.30381622,4.60844616 4.30381622,4.37152798 L4.30381622,3.3145084 L5.35595276,3.3145084 C5.59177647,3.3145084 5.77317932,3.13226364 5.77317932,2.89534546 C5.75503904,2.65842728 5.5554959,2.47618252 5.33781248,2.47618252 Z M23.9995973,8.56550351 C23.9995973,9.29448253 23.4009679,9.65897204 22.9656011,9.9141147 C22.5302342,10.1692574 22.3306911,10.3150532 22.3306911,10.5701958 C22.3306911,10.807114 22.5120939,10.9529098 22.9474608,11.2262769 C23.3828276,11.4996441 23.9633168,11.8641336 23.9633168,12.5931126 C23.9633168,13.3220916 23.3646873,13.6865811 22.9293205,13.9417238 C22.4939537,14.1968665 22.2944105,14.3426623 22.2944105,14.5978049 C22.2944105,14.8347231 22.1130077,15.0169679 21.877184,14.9987434 C21.6413603,14.9987434 21.4599574,14.8164986 21.4780977,14.5795804 C21.4780977,13.8506014 22.0767271,13.4861119 22.5120939,13.2309693 C22.9474608,12.9758266 23.1470039,12.8300308 23.1470039,12.5748881 C23.1470039,12.3379699 22.9656011,12.1921741 22.5302342,11.918807 C22.0948674,11.6454399 21.5143783,11.2809504 21.5143783,10.5519713 C21.5143783,9.82299232 22.1130077,9.45850281 22.5483745,9.20336015 C22.9837414,8.9482175 23.1832845,8.80242169 23.1832845,8.54727903 C23.1832845,8.29213638 23.0018816,8.16456505 22.5665148,7.89119791 C22.131148,7.61783078 21.5506588,7.25334127 21.5506588,6.52436225 C21.5506588,6.28744407 21.7320617,6.10519931 21.9678854,6.12342379 C22.2037091,6.12342379 22.3851119,6.30566854 22.3669717,6.54258672 C22.3669717,6.79772938 22.5483745,6.92530071 22.9837414,7.19866784 C23.4191082,7.4538105 24.0177376,7.81830001 23.9995973,8.56550351 Z" id="形状" fill="#FFC879" fill-rule="nonzero"></path>
        <polygon id="路径" fill="#FFF7EC" fill-rule="nonzero" points="7.46280992 22 9 21.3913043 7 20"></polygon>
        <path d="M18,4 C18,4.35726556 18.1905989,4.68739259 18.5,4.8660254 C18.8094011,5.0446582 19.1905989,5.0446582 19.5,4.8660254 C19.8094011,4.68739259 20,4.35726556 20,4 C20,3.44771524 19.5522847,3 19,3 C18.4477153,3 18,3.44771524 18,4 L18,4 Z" id="路径" fill="#FFF7EC" fill-rule="nonzero"></path>
        <path d="M2,20 C0.909090909,20 0,20.8909091 0,22 C0,23.0909091 0.890909091,24 2,24 C3.10909091,24 4,23.1090909 4,22 C4,20.8909091 3.10909091,20 2,20 Z M2,23.1636364 C1.36363636,23.1636364 0.836363636,22.6363636 0.836363636,22 C0.836363636,21.3636364 1.36363636,20.8363636 2,20.8363636 C2.63636364,20.8363636 3.16363636,21.3636364 3.16363636,22 C3.16363636,22.6363636 2.65454545,23.1636364 2,23.1636364 Z" id="形状" fill="#FFC879" fill-rule="nonzero"></path>
    </g>
</svg>