<?xml version="1.0" encoding="UTF-8"?>
<svg width="24" height="24" viewBox="0 0 24 24" version="1.1" xmlns="http://www.w3.org/2000/svg" xmlns:xlink="http://www.w3.org/1999/xlink">
    <title>note</title>
    <g id="note" stroke="none" stroke-width="1" fill="none" fill-rule="evenodd">
        <path d="M2.75986079,22.1682692 L1.88515081,22.1682692 L1.88515081,21.3317308 C1.88515081,21.1442308 1.73433875,21 1.53828306,21 C1.34222738,21 1.19141531,21.1442308 1.19141531,21.3317308 L1.19141531,22.1682692 L0.346867749,22.1682692 C0.150812065,22.1682692 0,22.3125 0,22.5 C0,22.6875 0.150812065,22.8317308 0.346867749,22.8317308 L1.22157773,22.8317308 L1.22157773,23.6682692 C1.22157773,23.8557692 1.37238979,24 1.56844548,24 C1.76450116,24 1.91531323,23.8557692 1.91531323,23.6682692 L1.91531323,22.8317308 L2.75986079,22.8317308 C2.95591647,22.8317308 3.10672854,22.6875 3.10672854,22.5 C3.10672854,22.3125 2.95591647,22.1682692 2.75986079,22.1682692 Z M21.9791183,23.7403846 C21.3758701,23.7403846 21.0742459,23.2788462 20.8480278,22.9326923 C20.6218097,22.5865385 20.5162413,22.4423077 20.3051044,22.4423077 C20.1090487,22.4423077 19.9883991,22.5865385 19.762181,22.9326923 C19.5510441,23.2788462 19.24942,23.7403846 18.6310905,23.7403846 C18.0278422,23.7403846 17.7262181,23.2788462 17.5,22.9326923 C17.2737819,22.5865385 17.1682135,22.4423077 16.9570766,22.4423077 C16.7610209,22.4423077 16.6102088,22.2980769 16.6102088,22.1105769 C16.6102088,21.9230769 16.7610209,21.7788462 16.9570766,21.7788462 C17.5603248,21.7788462 17.861949,22.2403846 18.0881671,22.5865385 C18.3143852,22.9326923 18.4199536,23.0769231 18.6310905,23.0769231 C18.8271462,23.0769231 18.9477958,22.9326923 19.1740139,22.5865385 C19.3851508,22.2403846 19.6867749,21.7788462 20.3051044,21.7788462 C20.9083527,21.7788462 21.2099768,22.2403846 21.4361949,22.5865385 C21.662413,22.9326923 21.7679814,23.0769231 21.9791183,23.0769231 C22.1902552,23.0769231 22.2958237,22.9182692 22.5220418,22.5865385 C22.7331787,22.2403846 23.0348028,21.7788462 23.6531323,21.7788462 C23.8491879,21.7788462 24,21.9230769 24,22.1105769 C24,22.2980769 23.8491879,22.4423077 23.6531323,22.4423077 C23.4419954,22.4423077 23.3364269,22.5865385 23.1102088,22.9326923 C22.8839907,23.2644231 22.5823666,23.7403846 21.9791183,23.7403846 Z" id="形状" fill="#FFC879" fill-rule="nonzero"></path>
        <path d="M18.4281571,5.18106139 L16.809456,3.566077 C16.4757032,3.23309053 15.9750739,3 15.4911324,3 C15.0071908,3 14.5065615,3.18314256 14.1728087,3.566077 L3.84315908,13.8387097 C3.8097838,13.8720083 3.8097838,13.9219563 3.75972088,13.9552549 L3.75972088,14.0218522 L3.00877704,18.5504683 C2.97540176,18.6670135 3.04215232,18.7835588 3.12559053,18.8834547 C3.20902873,18.9667014 3.27577929,19 3.39259278,19 L3.47603098,19 L8.01506928,18.2507804 L8.08181984,18.2507804 C8.11519512,18.2507804 8.16525805,18.2174818 8.19863333,18.1675338 L18.4949077,7.89490114 C19.179101,7.14568158 19.179101,5.93028096 18.4281571,5.18106139 L18.4281571,5.18106139 Z M5.35911602,18 L4,16.6483516 L4.26519337,15 L7,17.7197802 L5.35911602,18 L5.35911602,18 Z M12.9025271,9.55923031 L7.55956679,14.8989778 C7.48736462,14.9711365 7.40072202,15 7.32851986,15 C7.22743682,15 7.16967509,14.9711365 7.09747292,14.8989778 C6.96750903,14.769092 6.96750903,14.5670475 7.09747292,14.4371618 L12.4404332,9.09741431 C12.5703971,8.96752856 12.7725632,8.96752856 12.9025271,9.09741431 C13.032491,9.22730006 13.032491,9.42934456 12.9025271,9.55923031 Z M16.0708661,9 L13,5.92913386 L13.9291339,5 L17,8.07086614 L16.0708661,9 L16.0708661,9 Z" id="形状" fill="#FFE9B4" fill-rule="nonzero"></path>
        <path d="M21.4281571,7.18106139 L19.809456,5.566077 C19.4757032,5.23309053 18.9750739,5 18.4911324,5 C18.0071908,5 17.5065615,5.18314256 17.1728087,5.566077 L6.84315908,15.8387097 C6.8097838,15.8720083 6.8097838,15.9219563 6.75972088,15.9552549 L6.75972088,16.0218522 L6.00877704,20.5504683 C5.97540176,20.6670135 6.04215232,20.7835588 6.12559053,20.8834547 C6.20902873,20.9667014 6.27577929,21 6.39259278,21 L6.47603098,21 L11.0150693,20.2507804 L11.0818198,20.2507804 C11.1151951,20.2507804 11.165258,20.2174818 11.1986333,20.1675338 L21.4949077,9.89490114 C22.179101,9.14568158 22.179101,7.94693028 21.4281571,7.18106139 L21.4281571,7.18106139 Z M8.35911602,20 L7,18.6483516 L7.26519337,17 L10,19.7197802 L8.35911602,20 L8.35911602,20 Z M15.8971348,11.5592303 L10.5590556,16.8989778 C10.4869194,16.9711365 10.4003559,17 10.3282197,17 C10.227229,17 10.1695201,16.9711365 10.0973839,16.8989778 C9.96753871,16.769092 9.96753871,16.5670475 10.0973839,16.4371618 L15.4354631,11.0974143 C15.5653083,10.9675286 15.7672896,10.9675286 15.8971348,11.0974143 C16.02698,11.2273001 16.0414072,11.4293446 15.8971348,11.5592303 Z M19.0708661,11 L16,7.92913386 L16.9291339,7 L20,10.0708661 L19.0708661,11 Z" id="形状" fill="#FFBA00" fill-rule="nonzero"></path>
        <path d="M20.4901961,1 L23,1 L23,2.84172662 L20.4901961,2.84172662 L20.4901961,1 Z M20,12.9136691 L21.8823529,13 L20.1176471,11.5323741 L20,12.9136691 Z" id="形状" fill="#FFF7EC" fill-rule="nonzero"></path>
        <path d="M6,2 C6,2.55228475 6.44771525,3 7,3 C7.55228475,3 8,2.55228475 8,2 C8,1.44771525 7.55228475,1 7,1 C6.44771525,1 6,1.44771525 6,2 Z" id="路径" fill="#FFF7EC" fill-rule="nonzero"></path>
        <path d="M6.67910868,5 L3.31622966,5 C3.19269533,5 3.08288703,5.10650888 3.02798289,5.24852071 C2.97307874,5.39053254 3.00053081,5.56804734 3.09661307,5.69230769 L4.7849156,7.87573964 C4.83981975,7.94674556 4.92217597,8 5.00453219,8 C5.08688841,8 5.16924463,7.96449704 5.22414878,7.87573964 L6.91245131,5.69230769 C6.99480753,5.58579882 7.0222596,5.40828402 6.98108149,5.24852071 C6.92617735,5.10650888 6.81636905,5 6.67910868,5 L6.67910868,5 Z M4.99080615,7.02366864 L4.05743565,5.81656805 L5.92417666,5.81656805 L4.99080615,7.02366864 Z" id="形状" fill="#000000" fill-rule="nonzero"></path>
    </g>
</svg>