<?xml version="1.0" encoding="UTF-8"?>
<svg width="24" height="24" viewBox="0 0 24 24" version="1.1" xmlns="http://www.w3.org/2000/svg" xmlns:xlink="http://www.w3.org/1999/xlink">
    <title>order</title>
    <g id="order" stroke="none" stroke-width="1" fill="none" fill-rule="evenodd">
        <path d="M18.9823594,8.88842975 L18.9823594,5.62947658 C18.9823594,4.73415978 18.2590959,4 17.3770673,4 L4.5876516,4 C3.70562293,4 3,4.73415978 3,5.62947658 L3,8.87052342 C3.88202867,8.87052342 4.5876516,9.6046832 4.5876516,10.5 C4.5876516,11.3953168 3.86438809,12.1294766 3,12.1294766 L3,15.3705234 C3,16.2658402 3.72326351,17 4.60529217,17 L17.3947078,17 C18.2767365,17 19,16.2658402 19,15.3705234 L19,12.1294766 C18.1179713,12.1294766 17.3947078,11.3953168 17.3947078,10.5 C17.3770673,9.6046832 18.1003308,8.88842975 18.9823594,8.88842975 L18.9823594,8.88842975 Z M11,15 L10,15 L10,14 L11,14 L11,15 Z M11,10 L10,10 L10,9 L11,9 L11,10 Z M11,7 L10,7 L10,6 L11,6 L11,7 Z" id="形状" fill="#FFCB99" fill-rule="nonzero"></path>
        <path d="M21.9823594,11.8705234 L21.9823594,8.62947658 C21.9823594,7.73415978 21.2590959,7 20.3770673,7 L7.5876516,7 C6.70562293,7 6,7.73415978 6,8.62947658 L6,11.8705234 C6.88202867,11.8705234 7.5876516,12.6046832 7.5876516,13.5 C7.5876516,14.3953168 6.86438809,15.1294766 6,15.1294766 L6,18.3705234 C6,19.2658402 6.72326351,20 7.60529217,20 L20.3947078,20 C21.2767365,20 22,19.2658402 22,18.3705234 L22,15.1294766 C21.1179713,15.1294766 20.3947078,14.3953168 20.3947078,13.5 C20.3947078,12.6046832 21.1003308,11.8705234 21.9823594,11.8705234 Z M14,18 L13,18 L13,17 L14,17 L14,18 Z M14,15 L13,15 L13,14 L14,14 L14,15 Z M14,10 L13,10 L13,9 L14,9 L14,10 Z" id="形状" fill="#FF7E00" fill-rule="nonzero"></path>
        <path d="M3.65550239,2.16826923 L2.82296651,2.16826923 L2.82296651,1.33173077 C2.82296651,1.14423077 2.67942584,1 2.49282297,1 C2.3062201,1 2.16267943,1.14423077 2.16267943,1.33173077 L2.16267943,2.16826923 L1.33014354,2.16826923 C1.14354067,2.16826923 1,2.3125 1,2.5 C1,2.6875 1.14354067,2.83173077 1.33014354,2.83173077 L2.17703349,2.83173077 L2.17703349,3.66826923 C2.17703349,3.85576923 2.32057416,4 2.50717703,4 C2.6937799,4 2.83732057,3.85576923 2.83732057,3.66826923 L2.83732057,2.83173077 L3.66985646,2.83173077 C3.85645933,2.83173077 4,2.6875 4,2.5 C4,2.3125 3.8277512,2.16826923 3.65550239,2.16826923 L3.65550239,2.16826923 Z" id="路径" fill="#FFC879" fill-rule="nonzero"></path>
        <polygon id="形状" fill="#FFF7EC" fill-rule="nonzero" points="2 20.6715586 3.26908002 19.3434106 4.53830027 20.6715586 3.26922025 22"></polygon>
        <path d="M19,5 C19,5.35726558 19.1905989,5.6873926 19.5,5.8660254 C19.8094011,6.0446582 20.1905989,6.0446582 20.5,5.8660254 C20.8094011,5.6873926 21,5.35726558 21,5 C21,4.64273442 20.8094011,4.3126074 20.5,4.1339746 C20.1905989,3.9553418 19.8094011,3.9553418 19.5,4.1339746 C19.1905989,4.3126074 19,4.64273442 19,5 L19,5 Z" id="路径" fill="#FFF7EC" fill-rule="nonzero"></path>
        <path d="M23.2196698,1.34872218 L21.8269921,0.0692497939 C21.7264896,-0.0230832646 21.5685571,-0.0230832646 21.4680546,0.0692497939 L20.0753769,1.34872218 C19.9748744,1.44105523 19.9748744,1.58615004 20.0753769,1.6784831 L21.4680546,2.95795548 C21.5685571,3.05028854 21.7264896,3.05028854 21.8269921,2.95795548 L23.2196698,1.6784831 C23.3201723,1.58615004 23.3201723,1.44105523 23.2196698,1.34872218 Z M21.6259871,2.45671888 L20.5922469,1.50700742 L21.6259871,0.55729596 L22.6597272,1.50700742 L21.6259871,2.45671888 Z M20.4206748,20.0981039 C19.5592247,20.0981039 18.8413496,20.7444353 18.8413496,21.5490519 C18.8413496,22.3404782 19.5448672,23 20.4206748,23 C21.2964824,23 22,22.3536686 22,21.5490519 C21.9856425,20.7444353 21.2821249,20.0981039 20.4206748,20.0981039 Z M20.4206748,22.3932399 C19.9181622,22.3932399 19.5017947,22.0107172 19.5017947,21.5490519 C19.5017947,21.0873866 19.9181622,20.704864 20.4206748,20.704864 C20.9231874,20.704864 21.3395549,21.0873866 21.3395549,21.5490519 C21.3395549,22.0107172 20.9231874,22.3932399 20.4206748,22.3932399 Z" id="形状" fill="#FFC879" fill-rule="nonzero"></path>
        <polygon id="路径" fill="#FFF7EC" fill-rule="nonzero" points="10.0464371 3.99794541 11 3 9.09287422 3"></polygon>
    </g>
</svg>