<svg t="1640331050566" class="icon" viewBox="0 0 1024 1024" version="1.1" xmlns="http://www.w3.org/2000/svg" p-id="4829" width="200" height="200"><path d="M96.93 106.24m138.36 0l553.42 0q138.36 0 138.36 138.36l0 553.42q0 138.36-138.36 138.36l-553.42 0q-138.36 0-138.36-138.36l0-553.42q0-138.36 138.36-138.36Z" fill="#CAEFFF" p-id="4830"></path><path d="M693.45 377c0 4.65-1.55 6.2-1.55 10.85-23.19 116.37-97.42 153.61-193.3 153.61h-49.49c-12.37 0-20.1 7.76-23.19 20.17L401.17 723 395 769.56c-1.55 6.2 4.64 12.41 10.82 14h89.7c10.82 0 18.55-7.76 20.1-18.62v-4.65l17-105.51 1.55-6.2c1.54-10.86 10.82-18.62 20.1-18.62h12.37c85.06 0 148.46-35.69 170.11-135 7.73-41.89 4.64-77.57-17-100.85-9.28-6.2-15.47-12.41-26.29-17.06z" fill="#179BD7" p-id="4831"></path><path d="M670.25 367.71c-4.64 0-6.18-1.55-10.82-1.55s-7.73-1.56-10.83-1.56c-13.91-1.55-29.38-4.65-43.3-4.65H475.4c-10.82 0-18.55 7.76-20.1 18.62L429 557v4.66c1.55-12.41 12.37-20.17 23.19-20.17h49.49c95.88 0 171.66-38.79 193.31-153.6 0-4.66 1.54-6.21 1.54-10.86-6.18-1.56-12.37-6.21-18.55-7.76l-7.74-1.55z" fill="#222D65" p-id="4832"></path><path d="M455.3 380.12c1.55-10.86 10.82-18.62 20.1-18.62h129.9c13.92 0 29.38 0 43.3 4.66 4.64 0 7.74 1.55 10.83 1.55 4.64 0 6.18 1.55 10.82 1.55l4.64 1.55c6.19 1.55 12.37 4.65 18.56 7.76 6.18-41.89 0-71.37-23.2-96.2-24.74-29.48-71.13-41.89-128.35-41.89h-167c-12.37 0-20.11 7.76-23.2 20.17l-68 443.74c-1.55 7.76 4.64 14 12.37 17.07h105.1L427.46 557c1.54 0 27.84-176.88 27.84-176.88z" fill="#253B80" p-id="4833"></path></svg>