<?xml version="1.0" standalone="no"?><!DOCTYPE svg PUBLIC "-//W3C//DTD SVG 1.1//EN" "http://www.w3.org/Graphics/SVG/1.1/DTD/svg11.dtd"><svg t="1638877831843" class="icon" viewBox="0 0 1024 1024" version="1.1" xmlns="http://www.w3.org/2000/svg" p-id="2588" xmlns:xlink="http://www.w3.org/1999/xlink" width="200" height="200"><defs><style type="text/css">@font-face { font-weight: 400; font-style: normal; font-family: Circular-Loom; src: url("https://cdn.loom.com/assets/fonts/circular/CircularXXWeb-Book-cd7d2bcec649b1243839a15d5eb8f0a3.woff2") format("woff2"); }
@font-face { font-weight: 500; font-style: normal; font-family: Circular-Loom; src: url("https://cdn.loom.com/assets/fonts/circular/CircularXXWeb-Medium-d74eac43c78bd5852478998ce63dceb3.woff2") format("woff2"); }
@font-face { font-weight: 700; font-style: normal; font-family: Circular-Loom; src: url("https://cdn.loom.com/assets/fonts/circular/CircularXXWeb-Bold-83b8ceaf77f49c7cffa44107561909e4.woff2") format("woff2"); }
@font-face { font-weight: 900; font-style: normal; font-family: Circular-Loom; src: url("https://cdn.loom.com/assets/fonts/circular/CircularXXWeb-Black-bf067ecb8aa777ceb6df7d72226febca.woff2") format("woff2"); }
</style></defs><path d="M425.098 722.609c0 24.92 20.178 45.103 45.018 45.103H917.42c24.911 0 45.083-20.189 45.083-45.103 0-24.854-20.178-45.103-45.083-45.103H470.116c-24.84 0-45.018 20.249-45.018 45.103zM932.733 870.681H111.39c-24.583 0-44.571 19.993-44.571 44.656 0 24.604 19.988 44.663 44.571 44.663h806.47c37.462 0 64.147-46.309 26.316-84.508-2.604-2.631-7.74-4.811-11.443-4.811zM95.571 767.041l157.741-42.266c18.579-4.978 24.801-28.202 11.201-41.802L149.038 567.499c-13.601-13.601-36.824-7.378-41.802 11.201L64.97 736.44c-4.979 18.579 12.022 35.58 30.601 30.601zM308.01 649.707c7 7 18.455 7 25.456 0l265.043-265.043c7.001-7 7.001-18.456 0-25.456L474.03 234.728c-7-7-18.456-7-25.456 0L183.53 499.772c-7 7-7 18.456 0 25.456l124.48 124.479zM645.128 312.589c7.001 7 18.456 7 25.456 0l93.408-93.408c7-7 7-18.456 0-25.456L639.513 69.246c-7.001-7-18.456-7-25.456 0l-93.408 93.408c-7 7-7 18.456 0 25.456l124.479 124.479z" p-id="2589"></path></svg>