<svg width="24" height="24" viewBox="0 0 24 24" version="1.1" xmlns="http://www.w3.org/2000/svg" stroke="none" stroke-width="1" fill="currentColor" stroke-linecap="round" stroke-linejoin="round">
    <path d="M12.2475,13.10625 C13.74625,12.11625 14.75,10.425 14.75,8.5 C14.75,5.46125 12.28875,3 9.25,3 C6.21125,3 3.75,5.46125 3.75,8.5 C3.75,10.425 4.75375,12.11625 6.2525,13.10625 C3.18625,14.11 1,16.695 1,20.1875 C1,20.5725 1.3025,20.875 1.6875,20.875 C2.0725,20.875 2.375,20.5725 2.375,20.1875 C2.375,16.3925 5.455,14 9.25,14 C13.045,14 16.125,16.3925 16.125,20.1875 C16.125,20.5725 16.4275,20.875 16.8125,20.875 C17.1975,20.875 17.5,20.5725 17.5,20.1875 C17.5,16.695 15.31375,14.11 12.2475,13.10625 Z M9.25,12.625 C6.98125,12.625 5.125,10.76875 5.125,8.5 C5.125,6.23125 6.98125,4.375 9.25,4.375 C11.51875,4.375 13.375,6.23125 13.375,8.5 C13.375,10.76875 11.51875,12.625 9.25,12.625 Z M18.28375,13.18875 C19.865,12.2125 20.9375,10.49375 20.9375,8.5 C20.9375,5.46125 18.47625,3 15.4375,3 C15.0525,3 14.75,3.3025 14.75,3.6875 C14.75,4.0725 15.0525,4.375 15.4375,4.375 C17.70625,4.375 19.5625,6.23125 19.5625,8.5 C19.5625,10.02625 18.7375,11.34625 17.5,12.06125 C16.29,12.80375 15.96,13.84875 17.5,14.4125 C19.8925,15.265 21.625,17.50625 21.625,20.20125 C21.625,20.58625 21.9275,20.88875 22.3125,20.88875 C22.6975,20.88875 23,20.58625 23,20.20125 C23,17.025 21.0475,14.31625 18.28375,13.18875 Z"></path>
</svg>