<svg t="1639477617088" viewBox="0 0 1024 1024" version="1.1" xmlns="http://www.w3.org/2000/svg" p-id="20645" width="200" height="200"><path d="M806.912 561.664c0-17.408 13.824-31.232 31.232-31.232 17.408 0 31.232 13.824 31.232 31.232v116.224c0 62.976-48.128 110.592-110.592 110.592h-143.872l-95.744 95.744c-11.264 11.264-25.6 14.848-40.448 14.848-14.848 0-29.696-3.584-40.448-14.848L341.504 788.48H197.632c-62.976 0-110.592-48.128-110.592-110.592V308.736c0-62.976 48.128-110.592 110.592-110.592h304.64c15.36 0 27.648 12.288 27.648 27.648 0 15.36-12.288 27.648-27.648 27.648H197.632c-29.696 0-55.296 25.6-55.296 55.296v369.152c0 29.696 25.6 55.296 55.296 55.296H363.52l110.592 110.592 110.592-110.592h165.888c29.696 0 55.296-25.6 55.296-55.296v-116.224zM860.16 261.12l-61.44-61.44-303.104 303.104 4.608 57.344 57.344 4.608L860.16 261.12z m-88.064-127.488c4.608-4.608 17.408-8.704 26.112-8.704 13.312 0 26.624 4.608 39.424 17.408l79.36 79.36c22.016 22.016 26.112 52.736 8.704 70.144L604.16 613.376c-13.312 13.312-31.744 19.456-50.688 17.408l-111.104-13.824-13.824-111.104c-2.56-18.944 4.096-37.376 17.408-50.688l326.144-321.536z" p-id="20646"></path></svg>