<svg width="24" height="24" viewBox="0 0 24 24" version="1.1"
    xmlns="http://www.w3.org/2000/svg" stroke="none" stroke-width="1" fill="currentColor" stroke-linecap="round" stroke-linejoin="round">
    <path d="M13.3314369,9.37515633 L5.27065932,9.37515633 C4.75734584,9.37515633 4.34070165,9.79513564 4.34070165,10.3124218 C4.34070165,10.8305663 4.75734584,11.2497119 5.27065932,11.2497119 L13.3314369,11.2497119 C13.8449466,11.2497119 14.2618115,10.8303701 14.2618115,10.3124464 C14.2618115,9.79513564 13.8449711,9.37513181 13.3314124,9.37513181 L13.3314369,9.37515633 Z M13.3314369,13.7503862 L5.27065932,13.7503862 C4.75734584,13.7503862 4.34070165,14.1703901 4.34070165,14.6880931 C4.34070165,15.2054039 4.75734584,15.6253832 5.27065932,15.6253832 L13.3314369,15.6253832 C13.8449466,15.6253832 14.2618115,15.2054039 14.2618115,14.6881177 C14.2618115,14.1703901 13.8449711,13.7503862 13.3314124,13.7503862 L13.3314369,13.7503862 Z M17.9109181,2.46239412 C18.3950763,1.97247859 18.3950763,1.18425712 17.9109181,0.694341584 C17.6792704,0.460109298 17.3635335,0.328299508 17.0341016,0.328299508 C16.7046696,0.328299508 16.3889327,0.460109298 16.157285,0.694341584 L12.6724819,4.20616898 L14.4263111,5.97378011 L17.9109181,2.46239412 Z M5.27065932,6.87509503 L8.37086973,6.87509503 C8.8843794,6.87509503 9.30126882,6.4550912 9.30126882,5.93738811 C9.30126882,5.42007739 8.8843794,4.99987739 8.37086973,4.99987739 L5.27065932,4.99987739 C4.75734584,4.99987739 4.34070165,5.42007739 4.34070165,5.93738811 C4.34070165,6.4550912 4.75734584,6.87509503 5.27065932,6.87509503 L5.27065932,6.87509503 Z M13.6011643,6.80581781 L13.9878906,6.41597716 L12.2342575,4.64834152 L11.8475313,5.03798598 C11.363041,5.52776506 11.363041,6.31625944 11.8475313,6.80603852 C12.0792346,7.04019276 12.3949783,7.17192892 12.7243939,7.17188747 C13.0538094,7.171846 13.36952,7.04003037 13.6011643,6.80581781 Z"></path>
    <path d="M16.7419847,6.24980995 L16.7419847,16.875095 C16.7419847,17.5646056 16.1868106,18.1252238 15.5019103,18.1252238 L3.10040659,18.1252238 C2.4154818,18.1252238 1.86030771,17.5646301 1.86030771,16.875095 L1.86030771,3.12490497 C1.86030771,2.4345361 2.4154818,1.87497241 3.10040659,1.87497241 L12.4014547,1.87497241 L12.4014547,0 L1.86033224,0 C0.832650779,0 0,0.839345533 0,1.87497241 L0,18.1252238 C0,19.1604583 0.832650779,20 1.86033224,20 L16.741813,20 C17.7694945,20 18.6021207,19.1604583 18.6021207,18.1252238 L18.6021207,6.24980995 L16.7420092,6.24980995 L16.7419847,6.24980995 Z"></path>
</svg>