<?xml version="1.0" encoding="UTF-8"?>
<svg width="24" height="24" viewBox="0 0 24 24" version="1.1" xmlns="http://www.w3.org/2000/svg" xmlns:xlink="http://www.w3.org/1999/xlink">
    <title>report</title>
    <g id="report" stroke="none" stroke-width="1" fill="none" fill-rule="evenodd">
        <path d="M12.1115702,3 L5.61157025,3 C4.71625344,3 4,3.72326351 4,4.60529217 L4,17.3947078 C4,18.2767365 4.71625344,19 5.61157025,19 L15.3705234,19 C16.2658402,19 17,18.2767365 17,17.3947078 L17,7.79823594 L12.1115702,3 Z M13,16 L7,16 L7,14 L13,14 L13,16 Z M13,13 L7,13 L7,11 L13,11 L13,13 Z M11,8 L11,4 L15,8 L11,8 Z" id="形状" fill="#99E998" fill-rule="nonzero"></path>
        <path d="M15.1115702,5 L8.61157025,5 C7.71625344,5 7,5.72326351 7,6.60529217 L7,19.3947078 C7,20.2767365 7.71625344,21 8.61157025,21 L18.3705234,21 C19.2658402,21 20,20.2767365 20,19.3947078 L20,9.79823594 L15.1115702,5 Z M17,18 L11,18 L11,16 L17,16 L17,18 Z M17,15 L11,15 L11,13 L17,13 L17,15 Z M14,10 L14,6 L18,10 L14,10 Z" id="形状" fill="#01C700" fill-rule="nonzero"></path>
        <path d="M21.5384615,2.55769231 L20.4423077,2.55769231 L20.4423077,1.44230769 C20.4423077,1.19230769 20.25,1 20,1 C19.75,1 19.5576923,1.19230769 19.5576923,1.44230769 L19.5576923,2.55769231 L18.4423077,2.55769231 C18.1923077,2.55769231 18,2.75 18,3 C18,3.25 18.1923077,3.44230769 18.4423077,3.44230769 L19.5576923,3.44230769 L19.5576923,4.55769231 C19.5576923,4.80769231 19.75,5 20,5 C20.25,5 20.4423077,4.80769231 20.4423077,4.55769231 L20.4423077,3.44230769 L21.5576923,3.44230769 C21.8076923,3.44230769 22,3.25 22,3 C22,2.75 21.7884615,2.55769231 21.5384615,2.55769231 Z" id="路径" fill="#BEEEB9" fill-rule="nonzero"></path>
        <path d="M20.8306604,15.6202506 L22.4151551,14 L24,15.6202506 L22.4153302,17.2405013 L20.8306604,15.6202506 Z M20.1905596,23 L21.3811191,21.7825741 L19,21.7825741 L20.1905596,23 Z" id="形状" fill="#EAF9E8" fill-rule="nonzero"></path>
        <path d="M1,3 C1,3.35726558 1.19059891,3.6873926 1.5,3.8660254 C1.80940107,4.0446582 2.19059893,4.0446582 2.5,3.8660254 C2.80940109,3.6873926 3,3.35726558 3,3 C3,2.44771524 2.55228475,2 2,2 C1.44771525,2 1,2.44771524 1,3 L1,3 Z" id="路径" fill="#EAF9E8" fill-rule="nonzero"></path>
        <path d="M3.88370238,21.2888996 L0.711100436,18.1162976 C0.601700369,18.0068976 0.419366924,17.9704309 0.255266823,18.0251309 C0.109400067,18.0980643 0,18.243931 0,18.4080311 L0,21.5806331 C0,21.6900331 0.0547000335,21.7994332 0.127633412,21.8723666 C0.20056679,21.9453 0.309966857,22 0.419366924,22 L3.59196887,22 C3.75606897,22 3.90193572,21.8905999 3.9748691,21.7447332 C4.02956913,21.5988664 3.99310245,21.416533 3.88370238,21.2888996 L3.88370238,21.2888996 Z M0.820500503,21.1794995 L0.820500503,19.4290984 L2.57090157,21.1794995 L0.820500503,21.1794995 Z" id="形状" fill="#BEEEB9" fill-rule="nonzero"></path>
    </g>
</svg>