<svg t="1640075165006" class="icon" viewBox="0 0 1077 1024" version="1.1" xmlns="http://www.w3.org/2000/svg" p-id="12729" width="200" height="200"><path d="M647.275789 585.377684c0.808421-25.680842 2.694737-39.262316 5.928422-53.867789 4.581053-20.749474 11.910737-39.154526 22.851368-57.397895 10.940632-18.216421 22.474105-33.091368 59.823158-72.542316l192.188631-202.805895A53.894737 53.894737 0 0 0 888.939789 107.789474H188.577684a53.894737 53.894737 0 0 0-39.100631 91.001263l192.350315 202.64421c37.456842 39.450947 48.963368 54.298947 59.957895 72.569264 10.967579 18.243368 18.324211 36.648421 22.905263 57.424842 4.608 20.803368 6.467368 39.504842 6.467369 93.911579V970.105263a53.894737 53.894737 0 1 1-107.789474 0V603.755789c0-27.162947-0.916211-36.513684-3.233684-46.888421a93.615158 93.615158 0 0 0-11.425684-28.698947c-5.470316-9.135158-11.237053-16.545684-29.911579-36.271158L68.096 269.473684A159.663158 159.663158 0 0 1 184.050526 0h709.658948a159.690105 159.690105 0 0 1 115.954526 269.473684l-210.566737 222.423579c-18.674526 19.725474-24.414316 27.136-29.911579 36.271158-5.443368 9.108211-9.108211 18.324211-11.398737 28.672-1.967158 8.865684-2.937263 16.976842-3.179789 36.001684H754.526316a53.894737 53.894737 0 1 1-107.250527-7.464421zM700.631579 727.578947h269.473684a53.894737 53.894737 0 1 1 0 107.789474H700.631579a53.894737 53.894737 0 1 1 0-107.789474z m0 161.684211h161.68421a53.894737 53.894737 0 1 1 0 107.789474h-161.68421a53.894737 53.894737 0 1 1 0-107.789474z" p-id="12730"></path></svg>