<svg width="24" height="24" viewBox="0 0 24 24" version="1.1" xmlns="http://www.w3.org/2000/svg" stroke="none" stroke-width="1" fill="currentColor" stroke-linecap="round" stroke-linejoin="round">
    <path d="M10.1017013,2.02057508 C10.4704979,1.94662137 10.8507349,2.07503033 11.0991808,2.35743155 C11.3476267,2.63983276 11.4265366,3.03332277 11.3061859,3.38967768 C11.1858353,3.7460326 10.8845081,4.01111363 10.5157116,4.08506732 C6.81211955,4.82756453 4.10505228,8.09205226 4.10505228,11.9115379 C4.10505228,16.3205213 7.68314117,19.8950079 12.0982509,19.8950079 C15.8913451,19.8950079 19.1399258,17.2360179 19.9174451,13.5790316 C19.9955989,13.2111388 20.2640901,12.9128851 20.6217807,12.7966199 C20.9794713,12.6803547 21.3720195,12.7637414 21.6515563,13.0153691 C21.931093,13.2669968 22.0551501,13.6486371 21.9769963,14.01653 C20.9939719,18.6415126 16.8903699,22 12.0987509,22 C6.52161232,22 2,17.483517 2,11.9115379 C2,7.08355605 5.42008496,2.96007154 10.1017013,2.02057508 Z M20.122751,2.0004458 C20.6205101,2.00032755 21.0979294,2.19794537 21.4499818,2.54982558 C21.8020343,2.90170578 21.9998818,3.37902418 22,3.87677617 L22,9.03902509 C22,9.37431079 21.8212,9.68414805 21.5308379,9.85180473 C21.2404758,10.0194614 20.882721,10.0194614 20.5923589,9.85180473 C20.3019967,9.68414805 20.1231489,9.37431079 20.1231968,9.03902509 L20.1231968,4.96896181 L12.6124175,12.7145642 C12.2723435,13.065568 11.7197975,13.0967925 11.3423432,12.7863364 L11.2852813,12.7350705 C11.1065393,12.5618215 11.0039581,12.3246538 11.0001121,12.0757599 C10.9962662,11.826866 11.0914709,11.5866421 11.2647746,11.4079535 L18.567367,3.87677617 L14.9608734,3.87677617 C14.4686554,3.87687505 14.0600095,3.49664527 14.0247007,3.00570239 L14.0224718,2.93883386 C14.0224718,2.42038001 14.4428579,2 14.9608734,2 L20.122751,2.0004458 Z"></path>
</svg>