<svg t="1640334192859" class="icon" viewBox="0 0 1024 1024" version="1.1" xmlns="http://www.w3.org/2000/svg" p-id="6042" width="200" height="200"><path d="M687.253333 90.666667c131.797333 0 245.546667 94.72 278.976 227.349333 6.464 25.664 9.770667 52.224 9.770667 79.210667 0 60.416-15.936 113.002667-45.056 165.973333a37.333333 37.333333 0 1 1-65.429333-35.989333c23.488-42.709333 35.818667-83.413333 35.818666-129.984 0-20.821333-2.56-41.258667-7.509333-60.949334-25.301333-100.373333-110.016-170.944-206.570667-170.944-55.424 0-108.16 22.997333-148.330666 64.789334a37.333333 37.333333 0 0 1-53.76 0.042666c-39.850667-41.28-93.802667-64.832-148.416-64.832-117.418667 0-214.08 103.509333-214.08 231.893334 0 62.997333 17.749333 104.704 63.488 175.189333 36.309333 56.362667 99.562667 123.456 178.837333 194.218667 22.826667 20.352 45.781333 39.978667 68.224 58.453333l21.376 17.386667 16.832 13.376 16.128 12.522666 2.453333 1.877334c6.464 4.992 13.930667 7.552 21.973334 7.552 8.106667 0 15.573333-2.56 22.336-7.829334l15.786666-12.266666 16.746667-13.354667 19.562667-15.936a37.333333 37.333333 0 0 1 47.466666 57.642667l-20.266666 16.512-24.725334 19.626666-9.088 6.997334A109.973333 109.973333 0 0 1 512 952.448a109.717333 109.717333 0 0 1-62.805333-19.584l-7.04-5.226667-16.789334-13.013333-22.336-17.834667a2351.722667 2351.722667 0 0 1-87.744-74.453333c-83.882667-74.88-151.104-146.176-191.808-209.386667C70.528 531.413333 48 478.464 48 397.226667c0-168.533333 128.896-306.56 288.746667-306.56 62.186667 0 123.093333 21.909333 172.672 61.013333l2.496 2.005333 2.709333-2.176c47.488-37.674667 104.746667-59.008 164.778667-60.736l7.850666-0.106666z" p-id="6043"></path><path d="M874.666667 688a37.333333 37.333333 0 0 1 3.072 74.538667L874.666667 762.666667H661.333333a37.333333 37.333333 0 0 1-3.072-74.538667L661.333333 688h213.333334z" p-id="6044"></path><path d="M768 581.333333a37.333333 37.333333 0 0 1 37.205333 34.261334l0.128 3.072v213.333333a37.333333 37.333333 0 0 1-74.538666 3.072L730.666667 832V618.666667c0-20.608 16.725333-37.333333 37.333333-37.333334z" p-id="6045"></path></svg>