<svg t="1639466078705" viewBox="0 0 1024 1024" version="1.1" xmlns="http://www.w3.org/2000/svg" p-id="19401" width="200" height="200"><path d="M650.752 280.06400001l46.592 69.632h-69.632l-46.592-69.632h-46.592l46.592 69.632H511.488l-46.592-69.632h-46.592l46.592 69.632H395.776l-46.592-69.632h-23.04c-25.6 0-46.08 20.992-46.08 46.592v278.528c0 25.6 20.992 46.592 46.592 46.592h371.2c25.6 0 46.592-20.992 46.592-46.592V280.06400001h-93.696z m-33.792 186.88l-49.152 48.128 11.776 67.584c0.512 3.584-3.584 6.656-6.656 5.12l-61.44-32.256-60.928 31.744c-3.584 2.048-7.68-1.024-6.656-5.12L455.68 514.56000001l-49.152-48.128c-2.56-2.56-1.024-7.168 2.56-8.192l68.096-9.728 30.208-61.44c1.536-3.584 6.656-3.584 8.192 0l30.208 61.44 68.096 9.728c4.096 1.536 5.632 6.144 3.072 8.704z" fill="#DCCBFF" p-id="19402"></path><path d="M743.936 338.43200001l46.592 69.632h-69.632l-46.592-69.632h-46.592l46.592 69.632h-69.632L558.08 338.43200001h-46.592l46.592 69.632H488.448l-46.592-69.632h-23.04c-25.6 0-46.08 20.992-46.08 46.592v278.528c0 25.6 20.992 46.592 46.592 46.592h371.2c25.6 0 46.592-20.992 46.592-46.592V338.43200001h-93.184z m-34.304 186.368l-49.152 48.128 11.776 67.584c0.512 3.584-3.584 6.656-6.656 5.12l-60.928-31.744-60.928 31.744c-3.584 2.048-7.68-1.024-6.656-5.12l11.776-67.584-49.152-48.128c-2.56-2.56-1.024-7.168 2.56-8.192l68.096-9.728 30.208-61.44c1.536-3.584 6.656-3.584 8.192 0l30.208 61.44 68.096 9.728c4.096 1.024 5.632 5.632 2.56 8.192z" fill="#A87DFF" p-id="19403"></path><path d="M955.392 587.77600001l35.328-34.816h-70.144z" fill="#F7E2FF" p-id="19404"></path><path d="M859.648 747.00800001m-32.768 0a32.768 32.768 0 1 0 65.536 0 32.768 32.768 0 1 0-65.536 0Z" fill="#F7E2FF" p-id="19405"></path><path d="M927.232 268.80000001h-29.696v-29.696c0-6.656-5.12-11.776-11.776-11.776-6.656 0-11.776 5.12-11.776 11.776V268.80000001H844.8c-6.656 0-11.776 5.12-11.776 11.776 0 6.656 5.12 11.776 11.776 11.776h29.696v29.696c0 6.656 5.12 11.776 11.776 11.776 6.656 0 11.776-5.12 11.776-11.776v-29.696h29.696c6.656 0 11.776-5.12 11.776-11.776-1.024-6.656-6.144-11.776-12.288-11.776zM170.496 694.78400001c20.48 0 30.72 16.384 38.4 28.672 7.68 12.288 11.264 17.408 18.432 17.408 6.656 0 10.752-5.12 18.432-17.408 7.168-12.288 17.408-28.672 38.4-28.672 20.48 0 30.72 16.384 38.4 28.672 7.68 12.288 11.264 17.408 18.432 17.408 6.656 0 11.776 5.12 11.776 11.776 0 6.656-5.12 11.776-11.776 11.776-20.48 0-30.72-16.384-38.4-28.672-7.68-12.288-11.264-17.408-18.432-17.408-6.656 0-10.752 5.12-18.432 17.408-7.168 12.288-17.408 28.672-38.4 28.672-20.48 0-30.72-16.384-38.4-28.672-7.68-12.288-11.264-17.408-18.432-17.408s-10.752 5.632-18.432 17.408c-7.168 12.288-17.408 28.672-38.4 28.672-6.656 0-11.776-5.12-11.776-11.776 0-6.656 5.12-11.776 11.776-11.776 7.168 0 10.752-5.12 18.432-17.408 7.168-11.776 17.408-28.672 38.4-28.672z" fill="#EAB3FF" p-id="19406"></path><path d="M178.688 419.32800001m-32.768 0a32.768 32.768 0 1 0 65.536 0 32.768 32.768 0 1 0-65.536 0Z" fill="#F7E2FF" p-id="19407"></path><path d="M279.552 225.28000001H153.6c-4.608 0-8.704 3.072-10.752 7.168-2.048 4.096-1.024 9.216 2.56 12.8l62.976 62.976c2.048 2.048 5.12 3.584 8.192 3.584 3.072 0 6.144-1.024 8.192-3.584l62.976-62.976c3.072-3.072 4.096-8.192 2.56-12.8-2.048-4.096-6.144-7.168-10.752-7.168zM216.576 283.64800001l-34.816-34.816h69.632l-34.816 34.816z" fill="#EAB3FF" p-id="19408"></path></svg>