<?xml version="1.0" encoding="UTF-8"?>
<svg width="24px" height="24px" viewBox="0 0 24 24" version="1.1" xmlns="http://www.w3.org/2000/svg" xmlns:xlink="http://www.w3.org/1999/xlink">
    <title>star-half</title>
    <g id="star-half" stroke="none" stroke-width="1" fill="none" fill-rule="evenodd">
        <path d="M22.5030971,10.3149192 C22.920183,9.89783327 23.1240917,9.35098728 22.920183,8.86902129 C22.7811544,8.38705533 22.2991884,8.04411801 21.7430738,7.96996939 L16.2282709,7.20994613 C16.0243622,7.20994613 15.6721563,6.93188884 15.6072763,6.72798017 L13.1232978,1.76002326 C12.9193891,1.27805729 12.4374232,1 11.9554572,1 C11.4734912,1 10.9915253,1.27805729 10.713468,1.82490329 L8.22948952,6.7928602 C8.15534091,6.93188884 7.81240359,7.20994613 7.67337496,7.20994613 L2.22345208,7.96996939 C1.60245745,8.03484944 1.18537153,8.37778676 1.05561146,8.85975272 C0.916582812,9.34171869 1.05561146,9.89783327 1.4726974,10.3056506 L5.40257376,14.170647 C5.5416024,14.3096756 5.68063105,14.7267615 5.60648243,14.9306702 L4.6425505,20.3157131 C4.57767047,20.9367077 4.70743053,21.4186736 5.12451647,21.6967309 C5.32842514,21.8357596 5.60648243,21.9006396 5.88453972,21.9006396 C6.16259702,21.9006396 6.36650569,21.8357596 6.64456298,21.6967309 L11.5383713,19.1478724 C11.7422799,19.0829924 12.1593659,19.0829924 12.2983945,19.1478724 L17.1922028,21.6967309 C17.7483174,21.9747882 18.2951634,21.9747882 18.7122494,21.6967309 C19.1293353,21.4186736 19.333244,20.8718276 19.1942153,20.3157131 L18.2302834,14.8657902 C18.1654034,14.6618815 18.2951634,14.2447956 18.4341921,14.1057669 L22.5030971,10.3149192 Z" id="路径" fill="#E8E8E8" fill-rule="nonzero"></path>
        <path d="M12.0018001,1 L11.9554572,1 C11.4734912,1 10.9915253,1.27805729 10.713468,1.82490329 L8.22948952,6.7928602 C8.15534091,6.93188884 7.81240359,7.20994613 7.67337496,7.20994613 L2.22345208,7.96996939 C1.60245745,8.03484944 1.18537153,8.37778676 1.05561146,8.85975272 C1.01853716,8.98024421 1,9.10073572 1,9.23049577 C1,9.61050741 1.15756581,9.9997876 1.46342883,10.3056506 L5.39330517,14.170647 C5.53233381,14.3096756 5.67136246,14.7267615 5.59721386,14.9306702 L4.63328191,20.3157131 C4.56840188,20.9367077 4.69816194,21.4186736 5.1152479,21.6967309 C5.31915657,21.8357596 5.59721386,21.9006396 5.87527115,21.9006396 C6.15332845,21.9006396 6.35723712,21.8357596 6.63529441,21.6967309 L11.5291027,19.1478724 C11.6495942,19.1107981 11.8349657,19.092261 11.9925315,19.1015296 L11.9925315,1 L12.0018001,1 Z" id="路径" fill="#FEC943" fill-rule="nonzero"></path>
    </g>
</svg>