<?xml version="1.0" standalone="no"?><!DOCTYPE svg PUBLIC "-//W3C//DTD SVG 1.1//EN" "http://www.w3.org/Graphics/SVG/1.1/DTD/svg11.dtd"><svg t="1638428828884" class="icon" viewBox="0 0 1077 1024" version="1.1" xmlns="http://www.w3.org/2000/svg" p-id="4357" xmlns:xlink="http://www.w3.org/1999/xlink" width="210.3515625" height="200"><defs><style type="text/css">@font-face { font-weight: 400; font-style: normal; font-family: Circular-Loom; src: url("https://cdn.loom.com/assets/fonts/circular/CircularXXWeb-Book-cd7d2bcec649b1243839a15d5eb8f0a3.woff2") format("woff2"); }
@font-face { font-weight: 500; font-style: normal; font-family: Circular-Loom; src: url("https://cdn.loom.com/assets/fonts/circular/CircularXXWeb-Medium-d74eac43c78bd5852478998ce63dceb3.woff2") format("woff2"); }
@font-face { font-weight: 700; font-style: normal; font-family: Circular-Loom; src: url("https://cdn.loom.com/assets/fonts/circular/CircularXXWeb-Bold-83b8ceaf77f49c7cffa44107561909e4.woff2") format("woff2"); }
@font-face { font-weight: 900; font-style: normal; font-family: Circular-Loom; src: url("https://cdn.loom.com/assets/fonts/circular/CircularXXWeb-Black-bf067ecb8aa777ceb6df7d72226febca.woff2") format("woff2"); }
</style></defs><path d="M1053.283086 456.271337c20.43006-20.43006 30.418089-47.216138 20.43006-70.824208-6.81002-23.608069-30.418089-40.406118-57.658169-44.038129L745.924185 304.180891c-9.988029 0-27.24008-13.62004-30.418089-23.608069L593.83374 37.228109C583.84571 13.62004 560.237641 0 536.629572 0c-23.608069 0-47.216138 13.62004-60.836178 40.406118L354.121037 283.750831c-3.632011 6.81002-20.43006 20.43006-27.240079 20.43006l-266.952782 37.228109C29.510086 344.58701 9.080027 361.385059 2.724008 384.993128-4.086012 408.601197 2.724008 435.841277 23.154068 455.817335l192.496564 189.318555c6.81002 6.81002 13.62004 27.24008 9.988029 37.228109l-47.216138 263.774773c-3.178009 30.418089 3.178009 54.026158 23.608069 67.646198 9.988029 6.81002 23.608069 9.988029 37.228109 9.988029 13.62004 0 23.608069-3.178009 37.228109-9.988029l239.712702-124.850366c9.988029-3.178009 30.418089-3.178009 37.228109 0l239.712703 124.850366c27.24008 13.62004 54.026158 13.62004 74.456218 0 20.43006-13.62004 30.418089-40.406118 23.608069-67.646198l-47.216138-266.952782c-3.178009-9.988029 3.178009-30.418089 9.988029-37.228109l199.306584-185.686544z m0 0" fill="#E8E8E8" p-id="4358"></path><path d="M538.899579 0h-2.270007c-23.608069 0-47.216138 13.62004-60.836178 40.406118L354.121037 283.750831c-3.632011 6.81002-20.43006 20.43006-27.240079 20.43006l-266.952782 37.228109C29.510086 344.58701 9.080027 361.385059 2.724008 384.993128c-1.816005 5.902017-2.724008 11.804035-2.724008 18.160053 0 18.614055 7.718023 37.68211 22.700067 52.664154l192.496563 189.318555c6.81002 6.81002 13.62004 27.24008 9.98803 37.228109l-47.216139 263.774773c-3.178009 30.418089 3.178009 54.026158 23.60807 67.646198 9.988029 6.81002 23.608069 9.988029 37.228109 9.988029 13.62004 0 23.608069-3.178009 37.228109-9.988029l239.712702-124.850366c5.902017-1.816005 14.982044-2.724008 22.700066-2.270006V0z" fill="#fec943" p-id="4359"></path></svg>