<?xml version="1.0" encoding="UTF-8"?>
<svg width="24" height="24" viewBox="0 0 24 24" version="1.1" xmlns="http://www.w3.org/2000/svg" xmlns:xlink="http://www.w3.org/1999/xlink">
    <title>star-appraise</title>
    <g id="star-appraise" stroke="none" stroke-width="1" fill="none" fill-rule="evenodd">
        <path d="M17.9622619,22 C17.7466617,22 17.5310615,21.947812 17.3315167,21.845705 L15.7512134,21.0243112 C15.3544174,20.8178282 15.2030385,20.3322528 15.4117578,19.9419773 C15.6204772,19.5494327 16.1090179,19.3996759 16.505814,19.6061588 L17.6021637,20.1756888 L16.6778354,14.8298217 C16.5883843,14.3102107 16.7626993,13.7792545 17.14344,13.4094003 L21.0678216,9.62690438 L15.645707,8.84862237 C15.1181747,8.77374392 14.6617445,8.44473258 14.4255018,7.97050243 L11.9988532,3.1102107 L9.5744982,7.97050243 C9.33825548,8.44473258 8.88182535,8.77147488 8.35199943,8.84862237 L2.92988477,9.62690438 L6.8542664,13.4094003 C7.23730073,13.7769854 7.41161575,14.3079417 7.319871,14.8298217 L6.39324904,20.1711507 L11.241959,17.6479741 C11.7144445,17.4029173 12.2786747,17.4029173 12.7511601,17.6479741 L14.4530252,18.4920583 C14.8498213,18.6985413 15.0012001,19.1841167 14.7924808,19.5743922 C14.5837615,19.9669368 14.0929271,20.1166937 13.6984247,19.9102107 L11.9988532,19.0706645 L6.66618967,21.843436 C6.20746592,22.0816856 5.66158467,22.0431118 5.24185244,21.741329 C4.82212021,21.4395462 4.61569453,20.9380875 4.70514566,20.4343598 L5.72351237,14.5598055 L1.40921556,10.3983793 C1.03764933,10.0398703 0.906913059,9.51572123 1.06746637,9.02787682 C1.22801968,8.54003241 1.64545829,8.19059968 2.15922888,8.11799028 L8.12034393,7.26029173 L10.9070907,1.67163695 C11.1135164,1.25867099 11.530955,1 11.9988532,1 C12.4644578,1 12.88419,1.25640194 13.0906157,1.67163695 L15.8773624,7.26029173 L21.8407711,8.11799028 C22.3545417,8.19059968 22.7719803,8.54003241 22.9325336,9.02787682 C23.0930869,9.51572123 22.9623507,10.0398703 22.5907844,10.3983793 L18.274194,14.5598055 L19.2925607,20.4343598 C19.3797182,20.9403566 19.1732925,21.4418152 18.7558539,21.741329 C18.5196112,21.9115073 18.2420833,22 17.9622619,22 Z" id="路径" fill="#333333" fill-rule="nonzero"></path>
        <path d="M9,12 C9,12.5522847 9.44771525,13 10,13 C10.5522847,13 11,12.5522847 11,12 C11,11.4477153 10.5522847,11 10,11 C9.44771525,11 9,11.4477153 9,12 L9,12 Z" id="路径" fill="#FFAF00" fill-rule="nonzero"></path>
        <path d="M12,12 C12,12.3572656 12.1905989,12.6873926 12.5,12.8660254 C12.8094011,13.0446582 13.1905989,13.0446582 13.5,12.8660254 C13.8094011,12.6873926 14,12.3572656 14,12 C14,11.4477152 13.5522847,11 13,11 C12.4477153,11 12,11.4477152 12,12 L12,12 Z" id="路径" fill="#FFAF00" fill-rule="nonzero"></path>
        <path d="M15,12 C15,12.5522847 15.4477153,13 16,13 C16.5522847,13 17,12.5522847 17,12 C17,11.4477153 16.5522847,11 16,11 C15.4477153,11 15,11.4477153 15,12 Z" id="路径" fill="#FFAF00" fill-rule="nonzero"></path>
    </g>
</svg>