<?xml version="1.0" standalone="no"?><!DOCTYPE svg PUBLIC "-//W3C//DTD SVG 1.1//EN" "http://www.w3.org/Graphics/SVG/1.1/DTD/svg11.dtd"><svg t="1638428812400" class="icon" viewBox="0 0 1084 1024" version="1.1" xmlns="http://www.w3.org/2000/svg" p-id="4230" xmlns:xlink="http://www.w3.org/1999/xlink" width="211.71875" height="200"><defs><style type="text/css">@font-face { font-weight: 400; font-style: normal; font-family: Circular-Loom; src: url("https://cdn.loom.com/assets/fonts/circular/CircularXXWeb-Book-cd7d2bcec649b1243839a15d5eb8f0a3.woff2") format("woff2"); }
@font-face { font-weight: 500; font-style: normal; font-family: Circular-Loom; src: url("https://cdn.loom.com/assets/fonts/circular/CircularXXWeb-Medium-d74eac43c78bd5852478998ce63dceb3.woff2") format("woff2"); }
@font-face { font-weight: 700; font-style: normal; font-family: Circular-Loom; src: url("https://cdn.loom.com/assets/fonts/circular/CircularXXWeb-Bold-83b8ceaf77f49c7cffa44107561909e4.woff2") format("woff2"); }
@font-face { font-weight: 900; font-style: normal; font-family: Circular-Loom; src: url("https://cdn.loom.com/assets/fonts/circular/CircularXXWeb-Black-bf067ecb8aa777ceb6df7d72226febca.woff2") format("woff2"); }
</style></defs><path d="M514.048 884.615529l-223.834353 117.880471a60.235294 60.235294 0 0 1-87.401412-63.488l42.767059-249.856a60.235294 60.235294 0 0 0-17.287529-53.308235L46.983529 458.812235a60.235294 60.235294 0 0 1 33.370353-102.701176l250.458353-36.442353a60.235294 60.235294 0 0 0 45.357177-32.948706L488.086588 59.572706a60.235294 60.235294 0 0 1 108.062118 0l111.917176 227.087059a60.235294 60.235294 0 0 0 45.357177 33.008941l250.458353 36.442353a60.235294 60.235294 0 0 1 33.370353 102.701176l-181.308236 177.091765a60.235294 60.235294 0 0 0-17.287529 53.248l42.767059 249.856a60.235294 60.235294 0 0 1-87.401412 63.488l-223.834353-117.880471a60.235294 60.235294 0 0 0-56.139294 0z"  p-id="4231"></path></svg>