<svg width="24" height="24" viewBox="0 0 24 24" version="1.1" xmlns="http://www.w3.org/2000/svg" stroke="none" stroke-width="1" fill="currentColor" stroke-linecap="round" stroke-linejoin="round">
    <path d="M11.3984575,19.3350917 L6.60160815,21.8522332 C6.16672736,22.0800558 5.63975467,22.0421379 5.24223721,21.7544207 C4.84471976,21.4667035 4.64558997,20.9790793 4.72856496,20.4965525 L5.64507817,15.1612931 C5.71703611,14.7442341 5.57850499,14.3185914 5.27460031,14.0229843 L1.38910065,10.2427704 C1.03780216,9.90100585 0.911496294,9.39025776 1.06321926,8.92499066 C1.21494222,8.45972356 1.6184231,8.12049867 2.10423913,8.0497575 L7.47165025,7.27159165 C7.89211647,7.21075238 8.25561181,6.94764829 8.44367061,6.56802681 L10.8420953,1.71767403 C11.059413,1.27826229 11.508365,1 12,1 C12.491635,1 12.940587,1.27826229 13.1579047,1.71767403 L15.5563294,6.5667406 C15.7440644,6.94685803 16.1076162,7.21048402 16.5283497,7.27159165 L21.8957609,8.0497575 C22.3815769,8.12049867 22.7850578,8.45972356 22.9367807,8.92499066 C23.0885037,9.39025776 22.9621978,9.90100585 22.6108993,10.2427704 L18.7253997,14.0242705 C18.4219068,14.3195984 18.2834103,14.7446536 18.3549218,15.1612931 L19.271435,20.4965525 C19.35441,20.9790793 19.1552802,21.4667035 18.7577628,21.7544207 C18.3602453,22.0421379 17.8332726,22.0800558 17.3983919,21.8522332 L12.6015425,19.3350917 C12.2250287,19.1375014 11.7749713,19.1375014 11.3984575,19.3350917 L11.3984575,19.3350917 Z"></path>
</svg>