<svg width="24" height="24px" viewBox="0 0 24 24" version="1.1" xmlns="http://www.w3.org/2000/svg" stroke="none" stroke-width="1" fill="currentColor" stroke-linecap="round" stroke-linejoin="round">
    <path d="M10.0365466,16.7011174 C10.0365466,17.2573649 10.4857396,17.7078763 11.0387158,17.7078763 L20.9963838,17.7078763 C21.5509406,17.7078763 22,17.257231 22,16.7011174 C22,16.1463431 21.550807,15.6943585 20.9963838,15.6943585 L11.0387158,15.6943585 C10.4857396,15.6943585 10.0365466,16.1463431 10.0365466,16.7011174 Z M21.3372745,20.0062812 L3.05292902,20.0062812 C2.50567401,20.0062812 2.06071071,20.4525516 2.06071071,21.0030625 C2.06071071,21.5522565 2.50567401,22 3.05292902,22 L21.0061789,22 C21.84014,22 22.4341887,20.9663216 21.5920131,20.1136691 C21.5340441,20.0549417 21.4197089,20.0062812 21.3372745,20.0062812 L21.3372745,20.0062812 Z M2.700774,17.6928987 L6.21232878,16.7494654 C6.6259256,16.6383498 6.76443679,16.1199593 6.46168009,15.8163892 L3.89103081,13.2388561 C3.58825184,12.9352637 3.07127251,13.0741693 2.96045465,13.4888773 L2.01954915,17.0098437 C1.90870903,17.4245517 2.28717717,17.8040366 2.700774,17.6928987 Z M7.42998952,15.0738479 C7.58582018,15.2300972 7.84082591,15.2300972 7.99667883,15.0738479 L13.8969395,9.1577359 C14.0527924,9.0014866 14.0527924,8.74577346 13.8969395,8.58952415 L11.1258474,5.81096513 C10.9700168,5.65471583 10.7149888,5.65471583 10.5591581,5.81096513 L4.65887523,11.7270994 C4.50304458,11.8833487 4.50304458,12.1390619 4.65887523,12.2953112 L7.42998952,15.0738479 Z M14.9347494,7.54892612 C15.0906023,7.70517542 15.345608,7.70517542 15.5014387,7.54892612 L17.580843,5.46393543 C17.7366736,5.30768613 17.7366736,5.05197298 17.580843,4.89572368 L14.8097509,2.11718698 C14.653898,1.96093767 14.3988923,1.96093767 14.2430616,2.11718698 L12.1636573,4.20217767 C12.0078267,4.35842697 12.0078267,4.61414012 12.1636573,4.77038942 L14.9347494,7.54892612 Z"></path>
</svg>