<svg width="24" height="24" viewBox="0 0 24 24" version="1.1" xmlns="http://www.w3.org/2000/svg" stroke="none" stroke-width="1" fill="currentColor" stroke-linecap="round" stroke-linejoin="round">
    <path d="M19.5775505,10.1353614 C20.7770281,10.1353614 21.6684104,10.4814981 22.2462136,11.1793954 C22.7472423,11.7893526 23,12.6692657 23,13.8037963 L23,19.2412603 C23,19.5236325 22.7767978,19.7525404 22.501464,19.7525404 L21.7840707,19.7525404 C21.5087369,19.7525404 21.2855348,19.5236325 21.2855348,19.2412603 L21.2855348,18.6624912 C21.005227,19.0217384 20.6598976,19.3220775 20.2685214,19.5470058 C19.7141493,19.8455934 19.078516,20 18.3710934,20 C17.519594,20 16.8440777,19.7469163 16.3609963,19.2494408 C15.830554,18.7529878 15.5668285,18.1031508 15.5668285,17.30402 C15.5668285,16.2390235 15.940232,15.4087046 16.675074,14.8422062 C17.3321444,14.3053621 18.2678965,14.0262031 19.4818316,13.9899022 L21.1768539,13.9392855 L21.1768539,13.6795552 C21.1768539,12.4714003 20.6204878,11.8839394 19.4688696,11.8839394 C18.9733249,11.8839394 18.5744961,11.9861955 18.282354,12.1866173 C18.0135588,12.3639445 17.8125103,12.6307972 17.7130259,12.9422893 C17.6432314,13.1736927 17.424686,13.3231141 17.1895631,13.3001854 L16.3535183,13.2183805 C16.2076689,13.2041744 16.0752955,13.1248939 15.9915638,13.0016004 C15.9078321,12.8783069 15.8812192,12.7234827 15.9187949,12.5782578 L15.9332524,12.5261073 C16.1565966,11.7561194 16.564399,11.1630345 17.1436978,10.7713939 C17.7369557,10.3419186 18.5495693,10.1348502 19.5765534,10.1348502 L19.5775505,10.1353614 Z M8.87697415,4 C9.06836189,4 9.24005832,4.12067828 9.30920485,4.30370043 L14.9277054,19.2034256 C14.9824775,19.349396 14.9637509,19.5136556 14.8776219,19.6427308 C14.791493,19.7718059 14.648978,19.8491872 14.4964718,19.8496836 L13.3767599,19.8496836 C13.1853722,19.8496453 13.0136758,19.7290054 12.9445292,19.5459833 L11.0665442,14.5661149 L4.91112043,14.5661149 L3.01518808,19.5480284 C2.94562665,19.7302735 2.77428816,19.8501949 2.58345591,19.8501949 L1.46274703,19.8501949 C1.30985482,19.8498927 1.16693723,19.7723061 1.08072997,19.642807 C0.994522703,19.5133079 0.976110145,19.348547 1.03151341,19.202403 L6.70285875,4.30165532 C6.77257998,4.11961125 6.94388278,4 7.1345909,4 L8.87697415,4 Z M21.1773525,15.5298779 L19.5945007,15.5799834 C18.1507405,15.6137279 17.450796,16.1700007 17.450796,17.2339746 C17.450796,17.5540359 17.561471,17.8025181 17.8007682,18.0121429 C18.0315904,18.2268806 18.351152,18.3398735 18.7425027,18.3398735 C19.4070512,18.3398735 19.9733881,18.107241 20.4554724,17.6419761 C20.9330698,17.1808014 21.1768539,16.6091903 21.1768539,15.9429923 L21.1768539,15.5298779 L21.1773525,15.5298779 Z M8.00353911,6.44289644 L5.64247272,12.6447243 L10.3421714,12.6447243 L8.00353911,6.44289644 L8.00353911,6.44289644 Z"></path>
</svg>