<svg width="24" height="24" viewBox="0 0 24 24" version="1.1"
    xmlns="http://www.w3.org/2000/svg" stroke="none" stroke-width="1" fill="currentColor" stroke-linecap="round" stroke-linejoin="round">
    <path d="M12.0268152,22.996784 C11.2427636,22.996784 10.4544159,22.9130086 9.67251247,22.7433098 C6.80266903,22.1203648 4.34740627,20.4169323 2.75782233,17.9466329 C0.315448096,14.1509642 0.427148581,9.31776982 3.03707357,5.63809781 C3.35284226,5.19344392 3.96719497,5.09033578 4.41184886,5.40395639 C4.85650274,5.71972508 4.96175899,6.3340778 4.64599028,6.7787317 C2.50434815,9.79894118 2.41412851,13.7643087 4.41829312,16.879034 C5.72218156,18.9068275 7.73708662,20.3030837 10.0913893,20.8143282 C12.4478401,21.3255728 14.8601411,20.8895113 16.8857866,19.5856228 C21.0702589,16.8940706 22.2839277,11.3004536 19.5923755,7.11598126 C18.288487,5.0881877 16.273582,3.69193154 13.9192793,3.18068696 C11.5649766,2.66944239 9.15052747,3.10550393 7.12488199,4.4093924 C6.66733958,4.70368024 6.05728304,4.57049888 5.76299522,4.11295647 C5.46870738,3.65541406 5.60188873,3.04535753 6.05943114,2.75106969 C8.52973049,1.16363385 11.4704608,0.630908405 14.3403042,1.25385346 C17.2101476,1.87679852 19.6654104,3.58023103 21.2549943,6.0505304 C24.5351223,11.1500875 23.0550907,17.9659657 17.9555336,21.2460936 C16.1575853,22.399616 14.1126071,22.996784 12.0268152,22.996784 Z"></path>
    <path d="M10.7401114,8.50149698 C10.7401114,9.19670122 11.3036858,9.76027561 11.99889,9.76027561 C12.6940943,9.76027561 13.2576687,9.19670122 13.2576687,8.50149698 C13.2576687,7.80629273 12.6940943,7.24271834 11.99889,7.24271834 C11.3036858,7.24271834 10.7401114,7.80629273 10.7401114,8.50149698 L10.7401114,8.50149698 Z"></path>
    <path d="M11.99889,16.6405964 C11.4532761,16.6405964 11.0129184,16.2002387 11.0129184,15.6546247 L11.0129184,11.8525118 C11.0129184,11.3068978 11.4532761,10.8665401 11.99889,10.8665401 C12.544504,10.8665401 12.9848617,11.3068978 12.9848617,11.8525118 L12.9848617,15.6546247 C12.9848617,16.2002387 12.544504,16.6405964 11.99889,16.6405964 Z"></path>
</svg>