<svg t="1640575780616" class="icon" viewBox="0 0 1024 1024" version="1.1" xmlns="http://www.w3.org/2000/svg" p-id="3920" width="200" height="200"><path d="M512.31220736 1021.22001977c281.23270258 0 509.22001977-227.97217223 509.22001977-509.22001977 0-281.21755875-227.98731605-509.22001977-509.22001977-509.22001977-281.24551737 0-509.23516359 228.00246101-509.23516359 509.22001977 0 281.24784754 227.99081131 509.22001977 509.23516359 509.22001977" fill="#78CBEF" p-id="3921"></path><path d="M767.78428302 378.60112043c-18.75459413 8.31777109-38.94324679 13.94566371-60.09881031 16.47361479 21.62271118-12.95195819 38.21631488-33.44699392 46.00636188-57.87724345-20.23059115 11.98854144-42.59887218 20.68841699-66.47343786 25.36570766-19.04816242-20.33543623-46.26964139-33.03925987-76.3837019-33.03925988-57.76074752 0-104.61752661 46.86842766-104.61752662 104.64432128 0 8.21525504 0.89235456 16.18237554 2.69220864 23.82913309-86.97080377-4.37090759-164.05813817-45.99121806-215.70870158-109.35073451-9.00625863 15.50903182-14.16816981 33.47611762-14.16816981 52.6594139 0 36.26967723 18.47966493 68.31523043 46.56320967 87.1001145-17.14928754-0.52422883-33.30253938-5.27607694-47.42527545-13.06845412v1.28727381c0 50.72792007 36.06581021 93.02157426 83.973376 102.61147535-8.78724779 2.45805283-18.02416811 3.68591417-27.58727453 3.6859153a103.8206976 103.8206976 0 0 1-19.67723747-1.85577244c13.30260992 41.55973291 51.94413283 71.83921607 97.74313245 72.6418705-35.81418041 28.08354589-80.94682681 44.80878933-129.96575915 44.80878934-8.44941085 0-16.79630677-0.46714653-24.97078841-1.44570824 46.31507513 29.66205781 101.32769678 47.00006741 160.4176566 47.00006742 192.52262343 0 297.75408014-159.4390949 297.75408014-297.75174998 0-4.54797995-0.08970126-9.0784859-0.27842446-13.53909475a212.15792242 212.15792242 0 0 0 52.20508217-54.17967957" fill="#FFFFFF" p-id="3922"></path></svg>