<svg width="24" height="24" viewBox="0 0 24 24" version="1.1" xmlns="http://www.w3.org/2000/svg" stroke="none" stroke-width="1" fill="currentColor" stroke-linecap="round" stroke-linejoin="round">
    <path d="M20.9948501,5.66759974 C19.6876253,3.82933153 17.848648,2.42294561 15.7216382,1.64777227 C13.5835502,0.861525021 11.1685077,0.795081592 8.97502883,1.42629417 C6.87017533,2.02428503 4.95365083,3.27563629 3.55780062,4.95886983 C2.82664099,5.84478222 2.22841947,6.84143366 1.79637059,7.91560243 C1.36432172,8.9676234 1.12060184,10.0750139 1.03197643,11.2045522 C0.85472561,13.4636288 1.4197126,15.767001 2.59399929,17.7049343 C3.04820451,18.446886 3.59103515,19.1334681 4.20033485,19.7536068 C4.27788208,19.8864936 4.38866384,20.0083066 4.53268014,20.07475 C5.37462153,20.8609972 6.34950105,21.5143576 7.40192779,21.9905355 C8.47651089,22.4777874 9.61756305,22.7989306 10.7918497,22.9318175 C11.9439801,23.0647043 13.1071886,22.9982609 14.2482407,22.7767828 C16.1979998,22.3781222 18.036977,21.4146925 19.4992963,20.0636761 C19.6322344,19.9972327 19.731938,19.8864936 19.8094852,19.7646807 L19.9535015,19.6207199 C21.4712117,18.0260776 22.5236384,15.9663313 22.8559837,13.784772 C22.9446091,13.1978551 23,12.6109381 23,12.0240211 C23,9.74279674 22.3020749,7.50586795 20.9948501,5.66759974 Z M17.970508,19.3992418 C17.9261953,19.4324635 17.8818826,19.4767591 17.8264917,19.5099808 L17.8597262,19.4767591 L17.8154135,19.5099808 C17.7932571,19.5321287 17.7378663,19.5653504 17.7489444,19.5542765 C17.5495373,19.6982372 17.3501301,19.842198 17.1396447,19.9750848 C16.6743613,20.2740803 16.1869216,20.5287801 15.6884037,20.7502582 C14.9129313,21.0714014 14.1042244,21.2818056 13.2733612,21.4036186 C12.4203416,21.5032837 11.5673221,21.5032837 10.7143025,21.4036186 C9.88343928,21.2818056 9.07473241,21.0603275 8.29926007,20.7502582 C7.85613302,20.5620018 7.42408415,20.3405237 7.01419162,20.0858239 C6.7926281,19.952937 6.57106457,19.8089763 6.36057922,19.6539416 L6.22764111,19.5542765 L6.1833284,19.5210547 C6.08362482,19.4435374 5.99499941,19.3660201 5.89529582,19.2885027 C5.82882676,19.2331332 5.77343588,19.1777637 5.70696682,19.1223942 C5.74020135,19.0448768 5.7623577,18.9673595 5.79559223,18.8898422 C5.93960852,18.5686989 6.09470299,18.2697035 6.28303199,17.9707081 C6.38273558,17.8156734 6.48243916,17.6606387 6.59322092,17.516678 C6.61537728,17.4834562 6.64861181,17.4502345 6.67076816,17.4059389 C6.72615904,17.3284216 6.7926281,17.2619782 6.84801898,17.1955347 C7.08066068,16.9186871 7.34653691,16.6639873 7.61241314,16.4203614 C7.6788822,16.3649919 7.74535126,16.2985484 7.82289849,16.2431789 L7.90044573,16.1878094 C7.9115239,16.1878094 7.9115239,16.1767355 7.92260208,16.1767355 C8.07769655,16.0659964 8.22171284,15.9552574 8.38788548,15.8555922 C8.72023077,15.645188 9.06365424,15.4680056 9.41815588,15.301897 C9.96098651,15.0804189 10.5370517,14.9253842 11.1131168,14.836793 C11.7002602,14.7703496 12.2984817,14.7703496 12.8856251,14.836793 C13.4727684,14.9253842 14.0377554,15.0804189 14.5916642,15.301897 C14.9018531,15.4347838 15.2120421,15.6008924 15.5000747,15.7780749 C15.6551691,15.87774 15.8102636,15.9774052 15.9542799,16.0770703 C15.9875144,16.0992181 16.0318271,16.1324399 16.0650616,16.1545877 L16.0982962,16.1767355 L16.1426089,16.2099572 C16.1869216,16.2431789 16.2312343,16.2764006 16.275547,16.3206962 C16.5525014,16.5532482 16.8183776,16.8079481 17.0620975,17.0847957 C17.1174884,17.1512391 17.1839575,17.2176825 17.2393483,17.2951999 C17.2615047,17.3284216 17.2947392,17.3616433 17.3168956,17.3837911 L17.3279737,17.394865 C17.4387555,17.5388258 17.5495373,17.6938604 17.6492409,17.8488951 C17.8597262,18.1811123 18.0480552,18.5244033 18.2031497,18.8898422 C18.2363842,18.9673595 18.2585406,19.0338029 18.2917751,19.1113203 C18.2806969,19.1223942 18.2585406,19.1334681 18.2474624,19.1556159 C18.1477588,19.255281 18.0591334,19.3217245 17.970508,19.3992418 L17.970508,19.3992418 Z M8.88640342,11.0495175 C8.77562165,10.7726699 8.69807442,10.4736745 8.64268354,10.174679 C8.60944901,9.86460969 8.60944901,9.56561426 8.64268354,9.25554492 C8.68699624,8.95654949 8.77562165,8.66862796 8.88640342,8.38070644 C8.97502883,8.18137615 9.08581059,7.98204586 9.20767053,7.79378948 C9.24090506,7.73841995 9.28521776,7.68305043 9.31845229,7.63875481 L9.32953047,7.6276809 L9.34060864,7.616607 C9.42923405,7.51694186 9.51785946,7.41727671 9.61756305,7.31761157 C9.70618846,7.22902033 9.80589205,7.14042909 9.90559563,7.05183785 C9.91667381,7.04076395 9.92775199,7.02969004 9.94990834,7.01861614 C9.99422104,6.98539442 10.0496119,6.95217271 10.0939246,6.91895099 C10.2822536,6.78606413 10.4816608,6.67532508 10.6921461,6.58673385 C10.9691006,6.4759948 11.2682113,6.39847746 11.5673221,6.34310794 C11.877511,6.30988622 12.1766218,6.30988622 12.4868107,6.34310794 C12.7859215,6.38740356 13.0739541,6.4759948 13.3619866,6.58673385 C13.5613938,6.67532508 13.760801,6.78606413 13.94913,6.90787709 C14.0045209,6.9410988 14.0599117,6.98539442 14.1042244,7.01861614 L14.1153026,7.02969004 L14.1263808,7.04076395 L14.4254916,7.30653766 C14.514117,7.3951289 14.6027424,7.49479405 14.6913678,7.59445919 C14.702446,7.60553309 14.7135241,7.616607 14.7246023,7.63875481 C14.7578368,7.68305043 14.7910714,7.73841995 14.8243059,7.78271557 C14.957244,7.97097196 15.0680258,8.17030224 15.1566512,8.38070644 C15.267433,8.65755406 15.3449802,8.95654949 15.4003711,9.25554492 C15.4336056,9.56561426 15.4336056,9.86460969 15.4003711,10.174679 C15.3560584,10.4736745 15.267433,10.761596 15.1566512,11.0495175 C15.0680258,11.2488478 14.957244,11.4481781 14.8353841,11.6364345 C14.8021496,11.691804 14.7578368,11.7471735 14.7246023,11.7914691 L14.7135241,11.802543 L14.702446,11.8136169 L14.4365697,12.1126124 C14.3479443,12.2012036 14.2482407,12.2897949 14.1485371,12.3783861 C14.137459,12.38946 14.1263808,12.4005339 14.1042244,12.4116078 C14.0599117,12.4448295 14.0045209,12.4780512 13.9602082,12.511273 C13.7718792,12.6441598 13.572472,12.7548989 13.3619866,12.8434901 C13.0850322,12.9542292 12.7859215,13.0317465 12.4868107,13.087116 C12.1766218,13.1203377 11.877511,13.1203377 11.5673221,13.087116 C11.2682113,13.0428204 10.9801787,12.9542292 10.6921461,12.8434901 C10.492739,12.7548989 10.2933318,12.6441598 10.1050028,12.5223469 C10.0496119,12.4891251 9.99422104,12.4448295 9.94990834,12.4116078 L9.93883016,12.4005339 L9.92775199,12.38946 C9.8280484,12.3008688 9.72834481,12.2122775 9.62864123,12.1126124 C9.54001582,12.0240211 9.45139041,11.924356 9.362765,11.8246909 C9.35168682,11.8136169 9.34060864,11.802543 9.32953047,11.7803952 C9.29629594,11.7360996 9.26306141,11.6807301 9.22982688,11.6364345 C9.09688876,11.459252 8.97502883,11.2599217 8.88640342,11.0495175 L8.88640342,11.0495175 Z M21.4379771,13.2753724 C21.3161172,14.1059153 21.0945537,14.9143103 20.7843647,15.6894837 C20.5960357,16.1324399 20.3744722,16.5643221 20.1196742,16.9740566 C19.9867361,17.1955347 19.8427198,17.4170128 19.6876253,17.627417 L19.5879217,17.7603039 L19.5546872,17.8045995 C19.5103745,17.859969 19.4660618,17.9264124 19.4106709,17.981782 C19.0007784,17.1290913 18.4468695,16.353918 17.7711008,15.6894837 C16.9180812,14.8478669 15.8878108,14.2055804 14.7467587,13.7958459 C15.8434981,13.0538943 16.652205,11.8689865 16.8516122,10.5622657 C16.8959249,10.2854181 16.9180812,10.0085705 16.9291594,9.73172283 C16.9291594,8.7461453 16.6300486,7.73841995 16.0539835,6.9410988 C15.4596477,6.10407009 14.6252825,5.46695349 13.6610974,5.1139045 C11.7999638,4.4383963 9.56217217,5.03638716 8.29926007,6.56458604 C7.6345695,7.37298109 7.23575515,8.33641082 7.14712974,9.37735788 C7.0695825,10.3740093 7.32438056,11.4038825 7.84505484,12.2565731 C8.21063466,12.8656379 8.70915259,13.3861114 9.29629594,13.784772 C8.29926007,14.139137 7.37977144,14.6817583 6.59322092,15.3794143 C5.7623577,16.0992181 5.09766713,17.0072783 4.62130555,17.9928559 L4.59914919,17.9707081 C4.56591466,17.9264124 4.52160196,17.8821168 4.48836743,17.8267473 L4.52160196,17.859969 L4.48836743,17.8156734 C4.46621108,17.7935256 4.43297655,17.7381561 4.44405473,17.74923 C4.30003843,17.5498997 4.15602214,17.3505694 4.02308403,17.1401652 C3.72397327,16.6750612 3.46917521,16.1878094 3.24761169,15.6894837 C2.93742275,14.9143103 2.71585923,14.1059153 2.59399929,13.2864463 C2.4942957,12.4337556 2.4942957,11.5810649 2.59399929,10.7283743 C2.71585923,9.89783141 2.93742275,9.08943635 3.24761169,8.31426301 C3.43594068,7.87130681 3.65750421,7.43942452 3.91230226,7.02969004 C4.04524038,6.80821194 4.18925667,6.58673385 4.34435114,6.37632965 L4.44405473,6.24344279 L4.47728925,6.19914717 C4.55483649,6.09948203 4.63238372,6.01089079 4.70993096,5.91122565 C5.04227624,5.52363898 5.39677789,5.15820012 5.77343588,4.82598297 C5.86206129,4.74846563 5.9506867,4.6709483 6.05039029,4.59343097 C6.09470299,4.56020925 6.1390157,4.51591363 6.19440658,4.48269192 L6.16117205,4.51591363 L6.20548475,4.48269192 C6.22764111,4.46054411 6.28303199,4.42732239 6.27195381,4.4383963 C6.47136099,4.29443553 6.67076816,4.15047477 6.88125351,4.01758791 C7.34653691,3.71859248 7.83397667,3.46389267 8.3324946,3.24241457 C9.10796694,2.92127133 9.91667381,2.69979323 10.7364589,2.57798028 C11.5894784,2.47831513 12.442498,2.47831513 13.2955176,2.57798028 C14.1263808,2.69979323 14.9350877,2.92127133 15.71056,3.23134067 C16.1536871,3.41959705 16.5857359,3.64107515 16.9956285,3.89577496 C17.217192,4.02866182 17.4387555,4.17262258 17.6492409,4.32765725 L17.782179,4.42732239 L17.8264917,4.46054411 C17.9261953,4.53806144 18.0148207,4.61557878 18.1145243,4.69309611 C18.5022604,5.02531326 18.8678402,5.37967821 19.2001855,5.75619098 C19.2777328,5.84478222 19.35528,5.93337346 19.4328272,6.0330386 C19.4660618,6.07733422 19.5103745,6.12162984 19.543609,6.17699936 L19.5103745,6.14377765 C19.5214526,6.15485155 19.5325308,6.17699936 19.543609,6.18807327 C19.5657654,6.21022108 19.5989999,6.2545167 19.5879217,6.2545167 C19.731938,6.45384699 19.8759543,6.65317727 20.0088924,6.86358147 C20.3080032,7.32868547 20.5628012,7.81593729 20.7843647,8.31426301 C21.1056319,9.08943635 21.3161172,9.89783141 21.4379771,10.7173004 C21.5376807,11.5589171 21.5376807,12.4226817 21.4379771,13.2753724 L21.4379771,13.2753724 Z"></path>
</svg>