<svg t="1639732551392" class="icon" viewBox="0 0 1024 1024" version="1.1" xmlns="http://www.w3.org/2000/svg" p-id="3830" width="200" height="200"><path d="M242.117837 160.256c-1.024 0.512-2.048 1.536-2.56 2.048h-0.512c2.56-2.048 3.584-2.56 3.584-2.56l-0.512 0.512z m0 0" p-id="3831"></path><path d="M924.101837 218.112C863.685837 133.12 778.693837 68.096 680.389837 32.256c-98.816-36.352-210.432-39.424-311.808-10.24-97.28 27.648-185.856 85.504-250.368 163.328-33.792 40.96-61.44 87.04-81.408 136.704C16.837837 370.688 5.573837 421.888 1.477837 474.112c-8.192 104.448 17.92 210.944 72.192 300.544 20.992 34.304 46.08 66.048 74.24 94.72 3.584 6.144 8.704 11.776 15.36 14.848 38.912 36.352 83.968 66.56 132.608 88.576 49.664 22.528 102.4 37.376 156.672 43.52 53.248 6.144 107.008 3.072 159.744-7.168 90.112-18.432 175.104-62.976 242.688-125.44 6.144-3.072 10.752-8.192 14.336-13.824l6.656-6.656c70.144-73.728 118.784-168.96 134.144-269.824 4.096-27.136 6.656-54.272 6.656-81.408 0-105.472-32.256-208.896-92.672-293.888z m-139.776 634.88c-2.048 1.536-4.096 3.584-6.656 5.12l1.536-1.536-2.048 1.536c-1.024 1.024-3.584 2.56-3.072 2.048-9.216 6.656-18.432 13.312-28.16 19.456-21.504 13.824-44.032 25.6-67.072 35.84-35.84 14.848-73.216 24.576-111.616 30.208-39.424 4.608-78.848 4.608-118.272 0-38.4-5.632-75.776-15.872-111.616-30.208-20.48-8.704-40.448-18.944-59.392-30.72-10.24-6.144-20.48-12.8-30.208-19.968L241.605837 860.16l-2.048-1.536c-4.608-3.584-8.704-7.168-13.312-10.752-3.072-2.56-5.632-5.12-8.704-7.68 1.536-3.584 2.56-7.168 4.096-10.752 6.656-14.848 13.824-28.672 22.528-42.496 4.608-7.168 9.216-14.336 14.336-20.992 1.024-1.536 2.56-3.072 3.584-5.12 2.56-3.584 5.632-6.656 8.192-9.728 10.752-12.8 23.04-24.576 35.328-35.84 3.072-2.56 6.144-5.632 9.728-8.192l3.584-2.56c0.512 0 0.512-0.512 1.024-0.512 7.168-5.12 13.824-10.24 21.504-14.848 15.36-9.728 31.232-17.92 47.616-25.6 25.088-10.24 51.712-17.408 78.336-21.504 27.136-3.072 54.784-3.072 81.92 0 27.136 4.096 53.248 11.264 78.848 21.504 14.336 6.144 28.672 13.824 41.984 22.016 7.168 4.608 14.336 9.216 20.992 13.824 1.536 1.024 3.584 2.56 5.12 3.584l1.536 1.024 2.048 1.536c2.048 1.536 4.096 3.072 6.144 5.12 12.8 10.752 25.088 22.528 36.352 35.328 2.56 3.072 5.632 6.144 8.192 9.728 1.024 1.536 2.56 3.072 3.584 4.096l0.512 0.512c5.12 6.656 10.24 13.824 14.848 20.992 9.728 15.36 18.432 31.232 25.6 48.128 1.536 3.584 2.56 6.656 4.096 10.24-0.512 0.512-1.536 1.024-2.048 2.048-4.608 4.608-8.704 7.68-12.8 11.264zM364.485837 466.944c-5.12-12.8-8.704-26.624-11.264-40.448-1.536-14.336-1.536-28.16 0-42.496 2.048-13.824 6.144-27.136 11.264-40.448 4.096-9.216 9.216-18.432 14.848-27.136 1.536-2.56 3.584-5.12 5.12-7.168l0.512-0.512 0.512-0.512c4.096-4.608 8.192-9.216 12.8-13.824 4.096-4.096 8.704-8.192 13.312-12.288 0.512-0.512 1.024-1.024 2.048-1.536 2.048-1.536 4.608-3.072 6.656-4.608 8.704-6.144 17.92-11.264 27.648-15.36 12.8-5.12 26.624-8.704 40.448-11.264 14.336-1.536 28.16-1.536 42.496 0 13.824 2.048 27.136 6.144 40.448 11.264 9.216 4.096 18.432 9.216 27.136 14.848 2.56 1.536 5.12 3.584 7.168 5.12l0.512 0.512 0.512 0.512 13.824 12.288c4.096 4.096 8.192 8.704 12.288 13.312 0.512 0.512 1.024 1.024 1.536 2.048 1.536 2.048 3.072 4.608 4.608 6.656 6.144 8.704 11.264 17.92 15.36 27.648 5.12 12.8 8.704 26.624 11.264 40.448 1.536 14.336 1.536 28.16 0 42.496-2.048 13.824-6.144 27.136-11.264 40.448-4.096 9.216-9.216 18.432-14.848 27.136-1.536 2.56-3.584 5.12-5.12 7.168l-0.512 0.512-0.512 0.512-12.288 13.824c-4.096 4.096-8.704 8.192-13.312 12.288-0.512 0.512-1.024 1.024-2.048 1.536-2.048 1.536-4.608 3.072-6.656 4.608-8.704 6.144-17.92 11.264-27.648 15.36-12.8 5.12-26.624 8.704-40.448 11.264-14.336 1.536-28.16 1.536-42.496 0-13.824-2.048-27.136-6.144-40.448-11.264-9.216-4.096-18.432-9.216-27.136-14.848-2.56-1.536-5.12-3.584-7.168-5.12l-0.512-0.512-0.512-0.512c-4.608-4.096-9.216-8.192-13.824-12.8-4.096-4.096-8.192-8.704-12.288-13.312-0.512-0.512-1.024-1.024-1.536-2.048-1.536-2.048-3.072-4.608-4.608-6.656-6.144-8.192-11.776-17.408-15.872-27.136z m580.096 102.912c-5.632 38.4-15.872 75.776-30.208 111.616-8.704 20.48-18.944 40.448-30.72 59.392-6.144 10.24-12.8 20.48-19.968 30.208l-4.608 6.144-1.536 2.048c-2.048 2.56-4.096 5.632-6.656 8.192-18.944-39.424-44.544-75.264-75.776-105.984-39.424-38.912-87.04-68.608-139.776-87.552 50.688-34.304 88.064-89.088 97.28-149.504 2.048-12.8 3.072-25.6 3.584-38.4 0-45.568-13.824-92.16-40.448-129.024a234.5472 234.5472 0 0 0-110.592-84.48c-86.016-31.232-189.44-3.584-247.808 67.072-30.72 37.376-49.152 81.92-53.248 130.048-3.584 46.08 8.192 93.696 32.256 133.12 16.896 28.16 39.936 52.224 67.072 70.656-46.08 16.384-88.576 41.472-124.928 73.728-38.4 33.28-69.12 75.264-91.136 120.832l-1.024-1.024c-1.536-2.048-3.584-4.096-5.12-6.656l1.536 1.536-1.536-2.048c-1.024-1.024-2.56-3.584-2.048-3.072-6.656-9.216-13.312-18.432-19.456-28.16-13.824-21.504-25.6-44.032-35.84-67.072-14.336-35.84-24.576-73.216-30.208-111.104-4.608-39.424-4.608-78.848 0-118.272 5.632-38.4 15.872-75.776 30.208-111.616 8.704-20.48 18.944-40.448 30.72-59.392 6.144-10.24 12.8-20.48 19.968-30.208l4.608-6.144 1.536-2.048c3.584-4.608 7.168-8.704 10.752-13.312 15.36-17.92 31.744-34.816 49.152-50.176 4.096-3.584 8.192-7.168 12.8-10.752 2.048-1.536 4.096-3.584 6.656-5.12l-1.536 1.536 2.048-1.536c1.024-1.024 3.584-2.56 3.072-2.048 9.216-6.656 18.432-13.312 28.16-19.456 21.504-13.824 44.032-25.6 67.072-35.84 35.84-14.848 73.216-25.088 111.104-30.72 39.424-4.608 78.848-4.608 118.272 0 38.4 5.632 75.776 15.872 111.616 30.208 20.48 8.704 40.448 18.944 59.392 30.72 10.24 6.144 20.48 12.8 30.208 19.968l6.144 4.608 2.048 1.536c4.608 3.584 8.704 7.168 13.312 10.752 17.92 15.36 34.816 31.744 50.176 49.152 3.584 4.096 7.168 8.192 10.752 12.8 1.536 2.048 3.584 4.096 5.12 6.656l-1.536-1.536c0.512 0.512 1.024 1.536 1.536 2.048 1.024 1.024 2.56 3.072 2.048 3.072 6.656 9.216 13.312 18.432 19.456 28.16 13.824 21.504 25.6 44.032 35.84 67.072 14.848 35.84 24.576 73.216 30.208 111.104 4.608 38.912 4.608 78.848 0 118.272z m0 0" p-id="3832"></path><path d="M774.597837 860.672c1.024-0.512 2.048-1.536 2.56-2.048h0.512c-2.56 2.048-3.584 2.56-3.584 2.56l0.512-0.512zM158.149837 776.704l2.048 2.56v0.512c-1.536-2.56-2.048-3.584-2.048-3.072z m700.416-532.48c-0.512-1.024-1.536-2.048-2.048-2.56v-0.512c2.048 2.56 2.56 3.584 2.56 3.584l-0.512-0.512z m0 0" p-id="3833"></path></svg>