<svg width="24" height="24" viewBox="0 0 24 24" version="1.1" xmlns="http://www.w3.org/2000/svg" stroke="none" stroke-width="1" fill="currentColor" stroke-linecap="round" stroke-linejoin="round">
    <path d="M12.1245481,14.8 L12.1245481,14.8 C14.3245481,14.8 16.1245481,13 16.1245481,10.8 L16.1245481,6 C16.1245481,3.8 14.3245481,2 12.1245481,2 L12.1245481,2 C9.92454811,2 8.12454811,3.8 8.12454811,6 L8.12454811,10.8 C8.12454811,13 9.92454811,14.8 12.1245481,14.8 Z"></path>
    <path d="M19.2395481,11.91 C19.3070481,11.4725 19.0095481,11.065 18.5720481,10.9975 C18.1345481,10.9325 17.7270481,11.23 17.6595481,11.665 C17.2395481,14.365 14.8620481,16.4 12.1245481,16.4 C9.38704811,16.4 7.00704811,14.3625 6.58954811,11.6625 C6.52204811,11.225 6.11204811,10.9275 5.67704811,10.995 C5.23954811,11.0625 4.94204811,11.47 5.00954811,11.9075 C5.51454811,15.17 8.10954811,17.6025 11.3245481,17.9525 L11.3245481,20.4 L8.92454811,20.4 C8.48204811,20.4 8.12454811,20.7575 8.12454811,21.2 C8.12454811,21.6425 8.48204811,22 8.92454811,22 L15.3245481,22 C15.7670481,22 16.1245481,21.6425 16.1245481,21.2 C16.1245481,20.7575 15.7670481,20.4 15.3245481,20.4 L12.9245481,20.4 L12.9245481,17.9525 C16.1370481,17.6025 18.7345481,15.1725 19.2395481,11.91 Z"></path>
</svg>