<svg t="1639475722480" viewBox="0 0 1024 1024" version="1.1" xmlns="http://www.w3.org/2000/svg" p-id="20237" width="200" height="200"><path d="M512 0C794.779152 0 1024 229.220848 1024 512S794.779152 1024 512 1024 0 794.779152 0 512 229.220848 0 512 0z m0 93.090909C280.638061 93.090909 93.090909 280.638061 93.090909 512S280.638061 930.909091 512 930.909091 930.909091 743.361939 930.909091 512 743.361939 93.090909 512 93.090909z m-15.142788 615.45503c18.307879 0 34.133333 5.895758 46.483394 18.245819 11.946667 11.977697 18.245818 27.306667 18.245818 44.869818 0 18.680242-6.516364 34.195394-19.549091 46.14206a64.946424 64.946424 0 0 1-45.180121 17.780364c-17.314909 0-32.395636-6.081939-45.676606-18.245818-12.412121-12.412121-18.245818-27.554909-18.245818-45.676606 0-18.369939 5.988848-33.636848 18.245818-44.869818 12.412121-12.412121 27.554909-18.245818 45.676606-18.245819zM508.95903 217.212121c55.823515 0 100.538182 15.266909 134.733576 46.855758 33.357576 30.657939 50.20703 72.859152 50.20703 125.176242 0 39.346424-11.388121 74.162424-34.257454 104.323879l-4.406303 4.964848c-8.564364 9.309091-23.272727 23.396848-43.287273 41.549576l-19.42497 17.408c-16.011636 13.839515-27.151515 26.965333-34.722909 40.525576a94.766545 94.766545 0 0 0-12.970666 43.876848l-0.186182 7.13697v34.071273h-95.573334v-34.071273c0-28.858182 5.306182-54.551273 15.980607-76.737939 12.412121-26.686061 40.339394-58.709333 84.557575-98.024727l18.121697-18.36994c3.971879-4.189091 6.299152-6.888727 8.192-9.371151 14.087758-17.625212 20.790303-35.250424 20.790303-54.054788 0-27.803152-7.881697-49.058909-23.117575-64.294788-14.987636-15.639273-37.236364-23.458909-67.863273-23.458909-35.902061 0-60.881455 10.984727-77.358546 33.605818-14.149818 17.997576-21.938424 42.511515-23.148606 74.317576l-0.155151 8.874666v15.515152H310.30303v-15.515152c0-60.819394 16.973576-109.59903 51.634425-145.966545C397.312 236.606061 446.712242 217.212121 508.95903 217.212121z" p-id="20238"></path></svg>