<svg t="1640339738315" class="icon" viewBox="0 0 1024 1024" version="1.1" xmlns="http://www.w3.org/2000/svg" p-id="4322" width="200" height="200"><path d="M837.632 448c51.328 0 89.472 14.442667 114.197333 43.562667 21.44 25.450667 32.256 62.165333 32.256 109.504V827.946667a21.333333 21.333333 0 0 1-21.333333 21.333333H932.053333a21.333333 21.333333 0 0 1-21.333333-21.333333v-24.149334a149.077333 149.077333 0 0 1-43.52 36.906667c-23.722667 12.458667-50.922667 18.901333-81.194667 18.901333-36.437333 0-65.344-10.56-86.016-31.317333-22.698667-20.714667-33.984-47.829333-33.984-81.173333 0-44.437333 15.978667-79.082667 47.424-102.72 28.117333-22.4 68.16-34.048 120.106667-35.562667l72.533333-2.112v-10.837333c0-50.410667-23.808-74.922667-73.088-74.922667-21.205333 0-38.272 4.266667-50.773333 12.629333a59.52 59.52 0 0 0-24.362667 31.530667 21.333333 21.333333 0 0 1-22.4 14.933333l-35.776-3.413333a21.333333 21.333333 0 0 1-18.602666-26.709333l0.618666-2.176c9.557333-32.128 27.008-56.874667 51.797334-73.216 25.386667-17.92 60.16-26.56 104.106666-26.56zM379.733333 192a19.84 19.84 0 0 1 18.496 12.672l240.426667 621.696A19.84 19.84 0 0 1 620.202667 853.333333h-47.914667a19.84 19.84 0 0 1-18.496-12.672l-80.362667-207.786666H210.026667L128.896 840.746667a19.84 19.84 0 0 1-18.474667 12.608H62.464a19.84 19.84 0 0 1-18.453333-27.029334L286.698667 204.586667A19.84 19.84 0 0 1 305.173333 192H379.733333z m526.357334 481.088l-67.733334 2.090667c-61.781333 1.408-91.733333 24.618667-91.733333 69.013333 0 13.354667 4.736 23.722667 14.976 32.469333 9.877333 8.96 23.552 13.674667 40.298667 13.674667 28.437333 0 52.672-9.706667 73.301333-29.12 20.437333-19.242667 30.869333-43.093333 30.869333-70.890667v-17.237333zM342.357333 293.930667l-101.034666 258.773333h201.109333l-100.074667-258.773333z" p-id="4323"></path></svg>