<svg width="24" height="24" viewBox="0 0 24 24" version="1.1" xmlns="http://www.w3.org/2000/svg" stroke="none" stroke-width="1" fill="currentColor" stroke-linecap="round" stroke-linejoin="round">
    <path d="M18.9486187,13.2824835 C18.9486187,12.8726307 19.2740901,12.5471593 19.6839429,12.5471593 C20.0937957,12.5471593 20.419267,12.8726307 20.419267,13.2824835 L20.419267,16.0188536 C20.419267,17.5015564 19.2861446,18.6226244 17.8154963,18.6226244 L14.4281834,18.6226244 L12.173993,20.8768148 C11.9087942,21.1420136 11.5712683,21.2263951 11.221688,21.2263951 C10.8721077,21.2263951 10.5225273,21.1420136 10.269383,20.8768148 L7.99108357,18.6226244 L4.60377073,18.6226244 C3.12106795,18.6226244 2,17.4895019 2,16.0188536 L2,7.32756339 C2,5.84486061 3.13312245,4.72379266 4.60377073,4.72379266 L11.7761947,4.72379266 C12.1378295,4.72379266 12.4271374,5.01310052 12.4271374,5.37473534 C12.4271374,5.73637016 12.1378295,6.02567802 11.7761947,6.02567802 L4.60377073,6.02567802 C3.90461007,6.02567802 3.30188536,6.62840273 3.30188536,7.32756339 L3.30188536,16.0188536 C3.30188536,16.7180143 3.90461007,17.320739 4.60377073,17.320739 L8.50942682,17.320739 L11.1131975,19.9245097 L13.7169683,17.320739 L17.6226244,17.320739 C18.321785,17.320739 18.9245097,16.7180143 18.9245097,16.0188536 L18.9245097,13.2824835 L18.9486187,13.2824835 Z M20.2022861,6.20649543 L18.7557468,4.75995614 L11.6194863,11.8962167 L11.7279767,13.24632 L13.0780801,13.3548104 L20.2022861,6.20649543 Z M18.1289131,3.2049264 C18.2374036,3.09643595 18.5387659,3 18.7436923,3 C19.0571092,3 19.370526,3.10849045 19.6718884,3.4098528 L21.540335,5.27829939 C22.0586782,5.79664263 22.1551142,6.51991228 21.7452614,6.92976508 L14.1750391,14.4999874 C13.8616222,14.8134042 13.4276604,14.9580582 12.9816441,14.9098402 L10.3658189,14.5843688 L10.0403476,11.9685436 C9.9800751,11.5225273 10.1367835,11.0885655 10.4502004,10.7751487 L18.1289131,3.2049264 Z"></path>
</svg>