<svg width="24" height="24" viewBox="0 0 24 24" version="1.1" xmlns="http://www.w3.org/2000/svg" stroke="none" stroke-width="1" fill="currentColor" stroke-linecap="round" stroke-linejoin="round">
    <path d="M10,16.5454545 C10,17.0477392 10.4505652,17.4545455 11.0052307,17.4545455 L20.9933179,17.4545455 C21.5495688,17.4545455 22,17.0476183 22,16.5454545 C22,16.0445002 21.5494348,15.6363636 20.9933179,15.6363636 L11.0052307,15.6363636 C10.4505652,15.6363636 10,16.0445002 10,16.5454545 Z M21.3352758,20.1818182 L2.99524038,20.1818182 C2.44631856,20.1818182 2,20.5887966 2,21.0908378 C2,21.591678 2.44631856,22 2.99524038,22 L21.0031718,22 C21.839673,22 22.435531,21.0573318 21.5907903,20.2797511 C21.5326447,20.2261944 21.4179613,20.1818182 21.3352758,20.1818182 L21.3352758,20.1818182 Z M2.68873164,18.3444231 L6.1399426,17.419684 C6.54643202,17.3107702 6.68256299,16.8026515 6.38500896,16.5050967 L3.85853465,13.9786375 C3.56095875,13.6810608 3.05286338,13.817214 2.94394985,14.2237045 L2.01921321,17.6749029 C1.91027781,18.0813934 2.28224222,18.4533588 2.68873164,18.3444231 Z M7.90184434,15.1087361 C8.05140813,15.2583001 8.29615859,15.2583001 8.44574374,15.1087361 L14.1087202,9.44574959 C14.2583054,9.29618553 14.2583054,9.05141328 14.1087202,8.90184922 L11.4490701,6.24217304 C11.2995063,6.09260899 11.0547345,6.09260899 10.9051707,6.24217304 L5.24217284,11.9051809 C5.09260905,12.0547449 5.09260905,12.2995172 5.24217284,12.4490812 L7.90184434,15.1087361 Z M15.6966908,7.34173414 C15.8471274,7.49214923 16.093271,7.49214923 16.2436861,7.34173414 L18.250825,5.33459515 C18.4012401,5.18418006 18.4012401,4.93801502 18.250825,4.78759992 L15.5760364,2.11281132 C15.4255999,1.96239623 15.1794563,1.96239623 15.0290412,2.11281132 L13.0219022,4.11995031 C12.8714871,4.2703654 12.8714871,4.51653044 13.0219022,4.66694553 L15.6966908,7.34173414 Z"></path>
</svg>