<svg t="1639477651486" viewBox="0 0 1024 1024" version="1.1" xmlns="http://www.w3.org/2000/svg" p-id="20775" width="200" height="200"><path d="M256.1 575.4c-100.8 0-182.8-82-182.8-182.8s82-182.8 182.8-182.8v73.1c-60.5 0-109.7 49.2-109.7 109.7s49.2 109.7 109.7 109.7v73.1z" fill="#333535" p-id="20776"></path><path d="M0.2 796.1C-5.4 640.1 117 508.3 273 502.3l2.8 73.1C160 579.8 69.1 677.7 73.2 793.5l-73 2.6zM768 575.4v-73.1c60.5 0 109.7-49.2 109.7-109.7S828.5 282.9 768 282.9v-73.1c100.8 0 182.8 82 182.8 182.8s-82 182.8-182.8 182.8z" fill="#333535" p-id="20777"></path><path d="M1024 794.8h-73.1c0-121-82-219.4-182.8-219.4v-73.1c141.1 0 255.9 131.2 255.9 292.5zM512.1 648.5c-141.1 0-256-114.8-256-256s114.8-256 256-256 256 114.8 256 256-114.9 256-256 256z m0-438.8c-100.8 0-182.8 82-182.8 182.8s82 182.8 182.8 182.8 182.8-82 182.8-182.8-82-182.8-182.8-182.8z" fill="#333535" p-id="20778"></path><path d="M768.1 887.4c-4.6-136-120.2-243.5-254.9-238.9-139.5-4.4-252.6 102.9-257.1 238.9L183 885c5.9-176.2 155.1-315.1 330.2-309.6 172.7-5.6 322.1 133.4 327.9 309.6l-73 2.4z" p-id="20779"></path></svg>