<svg t="1639466446745" viewBox="0 0 1024 1024" version="1.1" xmlns="http://www.w3.org/2000/svg" p-id="19958" width="200" height="200"><path d="M439.04 506.72c0-70.56 48.96-130.08 115.2-145.44v-15.84c0-11.04 5.28-21.12 13.44-27.36-10.08-4.8-20.64-8.64-31.2-11.52v-15.84c0-19.2-15.36-34.56-34.56-34.56s-34.56 15.36-34.56 34.56v15.84c-66.24 15.84-115.2 74.88-115.2 145.44v126.72l-46.08 46.08v23.04h118.56l14.88-14.88V506.72zM501.92 713.12c11.04 0 20.64-4.32 28.32-11.04H473.12c7.68 7.2 17.76 11.04 28.8 11.04z" fill="#FFE9B4" p-id="19959"></path><path d="M738.56 633.44V506.72c0-70.56-48.96-130.08-115.2-145.44v-15.84c0-19.2-15.36-34.56-34.56-34.56-8.16 0-15.36 2.88-21.12 7.2-8.16 6.24-13.44 16.32-13.44 27.36v15.84c-66.24 15.84-115.2 74.88-115.2 145.44v126.72l-14.88 14.88-31.2 31.2v23.04h391.68v-23.04l-46.08-46.08zM588.8 767.84c24 0 43.2-19.2 43.2-43.2h-86.4c0 23.52 19.2 43.2 43.2 43.2z" fill="#FFBA00" p-id="19960"></path><path d="M344.48 310.88h-27.84v-27.84c0-6.24-4.8-11.04-11.04-11.04s-11.04 4.8-11.04 11.04v27.84H267.2c-6.24 0-11.04 4.8-11.04 11.04 0 6.24 4.8 11.04 11.04 11.04h27.84v27.84c0 6.24 4.8 11.04 11.04 11.04s11.04-4.8 11.04-11.04v-27.84h27.84c6.24 0 11.04-4.8 11.04-11.04-0.48-6.24-5.76-11.04-11.52-11.04zM891.2 497.6c0 19.2-15.84 28.8-27.36 35.52-11.52 6.72-16.8 10.56-16.8 17.28 0 6.24 4.8 10.08 16.32 17.28s26.88 16.8 26.88 36-15.84 28.8-27.36 35.52c-11.52 6.72-16.8 10.56-16.8 17.28 0 6.24-4.8 11.04-11.04 10.56-6.24 0-11.04-4.8-10.56-11.04 0-19.2 15.84-28.8 27.36-35.52 11.52-6.72 16.8-10.56 16.8-17.28 0-6.24-4.8-10.08-16.32-17.28s-26.88-16.8-26.88-36 15.84-28.8 27.36-35.52c11.52-6.72 16.8-10.56 16.8-17.28s-4.8-10.08-16.32-17.28-26.88-16.8-26.88-36c0-6.24 4.8-11.04 11.04-10.56 6.24 0 11.04 4.8 10.56 11.04 0 6.72 4.8 10.08 16.32 17.28 11.52 6.72 27.36 16.32 26.88 36z" fill="#FFC879" p-id="19961"></path><path d="M297.92 754.88l44.64-13.44-58.08-30.72z" fill="#FFF7EC" p-id="19962"></path><path d="M784.64 370.88m-30.72 0a30.72 30.72 0 1 0 61.44 0 30.72 30.72 0 1 0-61.44 0Z" fill="#FFF7EC" p-id="19963"></path><path d="M185.12 600.8c-28.8 0-52.8 23.52-52.8 52.8 0 28.8 23.52 52.8 52.8 52.8s52.8-23.52 52.8-52.8-23.52-52.8-52.8-52.8z m0 83.52c-16.8 0-30.72-13.92-30.72-30.72 0-16.8 13.92-30.72 30.72-30.72 16.8 0 30.72 13.92 30.72 30.72 0 16.8-13.44 30.72-30.72 30.72z" fill="#FFC879" p-id="19964"></path></svg>