<svg t="1640339791762" class="icon" viewBox="0 0 1024 1024" version="1.1" xmlns="http://www.w3.org/2000/svg" p-id="4582" width="200" height="200"><path d="M644 376.94H390.75V189.59c0-12.2 5.81-23 14.43-26.9l211-94.49c13.7-6.12 27.82 7.54 27.82 26.89z" fill="#00ffff" p-id="4583"></path><path d="M862.16 905.39c-1-59.44 0.06-118.92-0.45-178.37-0.71-81.9-39.19-140.79-112.26-176.41-15.77-7.69-20.7-16.74-20.33-33.16 0.89-39.05 0.32-78.14 0.27-117.21-0.07-53.06-12-72.38-55.81-76.73H357.86c-44.16 2.49-59.53 23.19-59.75 71.09-0.17 39.07-1.22 78.2 0.42 117.2 0.91 21.56-5.86 33-25.92 42.9-61.82 30.41-96.51 81.3-103.27 150.2-6.65 67.79-1 135.82-3.32 203.68-0.88 25.64 12.59 28 33.31 28.4 22 0.38 30.1-6.76 29.67-29.26-1.15-61.14-0.71-122.31-0.24-183.47 0.47-60.11 36.74-107.65 94.2-124.83 33.4-10 38.66-17.28 38.45-52.63-0.26-43.32 0.08-86.65-0.77-129.95-0.44-22.63 9-32.6 31.87-32.2 40 0.69 79.94 0.19 119.91 0.15s80-0.27 119.92 0c28.71 0.23 36.66 7.69 37 36.09 0.56 43.31 0.08 86.64 0.24 130 0.14 35.79 2.54 38.71 38.16 49 50.91 14.77 85.47 55.33 91.08 107.93 7 66.07 2.68 132.39 2.79 198.59 0 23.39 7.59 30.39 30.73 30.71 24.73 0.39 30.2-9.66 29.82-31.72z" fill="#333333" p-id="4584"></path></svg>