<svg t="1639641397184" class="icon" viewBox="0 0 1024 1024" version="1.1" xmlns="http://www.w3.org/2000/svg" p-id="3828" width="200" height="200"><path d="M512 655.21654107L512 655.21654107c111.44285991 0 202.62338165-91.18052174 202.62338165-202.62338166L714.62338165 209.44510145c0-111.44285991-91.18052174-202.62338165-202.62338165-202.62338164l0 0c-111.44285991 0-202.62338165 91.18052174-202.62338165 202.62338164l0 243.14805796C309.37661835 564.03601932 400.55714009 655.21654107 512 655.21654107z" p-id="3829"></path><path d="M872.41634009 508.82114781c3.41926957-22.16193237-11.65084444-42.80418937-33.81277681-46.22345892-22.16193237-3.29262994-42.80418937 11.77748405-46.22345893 33.81277681C771.10464927 633.18124831 650.67037682 736.26589373 512 736.26589373c-138.67037682 0-259.23128888-103.21128503-280.38010435-239.98206765-3.41926957-22.16193237-24.18816618-37.23204638-46.22345893-33.8127768-22.16193237 3.41926957-37.23204638 24.06152658-33.81277681 46.22345893 25.58120193 165.26469566 157.03312078 288.48503961 319.89166376 306.21458552L471.47532367 938.88927536l-121.57402898 0c-22.4152116 0-40.52467633 18.10946473-40.52467634 40.52467633s18.10946473 40.52467633 40.52467634 40.52467633l324.19741062 0c22.4152116 0 40.52467633-18.10946473 40.52467634-40.52467633s-18.10946473-40.52467633-40.52467634-40.52467633l-121.57402898 0 0-123.98018163C715.2565797 797.17954782 846.83513817 674.08584347 872.41634009 508.82114781z" p-id="3830"></path></svg>