<svg t="1640330990979" class="icon" viewBox="0 0 1024 1024" version="1.1" xmlns="http://www.w3.org/2000/svg" p-id="4695" width="200" height="200"><path d="M896 650.666667l-247.04-83.072s18.986667-28.416 39.253333-84.138667c20.266667-55.722667 23.168-86.314667 23.168-86.314667l-159.914666-1.28V341.162667l193.706666-1.365334V301.226667h-193.706666V213.333333H456.533333v87.893334H275.882667v38.613333l180.693333-1.28v58.581333H311.637333v30.592h298.325334s-3.285333 24.832-14.72 55.722667a1254.485333 1254.485333 0 0 1-23.210667 57.941333s-140.074667-49.024-213.888-49.024-163.584 29.653333-172.288 115.712c-8.661333 86.016 41.813333 132.608 112.938667 149.76 71.125333 17.237333 136.789333-0.170667 193.962666-28.16 57.173333-27.946667 113.28-91.477333 113.28-91.477333l287.914667 139.818667A142.08 142.08 0 0 1 753.792 896H270.208A142.08 142.08 0 0 1 128 754.048V270.208A142.08 142.08 0 0 1 269.952 128h483.84A142.08 142.08 0 0 1 896 269.952v380.714667z m-360.064-48.128s-89.856 113.493333-195.754667 113.493333c-105.941333 0-128.170667-53.930667-128.170666-92.714667 0-38.741333 22.016-80.853333 112.170666-86.954666 90.069333-6.101333 211.84 66.176 211.84 66.176h-0.085333z" fill="#02A9F1" p-id="4696"></path></svg>